M48
; DRILL file {KiCad (5.1.12)-1} date 01/08/23 12:27:27
; FORMAT={-:-/ absolute / metric / decimal}
; #@! TF.CreationDate,2023-01-08T12:27:27+03:00
; #@! TF.GenerationSoftware,Kicad,Pcbnew,(5.1.12)-1
; #@! TF.FileFunction,Plated,1,2,PTH
FMAT,2
METRIC
T1C0.400
T2C0.800
T3C1.000
%
G90
G05
T1
X100.36Y-69.485
X100.385Y-73.485
X101.51Y-105.76
X101.67Y-116.03
X101.835Y-97.035
X101.935Y-102.585
X102.56Y-87.385
X102.74Y-111.82
X108.86Y-87.685
X109.122Y-109.522
X111.122Y-107.697
X115.635Y-103.885
X115.66Y-110.685
X118.635Y-111.41
X119.735Y-110.485
X120.46Y-81.485
X120.46Y-83.485
X120.535Y-79.485
X120.56Y-77.485
X121.01Y-109.435
X122.38Y-77.41
X123.078Y-101.642
X123.5Y-93.92
X124.45Y-91.42
X125.635Y-101.235
X126.46Y-96.86
X129.86Y-103.66
X129.885Y-76.685
X130.085Y-82.31
X132.66Y-100.01
X133.01Y-91.06
X133.585Y-86.86
X133.835Y-84.735
X134.235Y-93.06
X134.785Y-89.76
X135.21Y-78.16
X135.885Y-97.66
X137.01Y-112.135
X137.485Y-99.71
X137.873Y-103.397
X138.035Y-78.185
X138.31Y-98.635
X140.335Y-98.135
X141.135Y-84.335
X141.81Y-85.36
X141.81Y-97.06
X141.885Y-98.835
X144.916Y-86.185
X145.86Y-81.51
X146.935Y-88.135
X146.985Y-86.61
X146.985Y-90.685
X147.335Y-82.135
X148.51Y-89.61
X148.81Y-102.535
X149.835Y-81.11
X150.085Y-82.46
T2
X103.26Y-92.785
X106.76Y-92.785
X129.36Y-87.085
X129.36Y-91.965
T3
X120.685Y-96.71
X120.685Y-99.25
X121.71Y-67.84
X121.71Y-70.38
X121.71Y-72.92
X121.71Y-75.46
X123.46Y-96.72
X123.46Y-99.26
X134.14Y-82.06
X136.68Y-82.06
X139.22Y-82.06
X140.885Y-107.61
X140.885Y-110.15
X141.76Y-82.06
X151.25Y-65.3
X151.25Y-67.84
X151.25Y-70.38
X151.25Y-72.92
X151.25Y-75.46
T0
M30
