%TF.GenerationSoftware,KiCad,Pcbnew,(5.1.12)-1*%
%TF.CreationDate,2023-01-08T12:27:17+03:00*%
%TF.ProjectId,windows_sensor_project,77696e64-6f77-4735-9f73-656e736f725f,rev?*%
%TF.SameCoordinates,Original*%
%TF.FileFunction,Copper,L1,Top*%
%TF.FilePolarity,Positive*%
%FSLAX46Y46*%
G04 Gerber Fmt 4.6, Leading zero omitted, Abs format (unit mm)*
G04 Created by KiCad (PCBNEW (5.1.12)-1) date 2023-01-08 12:27:17*
%MOMM*%
%LPD*%
G01*
G04 APERTURE LIST*
%TA.AperFunction,ComponentPad*%
%ADD10C,1.600000*%
%TD*%
%TA.AperFunction,ComponentPad*%
%ADD11R,1.600000X1.600000*%
%TD*%
%TA.AperFunction,ComponentPad*%
%ADD12R,1.700000X1.700000*%
%TD*%
%TA.AperFunction,ComponentPad*%
%ADD13O,1.700000X1.700000*%
%TD*%
%TA.AperFunction,SMDPad,CuDef*%
%ADD14R,0.900000X1.700000*%
%TD*%
%TA.AperFunction,SMDPad,CuDef*%
%ADD15R,2.500000X1.000000*%
%TD*%
%TA.AperFunction,SMDPad,CuDef*%
%ADD16R,1.000000X1.800000*%
%TD*%
%TA.AperFunction,SMDPad,CuDef*%
%ADD17R,1.500000X2.400000*%
%TD*%
%TA.AperFunction,SMDPad,CuDef*%
%ADD18R,0.600000X0.400000*%
%TD*%
%TA.AperFunction,ComponentPad*%
%ADD19C,2.000000*%
%TD*%
%TA.AperFunction,SMDPad,CuDef*%
%ADD20R,2.000000X3.800000*%
%TD*%
%TA.AperFunction,SMDPad,CuDef*%
%ADD21R,2.000000X1.500000*%
%TD*%
%TA.AperFunction,ComponentPad*%
%ADD22C,1.500000*%
%TD*%
%TA.AperFunction,ViaPad*%
%ADD23C,1.000000*%
%TD*%
%TA.AperFunction,ViaPad*%
%ADD24C,0.800000*%
%TD*%
%TA.AperFunction,Conductor*%
%ADD25C,0.800000*%
%TD*%
%TA.AperFunction,Conductor*%
%ADD26C,0.300000*%
%TD*%
%TA.AperFunction,Conductor*%
%ADD27C,0.100000*%
%TD*%
G04 APERTURE END LIST*
%TO.P,C2,2*%
%TO.N,GND*%
%TA.AperFunction,SMDPad,CuDef*%
G36*
G01*
X124960000Y-108460000D02*
X126810000Y-108460000D01*
G75*
G02*
X127060000Y-108710000I0J-250000D01*
G01*
X127060000Y-109710000D01*
G75*
G02*
X126810000Y-109960000I-250000J0D01*
G01*
X124960000Y-109960000D01*
G75*
G02*
X124710000Y-109710000I0J250000D01*
G01*
X124710000Y-108710000D01*
G75*
G02*
X124960000Y-108460000I250000J0D01*
G01*
G37*
%TD.AperFunction*%
%TO.P,C2,1*%
%TO.N,3.3v*%
%TA.AperFunction,SMDPad,CuDef*%
G36*
G01*
X124960000Y-105210000D02*
X126810000Y-105210000D01*
G75*
G02*
X127060000Y-105460000I0J-250000D01*
G01*
X127060000Y-106460000D01*
G75*
G02*
X126810000Y-106710000I-250000J0D01*
G01*
X124960000Y-106710000D01*
G75*
G02*
X124710000Y-106460000I0J250000D01*
G01*
X124710000Y-105460000D01*
G75*
G02*
X124960000Y-105210000I250000J0D01*
G01*
G37*
%TD.AperFunction*%
%TD*%
%TO.P,C1,2*%
%TO.N,GND*%
%TA.AperFunction,SMDPad,CuDef*%
G36*
G01*
X144360000Y-104210000D02*
X144360000Y-102360000D01*
G75*
G02*
X144610000Y-102110000I250000J0D01*
G01*
X145610000Y-102110000D01*
G75*
G02*
X145860000Y-102360000I0J-250000D01*
G01*
X145860000Y-104210000D01*
G75*
G02*
X145610000Y-104460000I-250000J0D01*
G01*
X144610000Y-104460000D01*
G75*
G02*
X144360000Y-104210000I0J250000D01*
G01*
G37*
%TD.AperFunction*%
%TO.P,C1,1*%
%TO.N,5v*%
%TA.AperFunction,SMDPad,CuDef*%
G36*
G01*
X141110000Y-104210000D02*
X141110000Y-102360000D01*
G75*
G02*
X141360000Y-102110000I250000J0D01*
G01*
X142360000Y-102110000D01*
G75*
G02*
X142610000Y-102360000I0J-250000D01*
G01*
X142610000Y-104210000D01*
G75*
G02*
X142360000Y-104460000I-250000J0D01*
G01*
X141360000Y-104460000D01*
G75*
G02*
X141110000Y-104210000I0J250000D01*
G01*
G37*
%TD.AperFunction*%
%TD*%
D10*
%TO.P,C16,2*%
%TO.N,GND*%
X106760000Y-92785000D03*
D11*
%TO.P,C16,1*%
%TO.N,3.3v*%
X103260000Y-92785000D03*
%TD*%
%TO.P,ERROR,2*%
%TO.N,Net-(D4-Pad2)*%
%TA.AperFunction,SMDPad,CuDef*%
G36*
G01*
X115222500Y-101548750D02*
X115222500Y-102461250D01*
G75*
G02*
X114978750Y-102705000I-243750J0D01*
G01*
X114491250Y-102705000D01*
G75*
G02*
X114247500Y-102461250I0J243750D01*
G01*
X114247500Y-101548750D01*
G75*
G02*
X114491250Y-101305000I243750J0D01*
G01*
X114978750Y-101305000D01*
G75*
G02*
X115222500Y-101548750I0J-243750D01*
G01*
G37*
%TD.AperFunction*%
%TO.P,ERROR,1*%
%TO.N,GND*%
%TA.AperFunction,SMDPad,CuDef*%
G36*
G01*
X117097500Y-101548750D02*
X117097500Y-102461250D01*
G75*
G02*
X116853750Y-102705000I-243750J0D01*
G01*
X116366250Y-102705000D01*
G75*
G02*
X116122500Y-102461250I0J243750D01*
G01*
X116122500Y-101548750D01*
G75*
G02*
X116366250Y-101305000I243750J0D01*
G01*
X116853750Y-101305000D01*
G75*
G02*
X117097500Y-101548750I0J-243750D01*
G01*
G37*
%TD.AperFunction*%
%TD*%
%TO.P,I2C_OK,2*%
%TO.N,Net-(D3-Pad2)*%
%TA.AperFunction,SMDPad,CuDef*%
G36*
G01*
X115222500Y-98808750D02*
X115222500Y-99721250D01*
G75*
G02*
X114978750Y-99965000I-243750J0D01*
G01*
X114491250Y-99965000D01*
G75*
G02*
X114247500Y-99721250I0J243750D01*
G01*
X114247500Y-98808750D01*
G75*
G02*
X114491250Y-98565000I243750J0D01*
G01*
X114978750Y-98565000D01*
G75*
G02*
X115222500Y-98808750I0J-243750D01*
G01*
G37*
%TD.AperFunction*%
%TO.P,I2C_OK,1*%
%TO.N,GND*%
%TA.AperFunction,SMDPad,CuDef*%
G36*
G01*
X117097500Y-98808750D02*
X117097500Y-99721250D01*
G75*
G02*
X116853750Y-99965000I-243750J0D01*
G01*
X116366250Y-99965000D01*
G75*
G02*
X116122500Y-99721250I0J243750D01*
G01*
X116122500Y-98808750D01*
G75*
G02*
X116366250Y-98565000I243750J0D01*
G01*
X116853750Y-98565000D01*
G75*
G02*
X117097500Y-98808750I0J-243750D01*
G01*
G37*
%TD.AperFunction*%
%TD*%
%TO.P,USART_OK,2*%
%TO.N,Net-(D2-Pad2)*%
%TA.AperFunction,SMDPad,CuDef*%
G36*
G01*
X115212500Y-95978750D02*
X115212500Y-96891250D01*
G75*
G02*
X114968750Y-97135000I-243750J0D01*
G01*
X114481250Y-97135000D01*
G75*
G02*
X114237500Y-96891250I0J243750D01*
G01*
X114237500Y-95978750D01*
G75*
G02*
X114481250Y-95735000I243750J0D01*
G01*
X114968750Y-95735000D01*
G75*
G02*
X115212500Y-95978750I0J-243750D01*
G01*
G37*
%TD.AperFunction*%
%TO.P,USART_OK,1*%
%TO.N,GND*%
%TA.AperFunction,SMDPad,CuDef*%
G36*
G01*
X117087500Y-95978750D02*
X117087500Y-96891250D01*
G75*
G02*
X116843750Y-97135000I-243750J0D01*
G01*
X116356250Y-97135000D01*
G75*
G02*
X116112500Y-96891250I0J243750D01*
G01*
X116112500Y-95978750D01*
G75*
G02*
X116356250Y-95735000I243750J0D01*
G01*
X116843750Y-95735000D01*
G75*
G02*
X117087500Y-95978750I0J-243750D01*
G01*
G37*
%TD.AperFunction*%
%TD*%
%TO.P,Wi-fi_OK,2*%
%TO.N,Net-(D1-Pad2)*%
%TA.AperFunction,SMDPad,CuDef*%
G36*
G01*
X115222500Y-93233750D02*
X115222500Y-94146250D01*
G75*
G02*
X114978750Y-94390000I-243750J0D01*
G01*
X114491250Y-94390000D01*
G75*
G02*
X114247500Y-94146250I0J243750D01*
G01*
X114247500Y-93233750D01*
G75*
G02*
X114491250Y-92990000I243750J0D01*
G01*
X114978750Y-92990000D01*
G75*
G02*
X115222500Y-93233750I0J-243750D01*
G01*
G37*
%TD.AperFunction*%
%TO.P,Wi-fi_OK,1*%
%TO.N,GND*%
%TA.AperFunction,SMDPad,CuDef*%
G36*
G01*
X117097500Y-93233750D02*
X117097500Y-94146250D01*
G75*
G02*
X116853750Y-94390000I-243750J0D01*
G01*
X116366250Y-94390000D01*
G75*
G02*
X116122500Y-94146250I0J243750D01*
G01*
X116122500Y-93233750D01*
G75*
G02*
X116366250Y-92990000I243750J0D01*
G01*
X116853750Y-92990000D01*
G75*
G02*
X117097500Y-93233750I0J-243750D01*
G01*
G37*
%TD.AperFunction*%
%TD*%
%TO.P,R17,2*%
%TO.N,NRST*%
%TA.AperFunction,SMDPad,CuDef*%
G36*
G01*
X133747500Y-95659999D02*
X133747500Y-96560001D01*
G75*
G02*
X133497501Y-96810000I-249999J0D01*
G01*
X132972499Y-96810000D01*
G75*
G02*
X132722500Y-96560001I0J249999D01*
G01*
X132722500Y-95659999D01*
G75*
G02*
X132972499Y-95410000I249999J0D01*
G01*
X133497501Y-95410000D01*
G75*
G02*
X133747500Y-95659999I0J-249999D01*
G01*
G37*
%TD.AperFunction*%
%TO.P,R17,1*%
%TO.N,3.3v*%
%TA.AperFunction,SMDPad,CuDef*%
G36*
G01*
X135572500Y-95659999D02*
X135572500Y-96560001D01*
G75*
G02*
X135322501Y-96810000I-249999J0D01*
G01*
X134797499Y-96810000D01*
G75*
G02*
X134547500Y-96560001I0J249999D01*
G01*
X134547500Y-95659999D01*
G75*
G02*
X134797499Y-95410000I249999J0D01*
G01*
X135322501Y-95410000D01*
G75*
G02*
X135572500Y-95659999I0J-249999D01*
G01*
G37*
%TD.AperFunction*%
%TD*%
%TO.P,C3,2*%
%TO.N,GND*%
%TA.AperFunction,SMDPad,CuDef*%
G36*
G01*
X136285000Y-84910000D02*
X135335000Y-84910000D01*
G75*
G02*
X135085000Y-84660000I0J250000D01*
G01*
X135085000Y-84160000D01*
G75*
G02*
X135335000Y-83910000I250000J0D01*
G01*
X136285000Y-83910000D01*
G75*
G02*
X136535000Y-84160000I0J-250000D01*
G01*
X136535000Y-84660000D01*
G75*
G02*
X136285000Y-84910000I-250000J0D01*
G01*
G37*
%TD.AperFunction*%
%TO.P,C3,1*%
%TO.N,3.3v*%
%TA.AperFunction,SMDPad,CuDef*%
G36*
G01*
X136285000Y-86810000D02*
X135335000Y-86810000D01*
G75*
G02*
X135085000Y-86560000I0J250000D01*
G01*
X135085000Y-86060000D01*
G75*
G02*
X135335000Y-85810000I250000J0D01*
G01*
X136285000Y-85810000D01*
G75*
G02*
X136535000Y-86060000I0J-250000D01*
G01*
X136535000Y-86560000D01*
G75*
G02*
X136285000Y-86810000I-250000J0D01*
G01*
G37*
%TD.AperFunction*%
%TD*%
%TO.P,C4,1*%
%TO.N,3.3v*%
%TA.AperFunction,SMDPad,CuDef*%
G36*
G01*
X146335000Y-85060000D02*
X146335000Y-84110000D01*
G75*
G02*
X146585000Y-83860000I250000J0D01*
G01*
X147085000Y-83860000D01*
G75*
G02*
X147335000Y-84110000I0J-250000D01*
G01*
X147335000Y-85060000D01*
G75*
G02*
X147085000Y-85310000I-250000J0D01*
G01*
X146585000Y-85310000D01*
G75*
G02*
X146335000Y-85060000I0J250000D01*
G01*
G37*
%TD.AperFunction*%
%TO.P,C4,2*%
%TO.N,GND*%
%TA.AperFunction,SMDPad,CuDef*%
G36*
G01*
X148235000Y-85060000D02*
X148235000Y-84110000D01*
G75*
G02*
X148485000Y-83860000I250000J0D01*
G01*
X148985000Y-83860000D01*
G75*
G02*
X149235000Y-84110000I0J-250000D01*
G01*
X149235000Y-85060000D01*
G75*
G02*
X148985000Y-85310000I-250000J0D01*
G01*
X148485000Y-85310000D01*
G75*
G02*
X148235000Y-85060000I0J250000D01*
G01*
G37*
%TD.AperFunction*%
%TD*%
%TO.P,C5,2*%
%TO.N,GND*%
%TA.AperFunction,SMDPad,CuDef*%
G36*
G01*
X143785000Y-97135000D02*
X143785000Y-98085000D01*
G75*
G02*
X143535000Y-98335000I-250000J0D01*
G01*
X143035000Y-98335000D01*
G75*
G02*
X142785000Y-98085000I0J250000D01*
G01*
X142785000Y-97135000D01*
G75*
G02*
X143035000Y-96885000I250000J0D01*
G01*
X143535000Y-96885000D01*
G75*
G02*
X143785000Y-97135000I0J-250000D01*
G01*
G37*
%TD.AperFunction*%
%TO.P,C5,1*%
%TO.N,3.3v*%
%TA.AperFunction,SMDPad,CuDef*%
G36*
G01*
X145685000Y-97135000D02*
X145685000Y-98085000D01*
G75*
G02*
X145435000Y-98335000I-250000J0D01*
G01*
X144935000Y-98335000D01*
G75*
G02*
X144685000Y-98085000I0J250000D01*
G01*
X144685000Y-97135000D01*
G75*
G02*
X144935000Y-96885000I250000J0D01*
G01*
X145435000Y-96885000D01*
G75*
G02*
X145685000Y-97135000I0J-250000D01*
G01*
G37*
%TD.AperFunction*%
%TD*%
%TO.P,C6,1*%
%TO.N,3.3v*%
%TA.AperFunction,SMDPad,CuDef*%
G36*
G01*
X135085000Y-97860000D02*
X135085000Y-98810000D01*
G75*
G02*
X134835000Y-99060000I-250000J0D01*
G01*
X134335000Y-99060000D01*
G75*
G02*
X134085000Y-98810000I0J250000D01*
G01*
X134085000Y-97860000D01*
G75*
G02*
X134335000Y-97610000I250000J0D01*
G01*
X134835000Y-97610000D01*
G75*
G02*
X135085000Y-97860000I0J-250000D01*
G01*
G37*
%TD.AperFunction*%
%TO.P,C6,2*%
%TO.N,GND*%
%TA.AperFunction,SMDPad,CuDef*%
G36*
G01*
X133185000Y-97860000D02*
X133185000Y-98810000D01*
G75*
G02*
X132935000Y-99060000I-250000J0D01*
G01*
X132435000Y-99060000D01*
G75*
G02*
X132185000Y-98810000I0J250000D01*
G01*
X132185000Y-97860000D01*
G75*
G02*
X132435000Y-97610000I250000J0D01*
G01*
X132935000Y-97610000D01*
G75*
G02*
X133185000Y-97860000I0J-250000D01*
G01*
G37*
%TD.AperFunction*%
%TD*%
%TO.P,C9,2*%
%TO.N,NRST*%
%TA.AperFunction,SMDPad,CuDef*%
G36*
G01*
X129910000Y-97435000D02*
X129910000Y-96485000D01*
G75*
G02*
X130160000Y-96235000I250000J0D01*
G01*
X130660000Y-96235000D01*
G75*
G02*
X130910000Y-96485000I0J-250000D01*
G01*
X130910000Y-97435000D01*
G75*
G02*
X130660000Y-97685000I-250000J0D01*
G01*
X130160000Y-97685000D01*
G75*
G02*
X129910000Y-97435000I0J250000D01*
G01*
G37*
%TD.AperFunction*%
%TO.P,C9,1*%
%TO.N,GND*%
%TA.AperFunction,SMDPad,CuDef*%
G36*
G01*
X128010000Y-97435000D02*
X128010000Y-96485000D01*
G75*
G02*
X128260000Y-96235000I250000J0D01*
G01*
X128760000Y-96235000D01*
G75*
G02*
X129010000Y-96485000I0J-250000D01*
G01*
X129010000Y-97435000D01*
G75*
G02*
X128760000Y-97685000I-250000J0D01*
G01*
X128260000Y-97685000D01*
G75*
G02*
X128010000Y-97435000I0J250000D01*
G01*
G37*
%TD.AperFunction*%
%TD*%
%TO.P,C10,2*%
%TO.N,GND*%
%TA.AperFunction,SMDPad,CuDef*%
G36*
G01*
X103760000Y-104660000D02*
X103760000Y-105610000D01*
G75*
G02*
X103510000Y-105860000I-250000J0D01*
G01*
X103010000Y-105860000D01*
G75*
G02*
X102760000Y-105610000I0J250000D01*
G01*
X102760000Y-104660000D01*
G75*
G02*
X103010000Y-104410000I250000J0D01*
G01*
X103510000Y-104410000D01*
G75*
G02*
X103760000Y-104660000I0J-250000D01*
G01*
G37*
%TD.AperFunction*%
%TO.P,C10,1*%
%TO.N,3.3v*%
%TA.AperFunction,SMDPad,CuDef*%
G36*
G01*
X105660000Y-104660000D02*
X105660000Y-105610000D01*
G75*
G02*
X105410000Y-105860000I-250000J0D01*
G01*
X104910000Y-105860000D01*
G75*
G02*
X104660000Y-105610000I0J250000D01*
G01*
X104660000Y-104660000D01*
G75*
G02*
X104910000Y-104410000I250000J0D01*
G01*
X105410000Y-104410000D01*
G75*
G02*
X105660000Y-104660000I0J-250000D01*
G01*
G37*
%TD.AperFunction*%
%TD*%
%TO.P,C11,1*%
%TO.N,3.3v*%
%TA.AperFunction,SMDPad,CuDef*%
G36*
G01*
X105660000Y-107035000D02*
X105660000Y-107985000D01*
G75*
G02*
X105410000Y-108235000I-250000J0D01*
G01*
X104910000Y-108235000D01*
G75*
G02*
X104660000Y-107985000I0J250000D01*
G01*
X104660000Y-107035000D01*
G75*
G02*
X104910000Y-106785000I250000J0D01*
G01*
X105410000Y-106785000D01*
G75*
G02*
X105660000Y-107035000I0J-250000D01*
G01*
G37*
%TD.AperFunction*%
%TO.P,C11,2*%
%TO.N,GND*%
%TA.AperFunction,SMDPad,CuDef*%
G36*
G01*
X103760000Y-107035000D02*
X103760000Y-107985000D01*
G75*
G02*
X103510000Y-108235000I-250000J0D01*
G01*
X103010000Y-108235000D01*
G75*
G02*
X102760000Y-107985000I0J250000D01*
G01*
X102760000Y-107035000D01*
G75*
G02*
X103010000Y-106785000I250000J0D01*
G01*
X103510000Y-106785000D01*
G75*
G02*
X103760000Y-107035000I0J-250000D01*
G01*
G37*
%TD.AperFunction*%
%TD*%
D12*
%TO.P,J1,1*%
%TO.N,3.3v*%
X141760000Y-82060000D03*
D13*
%TO.P,J1,2*%
%TO.N,PA13*%
X139220000Y-82060000D03*
%TO.P,J1,3*%
%TO.N,PA14*%
X136680000Y-82060000D03*
%TO.P,J1,4*%
%TO.N,GND*%
X134140000Y-82060000D03*
%TD*%
D12*
%TO.P,Rx,1*%
%TO.N,USART2_Rx*%
X120685000Y-99250000D03*
D13*
%TO.P,Rx,2*%
%TO.N,ESP_UART_Tx*%
X120685000Y-96710000D03*
%TD*%
%TO.P,Tx,2*%
%TO.N,ESP_UART_Rx*%
X123460000Y-96720000D03*
D12*
%TO.P,Tx,1*%
%TO.N,USART2_Tx*%
X123460000Y-99260000D03*
%TD*%
%TO.P,J4,1*%
%TO.N,5v*%
X140885000Y-107610000D03*
D13*
%TO.P,J4,2*%
%TO.N,GND*%
X140885000Y-110150000D03*
%TD*%
%TO.P,R1,2*%
%TO.N,BOOT0*%
%TA.AperFunction,SMDPad,CuDef*%
G36*
G01*
X139272500Y-85060001D02*
X139272500Y-84159999D01*
G75*
G02*
X139522499Y-83910000I249999J0D01*
G01*
X140047501Y-83910000D01*
G75*
G02*
X140297500Y-84159999I0J-249999D01*
G01*
X140297500Y-85060001D01*
G75*
G02*
X140047501Y-85310000I-249999J0D01*
G01*
X139522499Y-85310000D01*
G75*
G02*
X139272500Y-85060001I0J249999D01*
G01*
G37*
%TD.AperFunction*%
%TO.P,R1,1*%
%TO.N,GND*%
%TA.AperFunction,SMDPad,CuDef*%
G36*
G01*
X137447500Y-85060001D02*
X137447500Y-84159999D01*
G75*
G02*
X137697499Y-83910000I249999J0D01*
G01*
X138222501Y-83910000D01*
G75*
G02*
X138472500Y-84159999I0J-249999D01*
G01*
X138472500Y-85060001D01*
G75*
G02*
X138222501Y-85310000I-249999J0D01*
G01*
X137697499Y-85310000D01*
G75*
G02*
X137447500Y-85060001I0J249999D01*
G01*
G37*
%TD.AperFunction*%
%TD*%
%TO.P,R3,1*%
%TO.N,3.3v*%
%TA.AperFunction,SMDPad,CuDef*%
G36*
G01*
X107059999Y-107185000D02*
X107960001Y-107185000D01*
G75*
G02*
X108210000Y-107434999I0J-249999D01*
G01*
X108210000Y-107960001D01*
G75*
G02*
X107960001Y-108210000I-249999J0D01*
G01*
X107059999Y-108210000D01*
G75*
G02*
X106810000Y-107960001I0J249999D01*
G01*
X106810000Y-107434999D01*
G75*
G02*
X107059999Y-107185000I249999J0D01*
G01*
G37*
%TD.AperFunction*%
%TO.P,R3,2*%
%TO.N,I2C1_SCL*%
%TA.AperFunction,SMDPad,CuDef*%
G36*
G01*
X107059999Y-109010000D02*
X107960001Y-109010000D01*
G75*
G02*
X108210000Y-109259999I0J-249999D01*
G01*
X108210000Y-109785001D01*
G75*
G02*
X107960001Y-110035000I-249999J0D01*
G01*
X107059999Y-110035000D01*
G75*
G02*
X106810000Y-109785001I0J249999D01*
G01*
X106810000Y-109259999D01*
G75*
G02*
X107059999Y-109010000I249999J0D01*
G01*
G37*
%TD.AperFunction*%
%TD*%
%TO.P,R4,2*%
%TO.N,I2C1_SDA*%
%TA.AperFunction,SMDPad,CuDef*%
G36*
G01*
X100409999Y-109085000D02*
X101310001Y-109085000D01*
G75*
G02*
X101560000Y-109334999I0J-249999D01*
G01*
X101560000Y-109860001D01*
G75*
G02*
X101310001Y-110110000I-249999J0D01*
G01*
X100409999Y-110110000D01*
G75*
G02*
X100160000Y-109860001I0J249999D01*
G01*
X100160000Y-109334999D01*
G75*
G02*
X100409999Y-109085000I249999J0D01*
G01*
G37*
%TD.AperFunction*%
%TO.P,R4,1*%
%TO.N,3.3v*%
%TA.AperFunction,SMDPad,CuDef*%
G36*
G01*
X100409999Y-107260000D02*
X101310001Y-107260000D01*
G75*
G02*
X101560000Y-107509999I0J-249999D01*
G01*
X101560000Y-108035001D01*
G75*
G02*
X101310001Y-108285000I-249999J0D01*
G01*
X100409999Y-108285000D01*
G75*
G02*
X100160000Y-108035001I0J249999D01*
G01*
X100160000Y-107509999D01*
G75*
G02*
X100409999Y-107260000I249999J0D01*
G01*
G37*
%TD.AperFunction*%
%TD*%
%TO.P,R5,2*%
%TO.N,PA13*%
%TA.AperFunction,SMDPad,CuDef*%
G36*
G01*
X148059999Y-87922500D02*
X148960001Y-87922500D01*
G75*
G02*
X149210000Y-88172499I0J-249999D01*
G01*
X149210000Y-88697501D01*
G75*
G02*
X148960001Y-88947500I-249999J0D01*
G01*
X148059999Y-88947500D01*
G75*
G02*
X147810000Y-88697501I0J249999D01*
G01*
X147810000Y-88172499D01*
G75*
G02*
X148059999Y-87922500I249999J0D01*
G01*
G37*
%TD.AperFunction*%
%TO.P,R5,1*%
%TO.N,3.3v*%
%TA.AperFunction,SMDPad,CuDef*%
G36*
G01*
X148059999Y-86097500D02*
X148960001Y-86097500D01*
G75*
G02*
X149210000Y-86347499I0J-249999D01*
G01*
X149210000Y-86872501D01*
G75*
G02*
X148960001Y-87122500I-249999J0D01*
G01*
X148059999Y-87122500D01*
G75*
G02*
X147810000Y-86872501I0J249999D01*
G01*
X147810000Y-86347499D01*
G75*
G02*
X148059999Y-86097500I249999J0D01*
G01*
G37*
%TD.AperFunction*%
%TD*%
%TO.P,R6,1*%
%TO.N,PA14*%
%TA.AperFunction,SMDPad,CuDef*%
G36*
G01*
X142760000Y-85060001D02*
X142760000Y-84159999D01*
G75*
G02*
X143009999Y-83910000I249999J0D01*
G01*
X143535001Y-83910000D01*
G75*
G02*
X143785000Y-84159999I0J-249999D01*
G01*
X143785000Y-85060001D01*
G75*
G02*
X143535001Y-85310000I-249999J0D01*
G01*
X143009999Y-85310000D01*
G75*
G02*
X142760000Y-85060001I0J249999D01*
G01*
G37*
%TD.AperFunction*%
%TO.P,R6,2*%
%TO.N,GND*%
%TA.AperFunction,SMDPad,CuDef*%
G36*
G01*
X144585000Y-85060001D02*
X144585000Y-84159999D01*
G75*
G02*
X144834999Y-83910000I249999J0D01*
G01*
X145360001Y-83910000D01*
G75*
G02*
X145610000Y-84159999I0J-249999D01*
G01*
X145610000Y-85060001D01*
G75*
G02*
X145360001Y-85310000I-249999J0D01*
G01*
X144834999Y-85310000D01*
G75*
G02*
X144585000Y-85060001I0J249999D01*
G01*
G37*
%TD.AperFunction*%
%TD*%
%TO.P,R13,1*%
%TO.N,Net-(D1-Pad2)*%
%TA.AperFunction,SMDPad,CuDef*%
G36*
G01*
X113385000Y-93264999D02*
X113385000Y-94165001D01*
G75*
G02*
X113135001Y-94415000I-249999J0D01*
G01*
X112609999Y-94415000D01*
G75*
G02*
X112360000Y-94165001I0J249999D01*
G01*
X112360000Y-93264999D01*
G75*
G02*
X112609999Y-93015000I249999J0D01*
G01*
X113135001Y-93015000D01*
G75*
G02*
X113385000Y-93264999I0J-249999D01*
G01*
G37*
%TD.AperFunction*%
%TO.P,R13,2*%
%TO.N,WiFi_ok*%
%TA.AperFunction,SMDPad,CuDef*%
G36*
G01*
X111560000Y-93264999D02*
X111560000Y-94165001D01*
G75*
G02*
X111310001Y-94415000I-249999J0D01*
G01*
X110784999Y-94415000D01*
G75*
G02*
X110535000Y-94165001I0J249999D01*
G01*
X110535000Y-93264999D01*
G75*
G02*
X110784999Y-93015000I249999J0D01*
G01*
X111310001Y-93015000D01*
G75*
G02*
X111560000Y-93264999I0J-249999D01*
G01*
G37*
%TD.AperFunction*%
%TD*%
%TO.P,R14,2*%
%TO.N,USART1_ok*%
%TA.AperFunction,SMDPad,CuDef*%
G36*
G01*
X111575000Y-96009999D02*
X111575000Y-96910001D01*
G75*
G02*
X111325001Y-97160000I-249999J0D01*
G01*
X110799999Y-97160000D01*
G75*
G02*
X110550000Y-96910001I0J249999D01*
G01*
X110550000Y-96009999D01*
G75*
G02*
X110799999Y-95760000I249999J0D01*
G01*
X111325001Y-95760000D01*
G75*
G02*
X111575000Y-96009999I0J-249999D01*
G01*
G37*
%TD.AperFunction*%
%TO.P,R14,1*%
%TO.N,Net-(D2-Pad2)*%
%TA.AperFunction,SMDPad,CuDef*%
G36*
G01*
X113400000Y-96009999D02*
X113400000Y-96910001D01*
G75*
G02*
X113150001Y-97160000I-249999J0D01*
G01*
X112624999Y-97160000D01*
G75*
G02*
X112375000Y-96910001I0J249999D01*
G01*
X112375000Y-96009999D01*
G75*
G02*
X112624999Y-95760000I249999J0D01*
G01*
X113150001Y-95760000D01*
G75*
G02*
X113400000Y-96009999I0J-249999D01*
G01*
G37*
%TD.AperFunction*%
%TD*%
%TO.P,R15,1*%
%TO.N,Net-(D3-Pad2)*%
%TA.AperFunction,SMDPad,CuDef*%
G36*
G01*
X113372500Y-98839999D02*
X113372500Y-99740001D01*
G75*
G02*
X113122501Y-99990000I-249999J0D01*
G01*
X112597499Y-99990000D01*
G75*
G02*
X112347500Y-99740001I0J249999D01*
G01*
X112347500Y-98839999D01*
G75*
G02*
X112597499Y-98590000I249999J0D01*
G01*
X113122501Y-98590000D01*
G75*
G02*
X113372500Y-98839999I0J-249999D01*
G01*
G37*
%TD.AperFunction*%
%TO.P,R15,2*%
%TO.N,I2C_ok*%
%TA.AperFunction,SMDPad,CuDef*%
G36*
G01*
X111547500Y-98839999D02*
X111547500Y-99740001D01*
G75*
G02*
X111297501Y-99990000I-249999J0D01*
G01*
X110772499Y-99990000D01*
G75*
G02*
X110522500Y-99740001I0J249999D01*
G01*
X110522500Y-98839999D01*
G75*
G02*
X110772499Y-98590000I249999J0D01*
G01*
X111297501Y-98590000D01*
G75*
G02*
X111547500Y-98839999I0J-249999D01*
G01*
G37*
%TD.AperFunction*%
%TD*%
%TO.P,R16,2*%
%TO.N,Error*%
%TA.AperFunction,SMDPad,CuDef*%
G36*
G01*
X111560000Y-101554999D02*
X111560000Y-102455001D01*
G75*
G02*
X111310001Y-102705000I-249999J0D01*
G01*
X110784999Y-102705000D01*
G75*
G02*
X110535000Y-102455001I0J249999D01*
G01*
X110535000Y-101554999D01*
G75*
G02*
X110784999Y-101305000I249999J0D01*
G01*
X111310001Y-101305000D01*
G75*
G02*
X111560000Y-101554999I0J-249999D01*
G01*
G37*
%TD.AperFunction*%
%TO.P,R16,1*%
%TO.N,Net-(D4-Pad2)*%
%TA.AperFunction,SMDPad,CuDef*%
G36*
G01*
X113385000Y-101554999D02*
X113385000Y-102455001D01*
G75*
G02*
X113135001Y-102705000I-249999J0D01*
G01*
X112609999Y-102705000D01*
G75*
G02*
X112360000Y-102455001I0J249999D01*
G01*
X112360000Y-101554999D01*
G75*
G02*
X112609999Y-101305000I249999J0D01*
G01*
X113135001Y-101305000D01*
G75*
G02*
X113385000Y-101554999I0J-249999D01*
G01*
G37*
%TD.AperFunction*%
%TD*%
D14*
%TO.P,Reset,1*%
%TO.N,GND*%
X127360000Y-100035000D03*
%TO.P,Reset,2*%
%TO.N,NRST*%
X130760000Y-100035000D03*
%TD*%
%TO.P,Flash,2*%
%TO.N,Net-(Flash1-Pad2)*%
X118435000Y-88510000D03*
%TO.P,Flash,1*%
%TO.N,GND*%
X115035000Y-88510000D03*
%TD*%
%TO.P,U1,1*%
%TO.N,Net-(U1-Pad1)*%
%TA.AperFunction,SMDPad,CuDef*%
G36*
G01*
X136160000Y-88610000D02*
X136160000Y-88460000D01*
G75*
G02*
X136235000Y-88385000I75000J0D01*
G01*
X137560000Y-88385000D01*
G75*
G02*
X137635000Y-88460000I0J-75000D01*
G01*
X137635000Y-88610000D01*
G75*
G02*
X137560000Y-88685000I-75000J0D01*
G01*
X136235000Y-88685000D01*
G75*
G02*
X136160000Y-88610000I0J75000D01*
G01*
G37*
%TD.AperFunction*%
%TO.P,U1,2*%
%TO.N,Net-(U1-Pad2)*%
%TA.AperFunction,SMDPad,CuDef*%
G36*
G01*
X136160000Y-89110000D02*
X136160000Y-88960000D01*
G75*
G02*
X136235000Y-88885000I75000J0D01*
G01*
X137560000Y-88885000D01*
G75*
G02*
X137635000Y-88960000I0J-75000D01*
G01*
X137635000Y-89110000D01*
G75*
G02*
X137560000Y-89185000I-75000J0D01*
G01*
X136235000Y-89185000D01*
G75*
G02*
X136160000Y-89110000I0J75000D01*
G01*
G37*
%TD.AperFunction*%
%TO.P,U1,3*%
%TO.N,Net-(U1-Pad3)*%
%TA.AperFunction,SMDPad,CuDef*%
G36*
G01*
X136160000Y-89610000D02*
X136160000Y-89460000D01*
G75*
G02*
X136235000Y-89385000I75000J0D01*
G01*
X137560000Y-89385000D01*
G75*
G02*
X137635000Y-89460000I0J-75000D01*
G01*
X137635000Y-89610000D01*
G75*
G02*
X137560000Y-89685000I-75000J0D01*
G01*
X136235000Y-89685000D01*
G75*
G02*
X136160000Y-89610000I0J75000D01*
G01*
G37*
%TD.AperFunction*%
%TO.P,U1,4*%
%TO.N,Net-(U1-Pad4)*%
%TA.AperFunction,SMDPad,CuDef*%
G36*
G01*
X136160000Y-90110000D02*
X136160000Y-89960000D01*
G75*
G02*
X136235000Y-89885000I75000J0D01*
G01*
X137560000Y-89885000D01*
G75*
G02*
X137635000Y-89960000I0J-75000D01*
G01*
X137635000Y-90110000D01*
G75*
G02*
X137560000Y-90185000I-75000J0D01*
G01*
X136235000Y-90185000D01*
G75*
G02*
X136160000Y-90110000I0J75000D01*
G01*
G37*
%TD.AperFunction*%
%TO.P,U1,5*%
%TO.N,PD0*%
%TA.AperFunction,SMDPad,CuDef*%
G36*
G01*
X136160000Y-90610000D02*
X136160000Y-90460000D01*
G75*
G02*
X136235000Y-90385000I75000J0D01*
G01*
X137560000Y-90385000D01*
G75*
G02*
X137635000Y-90460000I0J-75000D01*
G01*
X137635000Y-90610000D01*
G75*
G02*
X137560000Y-90685000I-75000J0D01*
G01*
X136235000Y-90685000D01*
G75*
G02*
X136160000Y-90610000I0J75000D01*
G01*
G37*
%TD.AperFunction*%
%TO.P,U1,6*%
%TO.N,PD1*%
%TA.AperFunction,SMDPad,CuDef*%
G36*
G01*
X136160000Y-91110000D02*
X136160000Y-90960000D01*
G75*
G02*
X136235000Y-90885000I75000J0D01*
G01*
X137560000Y-90885000D01*
G75*
G02*
X137635000Y-90960000I0J-75000D01*
G01*
X137635000Y-91110000D01*
G75*
G02*
X137560000Y-91185000I-75000J0D01*
G01*
X136235000Y-91185000D01*
G75*
G02*
X136160000Y-91110000I0J75000D01*
G01*
G37*
%TD.AperFunction*%
%TO.P,U1,7*%
%TO.N,NRST*%
%TA.AperFunction,SMDPad,CuDef*%
G36*
G01*
X136160000Y-91610000D02*
X136160000Y-91460000D01*
G75*
G02*
X136235000Y-91385000I75000J0D01*
G01*
X137560000Y-91385000D01*
G75*
G02*
X137635000Y-91460000I0J-75000D01*
G01*
X137635000Y-91610000D01*
G75*
G02*
X137560000Y-91685000I-75000J0D01*
G01*
X136235000Y-91685000D01*
G75*
G02*
X136160000Y-91610000I0J75000D01*
G01*
G37*
%TD.AperFunction*%
%TO.P,U1,8*%
%TO.N,GND*%
%TA.AperFunction,SMDPad,CuDef*%
G36*
G01*
X136160000Y-92110000D02*
X136160000Y-91960000D01*
G75*
G02*
X136235000Y-91885000I75000J0D01*
G01*
X137560000Y-91885000D01*
G75*
G02*
X137635000Y-91960000I0J-75000D01*
G01*
X137635000Y-92110000D01*
G75*
G02*
X137560000Y-92185000I-75000J0D01*
G01*
X136235000Y-92185000D01*
G75*
G02*
X136160000Y-92110000I0J75000D01*
G01*
G37*
%TD.AperFunction*%
%TO.P,U1,9*%
%TO.N,3.3v*%
%TA.AperFunction,SMDPad,CuDef*%
G36*
G01*
X136160000Y-92610000D02*
X136160000Y-92460000D01*
G75*
G02*
X136235000Y-92385000I75000J0D01*
G01*
X137560000Y-92385000D01*
G75*
G02*
X137635000Y-92460000I0J-75000D01*
G01*
X137635000Y-92610000D01*
G75*
G02*
X137560000Y-92685000I-75000J0D01*
G01*
X136235000Y-92685000D01*
G75*
G02*
X136160000Y-92610000I0J75000D01*
G01*
G37*
%TD.AperFunction*%
%TO.P,U1,10*%
%TO.N,Net-(U1-Pad10)*%
%TA.AperFunction,SMDPad,CuDef*%
G36*
G01*
X136160000Y-93110000D02*
X136160000Y-92960000D01*
G75*
G02*
X136235000Y-92885000I75000J0D01*
G01*
X137560000Y-92885000D01*
G75*
G02*
X137635000Y-92960000I0J-75000D01*
G01*
X137635000Y-93110000D01*
G75*
G02*
X137560000Y-93185000I-75000J0D01*
G01*
X136235000Y-93185000D01*
G75*
G02*
X136160000Y-93110000I0J75000D01*
G01*
G37*
%TD.AperFunction*%
%TO.P,U1,11*%
%TO.N,Net-(U1-Pad11)*%
%TA.AperFunction,SMDPad,CuDef*%
G36*
G01*
X136160000Y-93610000D02*
X136160000Y-93460000D01*
G75*
G02*
X136235000Y-93385000I75000J0D01*
G01*
X137560000Y-93385000D01*
G75*
G02*
X137635000Y-93460000I0J-75000D01*
G01*
X137635000Y-93610000D01*
G75*
G02*
X137560000Y-93685000I-75000J0D01*
G01*
X136235000Y-93685000D01*
G75*
G02*
X136160000Y-93610000I0J75000D01*
G01*
G37*
%TD.AperFunction*%
%TO.P,U1,12*%
%TO.N,USART2_Tx*%
%TA.AperFunction,SMDPad,CuDef*%
G36*
G01*
X136160000Y-94110000D02*
X136160000Y-93960000D01*
G75*
G02*
X136235000Y-93885000I75000J0D01*
G01*
X137560000Y-93885000D01*
G75*
G02*
X137635000Y-93960000I0J-75000D01*
G01*
X137635000Y-94110000D01*
G75*
G02*
X137560000Y-94185000I-75000J0D01*
G01*
X136235000Y-94185000D01*
G75*
G02*
X136160000Y-94110000I0J75000D01*
G01*
G37*
%TD.AperFunction*%
%TO.P,U1,13*%
%TO.N,USART2_Rx*%
%TA.AperFunction,SMDPad,CuDef*%
G36*
G01*
X138160000Y-96110000D02*
X138160000Y-94785000D01*
G75*
G02*
X138235000Y-94710000I75000J0D01*
G01*
X138385000Y-94710000D01*
G75*
G02*
X138460000Y-94785000I0J-75000D01*
G01*
X138460000Y-96110000D01*
G75*
G02*
X138385000Y-96185000I-75000J0D01*
G01*
X138235000Y-96185000D01*
G75*
G02*
X138160000Y-96110000I0J75000D01*
G01*
G37*
%TD.AperFunction*%
%TO.P,U1,14*%
%TO.N,WiFi_ok*%
%TA.AperFunction,SMDPad,CuDef*%
G36*
G01*
X138660000Y-96110000D02*
X138660000Y-94785000D01*
G75*
G02*
X138735000Y-94710000I75000J0D01*
G01*
X138885000Y-94710000D01*
G75*
G02*
X138960000Y-94785000I0J-75000D01*
G01*
X138960000Y-96110000D01*
G75*
G02*
X138885000Y-96185000I-75000J0D01*
G01*
X138735000Y-96185000D01*
G75*
G02*
X138660000Y-96110000I0J75000D01*
G01*
G37*
%TD.AperFunction*%
%TO.P,U1,15*%
%TO.N,USART1_ok*%
%TA.AperFunction,SMDPad,CuDef*%
G36*
G01*
X139160000Y-96110000D02*
X139160000Y-94785000D01*
G75*
G02*
X139235000Y-94710000I75000J0D01*
G01*
X139385000Y-94710000D01*
G75*
G02*
X139460000Y-94785000I0J-75000D01*
G01*
X139460000Y-96110000D01*
G75*
G02*
X139385000Y-96185000I-75000J0D01*
G01*
X139235000Y-96185000D01*
G75*
G02*
X139160000Y-96110000I0J75000D01*
G01*
G37*
%TD.AperFunction*%
%TO.P,U1,16*%
%TO.N,I2C_ok*%
%TA.AperFunction,SMDPad,CuDef*%
G36*
G01*
X139660000Y-96110000D02*
X139660000Y-94785000D01*
G75*
G02*
X139735000Y-94710000I75000J0D01*
G01*
X139885000Y-94710000D01*
G75*
G02*
X139960000Y-94785000I0J-75000D01*
G01*
X139960000Y-96110000D01*
G75*
G02*
X139885000Y-96185000I-75000J0D01*
G01*
X139735000Y-96185000D01*
G75*
G02*
X139660000Y-96110000I0J75000D01*
G01*
G37*
%TD.AperFunction*%
%TO.P,U1,17*%
%TO.N,Error*%
%TA.AperFunction,SMDPad,CuDef*%
G36*
G01*
X140160000Y-96110000D02*
X140160000Y-94785000D01*
G75*
G02*
X140235000Y-94710000I75000J0D01*
G01*
X140385000Y-94710000D01*
G75*
G02*
X140460000Y-94785000I0J-75000D01*
G01*
X140460000Y-96110000D01*
G75*
G02*
X140385000Y-96185000I-75000J0D01*
G01*
X140235000Y-96185000D01*
G75*
G02*
X140160000Y-96110000I0J75000D01*
G01*
G37*
%TD.AperFunction*%
%TO.P,U1,18*%
%TO.N,Net-(U1-Pad18)*%
%TA.AperFunction,SMDPad,CuDef*%
G36*
G01*
X140660000Y-96110000D02*
X140660000Y-94785000D01*
G75*
G02*
X140735000Y-94710000I75000J0D01*
G01*
X140885000Y-94710000D01*
G75*
G02*
X140960000Y-94785000I0J-75000D01*
G01*
X140960000Y-96110000D01*
G75*
G02*
X140885000Y-96185000I-75000J0D01*
G01*
X140735000Y-96185000D01*
G75*
G02*
X140660000Y-96110000I0J75000D01*
G01*
G37*
%TD.AperFunction*%
%TO.P,U1,19*%
%TO.N,Net-(U1-Pad19)*%
%TA.AperFunction,SMDPad,CuDef*%
G36*
G01*
X141160000Y-96110000D02*
X141160000Y-94785000D01*
G75*
G02*
X141235000Y-94710000I75000J0D01*
G01*
X141385000Y-94710000D01*
G75*
G02*
X141460000Y-94785000I0J-75000D01*
G01*
X141460000Y-96110000D01*
G75*
G02*
X141385000Y-96185000I-75000J0D01*
G01*
X141235000Y-96185000D01*
G75*
G02*
X141160000Y-96110000I0J75000D01*
G01*
G37*
%TD.AperFunction*%
%TO.P,U1,20*%
%TO.N,BOOT1*%
%TA.AperFunction,SMDPad,CuDef*%
G36*
G01*
X141660000Y-96110000D02*
X141660000Y-94785000D01*
G75*
G02*
X141735000Y-94710000I75000J0D01*
G01*
X141885000Y-94710000D01*
G75*
G02*
X141960000Y-94785000I0J-75000D01*
G01*
X141960000Y-96110000D01*
G75*
G02*
X141885000Y-96185000I-75000J0D01*
G01*
X141735000Y-96185000D01*
G75*
G02*
X141660000Y-96110000I0J75000D01*
G01*
G37*
%TD.AperFunction*%
%TO.P,U1,21*%
%TO.N,Net-(U1-Pad21)*%
%TA.AperFunction,SMDPad,CuDef*%
G36*
G01*
X142160000Y-96110000D02*
X142160000Y-94785000D01*
G75*
G02*
X142235000Y-94710000I75000J0D01*
G01*
X142385000Y-94710000D01*
G75*
G02*
X142460000Y-94785000I0J-75000D01*
G01*
X142460000Y-96110000D01*
G75*
G02*
X142385000Y-96185000I-75000J0D01*
G01*
X142235000Y-96185000D01*
G75*
G02*
X142160000Y-96110000I0J75000D01*
G01*
G37*
%TD.AperFunction*%
%TO.P,U1,22*%
%TO.N,Net-(U1-Pad22)*%
%TA.AperFunction,SMDPad,CuDef*%
G36*
G01*
X142660000Y-96110000D02*
X142660000Y-94785000D01*
G75*
G02*
X142735000Y-94710000I75000J0D01*
G01*
X142885000Y-94710000D01*
G75*
G02*
X142960000Y-94785000I0J-75000D01*
G01*
X142960000Y-96110000D01*
G75*
G02*
X142885000Y-96185000I-75000J0D01*
G01*
X142735000Y-96185000D01*
G75*
G02*
X142660000Y-96110000I0J75000D01*
G01*
G37*
%TD.AperFunction*%
%TO.P,U1,23*%
%TO.N,GND*%
%TA.AperFunction,SMDPad,CuDef*%
G36*
G01*
X143160000Y-96110000D02*
X143160000Y-94785000D01*
G75*
G02*
X143235000Y-94710000I75000J0D01*
G01*
X143385000Y-94710000D01*
G75*
G02*
X143460000Y-94785000I0J-75000D01*
G01*
X143460000Y-96110000D01*
G75*
G02*
X143385000Y-96185000I-75000J0D01*
G01*
X143235000Y-96185000D01*
G75*
G02*
X143160000Y-96110000I0J75000D01*
G01*
G37*
%TD.AperFunction*%
%TO.P,U1,24*%
%TO.N,3.3v*%
%TA.AperFunction,SMDPad,CuDef*%
G36*
G01*
X143660000Y-96110000D02*
X143660000Y-94785000D01*
G75*
G02*
X143735000Y-94710000I75000J0D01*
G01*
X143885000Y-94710000D01*
G75*
G02*
X143960000Y-94785000I0J-75000D01*
G01*
X143960000Y-96110000D01*
G75*
G02*
X143885000Y-96185000I-75000J0D01*
G01*
X143735000Y-96185000D01*
G75*
G02*
X143660000Y-96110000I0J75000D01*
G01*
G37*
%TD.AperFunction*%
%TO.P,U1,25*%
%TO.N,Net-(U1-Pad25)*%
%TA.AperFunction,SMDPad,CuDef*%
G36*
G01*
X144485000Y-94110000D02*
X144485000Y-93960000D01*
G75*
G02*
X144560000Y-93885000I75000J0D01*
G01*
X145885000Y-93885000D01*
G75*
G02*
X145960000Y-93960000I0J-75000D01*
G01*
X145960000Y-94110000D01*
G75*
G02*
X145885000Y-94185000I-75000J0D01*
G01*
X144560000Y-94185000D01*
G75*
G02*
X144485000Y-94110000I0J75000D01*
G01*
G37*
%TD.AperFunction*%
%TO.P,U1,26*%
%TO.N,Net-(U1-Pad26)*%
%TA.AperFunction,SMDPad,CuDef*%
G36*
G01*
X144485000Y-93610000D02*
X144485000Y-93460000D01*
G75*
G02*
X144560000Y-93385000I75000J0D01*
G01*
X145885000Y-93385000D01*
G75*
G02*
X145960000Y-93460000I0J-75000D01*
G01*
X145960000Y-93610000D01*
G75*
G02*
X145885000Y-93685000I-75000J0D01*
G01*
X144560000Y-93685000D01*
G75*
G02*
X144485000Y-93610000I0J75000D01*
G01*
G37*
%TD.AperFunction*%
%TO.P,U1,27*%
%TO.N,Net-(U1-Pad27)*%
%TA.AperFunction,SMDPad,CuDef*%
G36*
G01*
X144485000Y-93110000D02*
X144485000Y-92960000D01*
G75*
G02*
X144560000Y-92885000I75000J0D01*
G01*
X145885000Y-92885000D01*
G75*
G02*
X145960000Y-92960000I0J-75000D01*
G01*
X145960000Y-93110000D01*
G75*
G02*
X145885000Y-93185000I-75000J0D01*
G01*
X144560000Y-93185000D01*
G75*
G02*
X144485000Y-93110000I0J75000D01*
G01*
G37*
%TD.AperFunction*%
%TO.P,U1,28*%
%TO.N,Net-(U1-Pad28)*%
%TA.AperFunction,SMDPad,CuDef*%
G36*
G01*
X144485000Y-92610000D02*
X144485000Y-92460000D01*
G75*
G02*
X144560000Y-92385000I75000J0D01*
G01*
X145885000Y-92385000D01*
G75*
G02*
X145960000Y-92460000I0J-75000D01*
G01*
X145960000Y-92610000D01*
G75*
G02*
X145885000Y-92685000I-75000J0D01*
G01*
X144560000Y-92685000D01*
G75*
G02*
X144485000Y-92610000I0J75000D01*
G01*
G37*
%TD.AperFunction*%
%TO.P,U1,29*%
%TO.N,ESP8266_Reset*%
%TA.AperFunction,SMDPad,CuDef*%
G36*
G01*
X144485000Y-92110000D02*
X144485000Y-91960000D01*
G75*
G02*
X144560000Y-91885000I75000J0D01*
G01*
X145885000Y-91885000D01*
G75*
G02*
X145960000Y-91960000I0J-75000D01*
G01*
X145960000Y-92110000D01*
G75*
G02*
X145885000Y-92185000I-75000J0D01*
G01*
X144560000Y-92185000D01*
G75*
G02*
X144485000Y-92110000I0J75000D01*
G01*
G37*
%TD.AperFunction*%
%TO.P,U1,30*%
%TO.N,USART1_Tx*%
%TA.AperFunction,SMDPad,CuDef*%
G36*
G01*
X144485000Y-91610000D02*
X144485000Y-91460000D01*
G75*
G02*
X144560000Y-91385000I75000J0D01*
G01*
X145885000Y-91385000D01*
G75*
G02*
X145960000Y-91460000I0J-75000D01*
G01*
X145960000Y-91610000D01*
G75*
G02*
X145885000Y-91685000I-75000J0D01*
G01*
X144560000Y-91685000D01*
G75*
G02*
X144485000Y-91610000I0J75000D01*
G01*
G37*
%TD.AperFunction*%
%TO.P,U1,31*%
%TO.N,USART1_Rx*%
%TA.AperFunction,SMDPad,CuDef*%
G36*
G01*
X144485000Y-91110000D02*
X144485000Y-90960000D01*
G75*
G02*
X144560000Y-90885000I75000J0D01*
G01*
X145885000Y-90885000D01*
G75*
G02*
X145960000Y-90960000I0J-75000D01*
G01*
X145960000Y-91110000D01*
G75*
G02*
X145885000Y-91185000I-75000J0D01*
G01*
X144560000Y-91185000D01*
G75*
G02*
X144485000Y-91110000I0J75000D01*
G01*
G37*
%TD.AperFunction*%
%TO.P,U1,32*%
%TO.N,Net-(U1-Pad32)*%
%TA.AperFunction,SMDPad,CuDef*%
G36*
G01*
X144485000Y-90610000D02*
X144485000Y-90460000D01*
G75*
G02*
X144560000Y-90385000I75000J0D01*
G01*
X145885000Y-90385000D01*
G75*
G02*
X145960000Y-90460000I0J-75000D01*
G01*
X145960000Y-90610000D01*
G75*
G02*
X145885000Y-90685000I-75000J0D01*
G01*
X144560000Y-90685000D01*
G75*
G02*
X144485000Y-90610000I0J75000D01*
G01*
G37*
%TD.AperFunction*%
%TO.P,U1,33*%
%TO.N,Net-(U1-Pad33)*%
%TA.AperFunction,SMDPad,CuDef*%
G36*
G01*
X144485000Y-90110000D02*
X144485000Y-89960000D01*
G75*
G02*
X144560000Y-89885000I75000J0D01*
G01*
X145885000Y-89885000D01*
G75*
G02*
X145960000Y-89960000I0J-75000D01*
G01*
X145960000Y-90110000D01*
G75*
G02*
X145885000Y-90185000I-75000J0D01*
G01*
X144560000Y-90185000D01*
G75*
G02*
X144485000Y-90110000I0J75000D01*
G01*
G37*
%TD.AperFunction*%
%TO.P,U1,34*%
%TO.N,PA13*%
%TA.AperFunction,SMDPad,CuDef*%
G36*
G01*
X144485000Y-89610000D02*
X144485000Y-89460000D01*
G75*
G02*
X144560000Y-89385000I75000J0D01*
G01*
X145885000Y-89385000D01*
G75*
G02*
X145960000Y-89460000I0J-75000D01*
G01*
X145960000Y-89610000D01*
G75*
G02*
X145885000Y-89685000I-75000J0D01*
G01*
X144560000Y-89685000D01*
G75*
G02*
X144485000Y-89610000I0J75000D01*
G01*
G37*
%TD.AperFunction*%
%TO.P,U1,35*%
%TO.N,GND*%
%TA.AperFunction,SMDPad,CuDef*%
G36*
G01*
X144485000Y-89110000D02*
X144485000Y-88960000D01*
G75*
G02*
X144560000Y-88885000I75000J0D01*
G01*
X145885000Y-88885000D01*
G75*
G02*
X145960000Y-88960000I0J-75000D01*
G01*
X145960000Y-89110000D01*
G75*
G02*
X145885000Y-89185000I-75000J0D01*
G01*
X144560000Y-89185000D01*
G75*
G02*
X144485000Y-89110000I0J75000D01*
G01*
G37*
%TD.AperFunction*%
%TO.P,U1,36*%
%TO.N,3.3v*%
%TA.AperFunction,SMDPad,CuDef*%
G36*
G01*
X144485000Y-88610000D02*
X144485000Y-88460000D01*
G75*
G02*
X144560000Y-88385000I75000J0D01*
G01*
X145885000Y-88385000D01*
G75*
G02*
X145960000Y-88460000I0J-75000D01*
G01*
X145960000Y-88610000D01*
G75*
G02*
X145885000Y-88685000I-75000J0D01*
G01*
X144560000Y-88685000D01*
G75*
G02*
X144485000Y-88610000I0J75000D01*
G01*
G37*
%TD.AperFunction*%
%TO.P,U1,37*%
%TO.N,PA14*%
%TA.AperFunction,SMDPad,CuDef*%
G36*
G01*
X143660000Y-87785000D02*
X143660000Y-86460000D01*
G75*
G02*
X143735000Y-86385000I75000J0D01*
G01*
X143885000Y-86385000D01*
G75*
G02*
X143960000Y-86460000I0J-75000D01*
G01*
X143960000Y-87785000D01*
G75*
G02*
X143885000Y-87860000I-75000J0D01*
G01*
X143735000Y-87860000D01*
G75*
G02*
X143660000Y-87785000I0J75000D01*
G01*
G37*
%TD.AperFunction*%
%TO.P,U1,38*%
%TO.N,Net-(U1-Pad38)*%
%TA.AperFunction,SMDPad,CuDef*%
G36*
G01*
X143160000Y-87785000D02*
X143160000Y-86460000D01*
G75*
G02*
X143235000Y-86385000I75000J0D01*
G01*
X143385000Y-86385000D01*
G75*
G02*
X143460000Y-86460000I0J-75000D01*
G01*
X143460000Y-87785000D01*
G75*
G02*
X143385000Y-87860000I-75000J0D01*
G01*
X143235000Y-87860000D01*
G75*
G02*
X143160000Y-87785000I0J75000D01*
G01*
G37*
%TD.AperFunction*%
%TO.P,U1,39*%
%TO.N,Net-(U1-Pad39)*%
%TA.AperFunction,SMDPad,CuDef*%
G36*
G01*
X142660000Y-87785000D02*
X142660000Y-86460000D01*
G75*
G02*
X142735000Y-86385000I75000J0D01*
G01*
X142885000Y-86385000D01*
G75*
G02*
X142960000Y-86460000I0J-75000D01*
G01*
X142960000Y-87785000D01*
G75*
G02*
X142885000Y-87860000I-75000J0D01*
G01*
X142735000Y-87860000D01*
G75*
G02*
X142660000Y-87785000I0J75000D01*
G01*
G37*
%TD.AperFunction*%
%TO.P,U1,40*%
%TO.N,Net-(U1-Pad40)*%
%TA.AperFunction,SMDPad,CuDef*%
G36*
G01*
X142160000Y-87785000D02*
X142160000Y-86460000D01*
G75*
G02*
X142235000Y-86385000I75000J0D01*
G01*
X142385000Y-86385000D01*
G75*
G02*
X142460000Y-86460000I0J-75000D01*
G01*
X142460000Y-87785000D01*
G75*
G02*
X142385000Y-87860000I-75000J0D01*
G01*
X142235000Y-87860000D01*
G75*
G02*
X142160000Y-87785000I0J75000D01*
G01*
G37*
%TD.AperFunction*%
%TO.P,U1,41*%
%TO.N,Net-(U1-Pad41)*%
%TA.AperFunction,SMDPad,CuDef*%
G36*
G01*
X141660000Y-87785000D02*
X141660000Y-86460000D01*
G75*
G02*
X141735000Y-86385000I75000J0D01*
G01*
X141885000Y-86385000D01*
G75*
G02*
X141960000Y-86460000I0J-75000D01*
G01*
X141960000Y-87785000D01*
G75*
G02*
X141885000Y-87860000I-75000J0D01*
G01*
X141735000Y-87860000D01*
G75*
G02*
X141660000Y-87785000I0J75000D01*
G01*
G37*
%TD.AperFunction*%
%TO.P,U1,42*%
%TO.N,I2C1_SCL*%
%TA.AperFunction,SMDPad,CuDef*%
G36*
G01*
X141160000Y-87785000D02*
X141160000Y-86460000D01*
G75*
G02*
X141235000Y-86385000I75000J0D01*
G01*
X141385000Y-86385000D01*
G75*
G02*
X141460000Y-86460000I0J-75000D01*
G01*
X141460000Y-87785000D01*
G75*
G02*
X141385000Y-87860000I-75000J0D01*
G01*
X141235000Y-87860000D01*
G75*
G02*
X141160000Y-87785000I0J75000D01*
G01*
G37*
%TD.AperFunction*%
%TO.P,U1,43*%
%TO.N,I2C1_SDA*%
%TA.AperFunction,SMDPad,CuDef*%
G36*
G01*
X140660000Y-87785000D02*
X140660000Y-86460000D01*
G75*
G02*
X140735000Y-86385000I75000J0D01*
G01*
X140885000Y-86385000D01*
G75*
G02*
X140960000Y-86460000I0J-75000D01*
G01*
X140960000Y-87785000D01*
G75*
G02*
X140885000Y-87860000I-75000J0D01*
G01*
X140735000Y-87860000D01*
G75*
G02*
X140660000Y-87785000I0J75000D01*
G01*
G37*
%TD.AperFunction*%
%TO.P,U1,44*%
%TO.N,BOOT0*%
%TA.AperFunction,SMDPad,CuDef*%
G36*
G01*
X140160000Y-87785000D02*
X140160000Y-86460000D01*
G75*
G02*
X140235000Y-86385000I75000J0D01*
G01*
X140385000Y-86385000D01*
G75*
G02*
X140460000Y-86460000I0J-75000D01*
G01*
X140460000Y-87785000D01*
G75*
G02*
X140385000Y-87860000I-75000J0D01*
G01*
X140235000Y-87860000D01*
G75*
G02*
X140160000Y-87785000I0J75000D01*
G01*
G37*
%TD.AperFunction*%
%TO.P,U1,45*%
%TO.N,Net-(U1-Pad45)*%
%TA.AperFunction,SMDPad,CuDef*%
G36*
G01*
X139660000Y-87785000D02*
X139660000Y-86460000D01*
G75*
G02*
X139735000Y-86385000I75000J0D01*
G01*
X139885000Y-86385000D01*
G75*
G02*
X139960000Y-86460000I0J-75000D01*
G01*
X139960000Y-87785000D01*
G75*
G02*
X139885000Y-87860000I-75000J0D01*
G01*
X139735000Y-87860000D01*
G75*
G02*
X139660000Y-87785000I0J75000D01*
G01*
G37*
%TD.AperFunction*%
%TO.P,U1,46*%
%TO.N,Net-(U1-Pad46)*%
%TA.AperFunction,SMDPad,CuDef*%
G36*
G01*
X139160000Y-87785000D02*
X139160000Y-86460000D01*
G75*
G02*
X139235000Y-86385000I75000J0D01*
G01*
X139385000Y-86385000D01*
G75*
G02*
X139460000Y-86460000I0J-75000D01*
G01*
X139460000Y-87785000D01*
G75*
G02*
X139385000Y-87860000I-75000J0D01*
G01*
X139235000Y-87860000D01*
G75*
G02*
X139160000Y-87785000I0J75000D01*
G01*
G37*
%TD.AperFunction*%
%TO.P,U1,47*%
%TO.N,GND*%
%TA.AperFunction,SMDPad,CuDef*%
G36*
G01*
X138660000Y-87785000D02*
X138660000Y-86460000D01*
G75*
G02*
X138735000Y-86385000I75000J0D01*
G01*
X138885000Y-86385000D01*
G75*
G02*
X138960000Y-86460000I0J-75000D01*
G01*
X138960000Y-87785000D01*
G75*
G02*
X138885000Y-87860000I-75000J0D01*
G01*
X138735000Y-87860000D01*
G75*
G02*
X138660000Y-87785000I0J75000D01*
G01*
G37*
%TD.AperFunction*%
%TO.P,U1,48*%
%TO.N,3.3v*%
%TA.AperFunction,SMDPad,CuDef*%
G36*
G01*
X138160000Y-87785000D02*
X138160000Y-86460000D01*
G75*
G02*
X138235000Y-86385000I75000J0D01*
G01*
X138385000Y-86385000D01*
G75*
G02*
X138460000Y-86460000I0J-75000D01*
G01*
X138460000Y-87785000D01*
G75*
G02*
X138385000Y-87860000I-75000J0D01*
G01*
X138235000Y-87860000D01*
G75*
G02*
X138160000Y-87785000I0J75000D01*
G01*
G37*
%TD.AperFunction*%
%TD*%
D15*
%TO.P,U2,1*%
%TO.N,Net-(Q1-Pad3)*%
X102560000Y-69485000D03*
%TO.P,U2,2*%
%TO.N,Net-(U2-Pad2)*%
X102560000Y-71485000D03*
%TO.P,U2,3*%
%TO.N,Net-(R9-Pad1)*%
X102560000Y-73485000D03*
%TO.P,U2,4*%
%TO.N,Net-(U2-Pad4)*%
X102560000Y-75485000D03*
%TO.P,U2,5*%
%TO.N,Net-(U2-Pad5)*%
X102560000Y-77485000D03*
%TO.P,U2,6*%
%TO.N,Net-(U2-Pad6)*%
X102560000Y-79485000D03*
%TO.P,U2,7*%
%TO.N,Net-(U2-Pad7)*%
X102560000Y-81485000D03*
%TO.P,U2,8*%
%TO.N,3.3v*%
X102560000Y-83485000D03*
D16*
%TO.P,U2,9*%
%TO.N,Net-(U2-Pad9)*%
X105160000Y-84985000D03*
%TO.P,U2,10*%
%TO.N,Net-(U2-Pad10)*%
X107160000Y-84985000D03*
%TO.P,U2,11*%
%TO.N,Net-(U2-Pad11)*%
X109160000Y-84985000D03*
%TO.P,U2,12*%
%TO.N,Net-(U2-Pad12)*%
X111160000Y-84985000D03*
%TO.P,U2,13*%
%TO.N,Net-(U2-Pad13)*%
X113160000Y-84985000D03*
%TO.P,U2,14*%
%TO.N,Net-(U2-Pad14)*%
X115160000Y-84985000D03*
D15*
%TO.P,U2,15*%
%TO.N,GND*%
X117760000Y-83485000D03*
%TO.P,U2,16*%
%TO.N,Net-(R12-Pad2)*%
X117760000Y-81485000D03*
%TO.P,U2,17*%
%TO.N,Net-(R11-Pad1)*%
X117760000Y-79485000D03*
%TO.P,U2,18*%
%TO.N,Net-(Flash1-Pad2)*%
X117760000Y-77485000D03*
%TO.P,U2,19*%
%TO.N,Net-(U2-Pad19)*%
X117760000Y-75485000D03*
%TO.P,U2,20*%
%TO.N,Net-(U2-Pad20)*%
X117760000Y-73485000D03*
%TO.P,U2,21*%
%TO.N,ESP_UART_Rx*%
X117760000Y-71485000D03*
%TO.P,U2,22*%
%TO.N,ESP_UART_Tx*%
X117760000Y-69485000D03*
%TD*%
D17*
%TO.P,HDC1080,7*%
%TO.N,Net-(HDC1080-Pad7)*%
X104470000Y-116010000D03*
D18*
%TO.P,HDC1080,1*%
%TO.N,I2C1_SDA*%
X103070000Y-115060000D03*
%TO.P,HDC1080,2*%
%TO.N,GND*%
X103070000Y-116010000D03*
%TO.P,HDC1080,3*%
%TO.N,Net-(HDC1080-Pad3)*%
X103070000Y-116960000D03*
%TO.P,HDC1080,4*%
%TO.N,Net-(HDC1080-Pad4)*%
X105870000Y-116960000D03*
%TO.P,HDC1080,5*%
%TO.N,3.3v*%
X105870000Y-116010000D03*
%TO.P,HDC1080,6*%
%TO.N,I2C1_SCL*%
X105870000Y-115060000D03*
%TD*%
D19*
%TO.P,U4,VIN*%
%TO.N,5v*%
X121710000Y-75460000D03*
%TO.P,U4,GND*%
%TO.N,GND*%
X121710000Y-72920000D03*
%TO.P,U4,X@1*%
%TO.N,N/C*%
X121710000Y-70380000D03*
%TO.P,U4,X@2*%
X121710000Y-67840000D03*
%TO.P,U4,X@3*%
X151250000Y-75460000D03*
%TO.P,U4,RX*%
%TO.N,USART1_Tx*%
X151250000Y-72920000D03*
%TO.P,U4,TX*%
%TO.N,USART1_Rx*%
X151250000Y-70380000D03*
%TO.P,U4,X@4*%
%TO.N,N/C*%
X151250000Y-67840000D03*
%TO.P,U4,XQ5*%
X151250000Y-65300000D03*
%TD*%
D20*
%TO.P,3.3v,2*%
%TO.N,3.3v*%
X130710000Y-107785000D03*
D21*
X137010000Y-107785000D03*
%TO.P,3.3v,3*%
%TO.N,5v*%
X137010000Y-105485000D03*
%TO.P,3.3v,1*%
%TO.N,GND*%
X137010000Y-110085000D03*
%TD*%
D22*
%TO.P,8MHz,1*%
%TO.N,PD0*%
X129360000Y-87085000D03*
%TO.P,8MHz,2*%
%TO.N,PD1*%
X129360000Y-91965000D03*
%TD*%
D23*
%TO.N,5v*%
X122380000Y-77410000D03*
X137872500Y-103397500D03*
%TO.N,GND*%
X133835000Y-84735000D03*
X134235000Y-93060000D03*
X126460000Y-96860000D03*
X132660000Y-100010000D03*
X146935000Y-88135000D03*
X147335000Y-82135000D03*
X120460000Y-83485000D03*
X148810000Y-102535000D03*
X137010000Y-112135000D03*
X101670000Y-116030000D03*
X101510000Y-105760000D03*
X108860000Y-87685000D03*
X130085000Y-82310000D03*
X129885000Y-76685000D03*
X101935000Y-102585000D03*
X150085000Y-82460000D03*
%TO.N,3.3v*%
X146985000Y-86610000D03*
X102560000Y-87385000D03*
X129860000Y-103660000D03*
X135885000Y-97660000D03*
X138035000Y-78185000D03*
X135210000Y-78160000D03*
X115635000Y-103885000D03*
X111122500Y-107697500D03*
D24*
X101835000Y-97035000D03*
D23*
%TO.N,PD0*%
X134785000Y-89760000D03*
%TO.N,PD1*%
X133010000Y-91060000D03*
%TO.N,PA13*%
X148510000Y-89610000D03*
%TO.N,PA14*%
X144916250Y-86185000D03*
X133585000Y-86860000D03*
%TO.N,USART2_Rx*%
X123077500Y-101642500D03*
%TO.N,ESP_UART_Tx*%
X124450000Y-91420000D03*
%TO.N,ESP_UART_Rx*%
X123500000Y-93920000D03*
%TO.N,USART2_Tx*%
X125634999Y-101235001D03*
%TO.N,Net-(Q1-Pad3)*%
X100360000Y-69485000D03*
%TO.N,BOOT1*%
X141810000Y-97060000D03*
%TO.N,I2C1_SCL*%
X141810000Y-85360000D03*
X109122500Y-109522500D03*
%TO.N,I2C1_SDA*%
X141135000Y-84335000D03*
X102740000Y-111820000D03*
%TO.N,Net-(R9-Pad1)*%
X100385000Y-73485000D03*
%TO.N,Net-(R11-Pad1)*%
X120535000Y-79485000D03*
%TO.N,Net-(R12-Pad2)*%
X120460000Y-81485000D03*
%TO.N,WiFi_ok*%
X138310000Y-98635000D03*
X115660000Y-110685000D03*
%TO.N,USART1_ok*%
X137485000Y-99710000D03*
X118635000Y-111410000D03*
%TO.N,I2C_ok*%
X140335000Y-98135000D03*
X119735000Y-110485000D03*
%TO.N,Error*%
X141885000Y-98835000D03*
X121010000Y-109435000D03*
%TO.N,USART1_Tx*%
X149835000Y-81110000D03*
%TO.N,USART1_Rx*%
X146985000Y-90685000D03*
%TO.N,ESP8266_Reset*%
X145860000Y-81510000D03*
%TO.N,Net-(Flash1-Pad2)*%
X120560000Y-77485000D03*
%TD*%
D25*
%TO.N,5v*%
X137010000Y-105485000D02*
X137010000Y-104260000D01*
D26*
X137810000Y-103260000D02*
X137910000Y-103360000D01*
D25*
X137010000Y-104260000D02*
X137872500Y-103397500D01*
D26*
X137872500Y-103397500D02*
X137910000Y-103360000D01*
X137985000Y-103285000D02*
X137872500Y-103397500D01*
D25*
X141860000Y-103285000D02*
X137985000Y-103285000D01*
D26*
X135522500Y-103397500D02*
X137872500Y-103397500D01*
X134934999Y-102809999D02*
X135522500Y-103397500D01*
X119184999Y-102809999D02*
X134934999Y-102809999D01*
X118160000Y-91960000D02*
X118160000Y-101785000D01*
X122460000Y-87660000D02*
X118160000Y-91960000D01*
X118160000Y-101785000D02*
X119184999Y-102809999D01*
X122460000Y-77135000D02*
X122460000Y-87660000D01*
%TO.N,GND*%
X135810000Y-84735000D02*
X133835000Y-84735000D01*
X133835000Y-84735000D02*
X133835000Y-84735000D01*
X136897500Y-92035000D02*
X134860000Y-92035000D01*
X134860000Y-92035000D02*
X134235000Y-92660000D01*
X134235000Y-92660000D02*
X134235000Y-93060000D01*
X134235000Y-93060000D02*
X134235000Y-93060000D01*
X126460000Y-96860000D02*
X126460000Y-96860000D01*
X132735000Y-98285000D02*
X132735000Y-99935000D01*
X128410000Y-96860000D02*
X128510000Y-96960000D01*
X126460000Y-96860000D02*
X128410000Y-96860000D01*
X127360000Y-98110000D02*
X128510000Y-96960000D01*
X127360000Y-100035000D02*
X127360000Y-98110000D01*
X138810000Y-87122500D02*
X138810000Y-85585000D01*
X137960000Y-84735000D02*
X137960000Y-84610000D01*
X138810000Y-85585000D02*
X137960000Y-84735000D01*
X136010000Y-84610000D02*
X135810000Y-84410000D01*
X137960000Y-84610000D02*
X136010000Y-84610000D01*
X145222500Y-89035000D02*
X146485000Y-89035000D01*
X146485000Y-89035000D02*
X146935000Y-88585000D01*
X146935000Y-88585000D02*
X146935000Y-88135000D01*
X146935000Y-88135000D02*
X146935000Y-88135000D01*
X148735000Y-83260000D02*
X148735000Y-84585000D01*
X148535000Y-83060000D02*
X148735000Y-83260000D01*
X117785000Y-83460000D02*
X117760000Y-83485000D01*
X115035000Y-88510000D02*
X115160000Y-88510000D01*
X117760000Y-85910000D02*
X117760000Y-83485000D01*
X115160000Y-88510000D02*
X117760000Y-85910000D01*
X117760000Y-83485000D02*
X120460000Y-83485000D01*
X120460000Y-83485000D02*
X120460000Y-83485000D01*
D25*
X148810000Y-102535000D02*
X148810000Y-102535000D01*
X137010000Y-110085000D02*
X137010000Y-112135000D01*
X137010000Y-112135000D02*
X137010000Y-112135000D01*
D26*
X103260000Y-107510000D02*
X103260000Y-105135000D01*
X103260000Y-107510000D02*
X101510000Y-105760000D01*
X101510000Y-105760000D02*
X101510000Y-105760000D01*
X114210000Y-87685000D02*
X115035000Y-88510000D01*
X108860000Y-87685000D02*
X114210000Y-87685000D01*
X103260000Y-103910000D02*
X101935000Y-102585000D01*
X103260000Y-105135000D02*
X103260000Y-103910000D01*
X143310000Y-97585000D02*
X143285000Y-97610000D01*
X143310000Y-95447500D02*
X143310000Y-97585000D01*
X129885000Y-82110000D02*
X130085000Y-82310000D01*
X129885000Y-76685000D02*
X129885000Y-82110000D01*
X145097500Y-84610000D02*
X145097500Y-83872500D01*
X145910000Y-83060000D02*
X148535000Y-83060000D01*
X145097500Y-83872500D02*
X145910000Y-83060000D01*
X116610000Y-94860000D02*
X116610000Y-97185000D01*
X116610000Y-97185000D02*
X116610000Y-99435000D01*
X116610000Y-101735000D02*
X116610000Y-99435000D01*
X115035000Y-88510000D02*
X115035000Y-90910000D01*
X116610000Y-92485000D02*
X116610000Y-94860000D01*
X115035000Y-90910000D02*
X116610000Y-92485000D01*
X101935000Y-102585000D02*
X101935000Y-102585000D01*
X150085000Y-82460000D02*
X149310000Y-82460000D01*
X148985000Y-82135000D02*
X147335000Y-82135000D01*
X149310000Y-82460000D02*
X148985000Y-82135000D01*
X148735000Y-83810000D02*
X150085000Y-82460000D01*
X148735000Y-84585000D02*
X148735000Y-83810000D01*
D25*
X145110000Y-100560000D02*
X145110000Y-103285000D01*
X143285000Y-98735000D02*
X145110000Y-100560000D01*
X143285000Y-97610000D02*
X143285000Y-98735000D01*
X148060000Y-103285000D02*
X148810000Y-102535000D01*
X145110000Y-103285000D02*
X148060000Y-103285000D01*
X137010000Y-112135000D02*
X127785000Y-112135000D01*
X125885000Y-110235000D02*
X125885000Y-109210000D01*
X127785000Y-112135000D02*
X125885000Y-110235000D01*
D26*
X101690000Y-116010000D02*
X101670000Y-116030000D01*
X103070000Y-116010000D02*
X101690000Y-116010000D01*
%TO.N,3.3v*%
X138310000Y-87122500D02*
X138310000Y-86335000D01*
X138310000Y-86335000D02*
X138060000Y-86085000D01*
X136360000Y-86085000D02*
X135810000Y-86635000D01*
X138060000Y-86085000D02*
X136360000Y-86085000D01*
X136897500Y-92535000D02*
X135785000Y-92535000D01*
X135785000Y-92535000D02*
X135160000Y-93160000D01*
X135160000Y-96010000D02*
X135060000Y-96110000D01*
X135160000Y-93160000D02*
X135160000Y-96010000D01*
X146835000Y-84935000D02*
X148510000Y-86610000D01*
X146835000Y-84585000D02*
X146835000Y-84935000D01*
X145222500Y-88535000D02*
X145222500Y-88372500D01*
X146985000Y-86610000D02*
X148510000Y-86610000D01*
X145222500Y-88372500D02*
X146985000Y-86610000D01*
D25*
X130710000Y-107785000D02*
X130710000Y-106435000D01*
X137010000Y-107785000D02*
X130710000Y-107785000D01*
D26*
X146985000Y-86610000D02*
X146985000Y-86610000D01*
X102560000Y-83485000D02*
X102560000Y-87385000D01*
X102560000Y-87385000D02*
X102560000Y-87385000D01*
X105160000Y-105135000D02*
X105160000Y-107510000D01*
X107322500Y-107510000D02*
X107510000Y-107697500D01*
X105160000Y-107510000D02*
X107322500Y-107510000D01*
X100860000Y-107772500D02*
X101297500Y-107772500D01*
X101297500Y-107772500D02*
X102235000Y-108710000D01*
X103960000Y-108710000D02*
X105160000Y-107510000D01*
X102235000Y-108710000D02*
X103960000Y-108710000D01*
X111172500Y-110072500D02*
X111172500Y-107697500D01*
X110360000Y-110885000D02*
X111172500Y-110072500D01*
X107510000Y-107697500D02*
X111122500Y-107697500D01*
X100860000Y-107772500D02*
X100860000Y-107110000D01*
X100860000Y-107110000D02*
X100659999Y-106909999D01*
X145185000Y-97610000D02*
X145185000Y-96185000D01*
X144447500Y-95447500D02*
X143810000Y-95447500D01*
X145185000Y-96185000D02*
X144447500Y-95447500D01*
X135810000Y-86310000D02*
X134910000Y-86310000D01*
X134185001Y-85585001D02*
X132785001Y-85585001D01*
X134910000Y-86310000D02*
X134185001Y-85585001D01*
X132785001Y-85585001D02*
X132385000Y-85185000D01*
X132385000Y-85185000D02*
X132385000Y-82038998D01*
X135060000Y-97860000D02*
X134585000Y-98335000D01*
X135060000Y-96110000D02*
X135060000Y-97860000D01*
X134585000Y-98335000D02*
X135210000Y-98335000D01*
X135210000Y-98335000D02*
X135885000Y-97660000D01*
X135885000Y-97660000D02*
X135885000Y-97660000D01*
X138085000Y-92535000D02*
X136897500Y-92535000D01*
X138310000Y-92310000D02*
X138085000Y-92535000D01*
X143810000Y-95447500D02*
X143810000Y-92760000D01*
X142135000Y-91085000D02*
X138310000Y-91085000D01*
X143810000Y-92760000D02*
X142135000Y-91085000D01*
X138310000Y-91085000D02*
X138310000Y-92310000D01*
X138310000Y-87122500D02*
X138310000Y-91085000D01*
X132385000Y-82038998D02*
X132385000Y-78835000D01*
X132385000Y-78835000D02*
X133060000Y-78160000D01*
X133060000Y-78160000D02*
X135210000Y-78160000D01*
X141760000Y-82060000D02*
X141760000Y-80185000D01*
X141760000Y-80185000D02*
X139760000Y-78185000D01*
X139760000Y-78185000D02*
X138035000Y-78185000D01*
X138035000Y-78185000D02*
X138035000Y-78185000D01*
X135210000Y-78160000D02*
X135210000Y-78160000D01*
X111122500Y-107697500D02*
X111172500Y-107697500D01*
D25*
X111122500Y-107697500D02*
X109460000Y-106035000D01*
X109460000Y-106035000D02*
X107535000Y-106035000D01*
X107535000Y-106035000D02*
X106910000Y-105410000D01*
X106910000Y-105410000D02*
X106910000Y-99835000D01*
X106910000Y-99835000D02*
X104110000Y-97035000D01*
X104110000Y-97035000D02*
X101835000Y-97035000D01*
X101835000Y-97035000D02*
X101835000Y-97035000D01*
D26*
X100659999Y-98210001D02*
X101835000Y-97035000D01*
X100659999Y-106909999D02*
X100659999Y-98210001D01*
D25*
X125885000Y-105960000D02*
X127935000Y-103910000D01*
X129610000Y-103910000D02*
X129860000Y-103660000D01*
X127935000Y-103910000D02*
X129610000Y-103910000D01*
X130710000Y-104510000D02*
X129860000Y-103660000D01*
X130710000Y-107785000D02*
X130710000Y-104510000D01*
X115635000Y-103885000D02*
X124760000Y-103885000D01*
X125885000Y-105010000D02*
X125885000Y-105960000D01*
X124760000Y-103885000D02*
X125885000Y-105010000D01*
D26*
X105870000Y-116010000D02*
X106630000Y-116010000D01*
X106630000Y-116010000D02*
X107220000Y-115420000D01*
X107220000Y-115420000D02*
X107220000Y-111570000D01*
X107905000Y-110885000D02*
X110360000Y-110885000D01*
X107220000Y-111570000D02*
X107905000Y-110885000D01*
%TO.N,PD0*%
X136897500Y-90535000D02*
X135560000Y-90535000D01*
X135560000Y-90535000D02*
X134785000Y-89760000D01*
X134785000Y-89760000D02*
X134785000Y-89760000D01*
%TO.N,PD1*%
X133035000Y-91035000D02*
X133010000Y-91060000D01*
X136897500Y-91035000D02*
X133035000Y-91035000D01*
%TO.N,PA13*%
X147410000Y-89535000D02*
X148510000Y-88435000D01*
X145222500Y-89535000D02*
X147410000Y-89535000D01*
X148510000Y-88435000D02*
X148510000Y-89610000D01*
X148510000Y-89610000D02*
X148510000Y-89610000D01*
%TO.N,PA14*%
X143810000Y-87122500D02*
X144916250Y-86016250D01*
X144916250Y-86016250D02*
X145085000Y-85847500D01*
X133585000Y-86860000D02*
X133585000Y-86860000D01*
X137435000Y-87635000D02*
X134360000Y-87635000D01*
X134360000Y-87635000D02*
X133585000Y-86860000D01*
X143272500Y-84610000D02*
X143272500Y-84747500D01*
X144710000Y-86185000D02*
X144916250Y-86185000D01*
X143272500Y-84747500D02*
X144710000Y-86185000D01*
X136680000Y-77540000D02*
X136680000Y-82060000D01*
X142435000Y-76935000D02*
X137285000Y-76935000D01*
X143810000Y-78310000D02*
X142435000Y-76935000D01*
X143810000Y-83385000D02*
X143810000Y-78310000D01*
X137285000Y-76935000D02*
X136680000Y-77540000D01*
X143272500Y-83922500D02*
X143810000Y-83385000D01*
X143272500Y-84610000D02*
X143272500Y-83922500D01*
%TO.N,USART2_Rx*%
X138310000Y-97390666D02*
X138310000Y-95447500D01*
X133558167Y-102142499D02*
X138310000Y-97390666D01*
X123577499Y-102142499D02*
X133558167Y-102142499D01*
X123577499Y-102142499D02*
X123077500Y-101642500D01*
%TO.N,ESP_UART_Tx*%
X117760000Y-69485000D02*
X117760000Y-68552880D01*
X118347120Y-68552880D02*
X118970000Y-67930000D01*
X117760000Y-68552880D02*
X118347120Y-68552880D01*
X118970000Y-67930000D02*
X118970000Y-67110000D01*
X118970000Y-67110000D02*
X121100000Y-64980000D01*
X121100000Y-64980000D02*
X122600000Y-64980000D01*
X122600000Y-64980000D02*
X123970000Y-66350000D01*
X123970000Y-66350000D02*
X123970000Y-74410000D01*
X123970000Y-83270000D02*
X124450000Y-83750000D01*
X123970000Y-74410000D02*
X123970000Y-83270000D01*
X124450000Y-83750000D02*
X124450000Y-91420000D01*
X124450000Y-91420000D02*
X124450000Y-91420000D01*
%TO.N,ESP_UART_Rx*%
X123335001Y-96595001D02*
X123460000Y-96720000D01*
X123500000Y-93920000D02*
X123500000Y-93960000D01*
X123330000Y-74640000D02*
X123330000Y-93912880D01*
X123335001Y-74634999D02*
X123330000Y-74640000D01*
X123335001Y-66610001D02*
X123335001Y-74634999D01*
X122335000Y-65610000D02*
X123335001Y-66610001D01*
X121410000Y-65610000D02*
X122335000Y-65610000D01*
X119810000Y-70810000D02*
X119810000Y-67210000D01*
X119135000Y-71485000D02*
X119810000Y-70810000D01*
X119810000Y-67210000D02*
X121410000Y-65610000D01*
X117760000Y-71485000D02*
X119135000Y-71485000D01*
%TO.N,USART2_Tx*%
X136897500Y-95897500D02*
X136897500Y-95897500D01*
X133758545Y-101235001D02*
X125634999Y-101235001D01*
X136897500Y-98096046D02*
X133758545Y-101235001D01*
X136897500Y-94035000D02*
X136897500Y-98096046D01*
X125634999Y-101235001D02*
X125435001Y-101235001D01*
%TO.N,Net-(Q1-Pad3)*%
X102560000Y-69485000D02*
X100510000Y-69485000D01*
%TO.N,BOOT0*%
X140310000Y-85135000D02*
X139785000Y-84610000D01*
X140310000Y-87122500D02*
X140310000Y-85135000D01*
%TO.N,BOOT1*%
X141810000Y-95447500D02*
X141810000Y-97060000D01*
X141810000Y-97060000D02*
X141810000Y-97060000D01*
%TO.N,I2C1_SCL*%
X141310000Y-87122500D02*
X141310000Y-86160000D01*
X141310000Y-86160000D02*
X141310000Y-85885000D01*
X141310000Y-85885000D02*
X141685000Y-85510000D01*
X141685000Y-85510000D02*
X141685000Y-85510000D01*
X107372500Y-109660000D02*
X107510000Y-109522500D01*
X107097500Y-109935000D02*
X107510000Y-109522500D01*
X107510000Y-109522500D02*
X109122500Y-109522500D01*
X109122500Y-109522500D02*
X109122500Y-109522500D01*
X105870000Y-111162500D02*
X107510000Y-109522500D01*
X105870000Y-115060000D02*
X105870000Y-111162500D01*
%TO.N,I2C1_SDA*%
X140810000Y-84660000D02*
X141135000Y-84335000D01*
X140810000Y-87122500D02*
X140810000Y-84660000D01*
X100922500Y-109660000D02*
X100860000Y-109597500D01*
X102447500Y-109597500D02*
X102785000Y-109935000D01*
X100860000Y-109597500D02*
X102447500Y-109597500D01*
X102785000Y-114775000D02*
X103070000Y-115060000D01*
X102785000Y-109935000D02*
X102785000Y-114775000D01*
D25*
%TO.N,Net-(R9-Pad1)*%
X102560000Y-73485000D02*
X100385000Y-73485000D01*
X100385000Y-73485000D02*
X100385000Y-73485000D01*
D26*
%TO.N,Net-(R11-Pad1)*%
X117760000Y-79485000D02*
X120410000Y-79485000D01*
%TO.N,Net-(R12-Pad2)*%
X117835000Y-81560000D02*
X117760000Y-81485000D01*
X117760000Y-81485000D02*
X120460000Y-81485000D01*
X120460000Y-81485000D02*
X120460000Y-81485000D01*
%TO.N,WiFi_ok*%
X138810000Y-95447500D02*
X138810000Y-98110000D01*
X138810000Y-98110000D02*
X138185000Y-98735000D01*
X138185000Y-98735000D02*
X138185000Y-98735000D01*
X115660000Y-110685000D02*
X115660000Y-110685000D01*
X109895000Y-93715000D02*
X111047500Y-93715000D01*
X108559980Y-95050020D02*
X109895000Y-93715000D01*
X108559980Y-103584980D02*
X108559980Y-95050020D01*
X115660000Y-110685000D02*
X108559980Y-103584980D01*
%TO.N,USART1_ok*%
X139310000Y-95447500D02*
X139310000Y-98610000D01*
X139310000Y-98868002D02*
X139310000Y-98610000D01*
X138468002Y-99710000D02*
X139310000Y-98868002D01*
X137485000Y-99710000D02*
X138468002Y-99710000D01*
X118635000Y-111410000D02*
X118635000Y-111410000D01*
X109610000Y-96460000D02*
X111062500Y-96460000D01*
X109059990Y-97010010D02*
X109610000Y-96460000D01*
X109059990Y-102617110D02*
X109059990Y-97010010D01*
X117852880Y-111410000D02*
X109059990Y-102617110D01*
X118635000Y-111410000D02*
X117852880Y-111410000D01*
%TO.N,I2C_ok*%
X139810000Y-95447500D02*
X139810000Y-97435000D01*
X139810000Y-97435000D02*
X140485000Y-98110000D01*
X140485000Y-98110000D02*
X140485000Y-98110000D01*
X111035000Y-99460000D02*
X109935000Y-99460000D01*
X109935000Y-99460000D02*
X109560000Y-99835000D01*
X109560000Y-99835000D02*
X109560000Y-102410000D01*
X109560000Y-102410000D02*
X117635000Y-110485000D01*
X117635000Y-110485000D02*
X119735000Y-110485000D01*
X119735000Y-110485000D02*
X119735000Y-110485000D01*
%TO.N,Error*%
X140310000Y-96818002D02*
X141885000Y-98393002D01*
X140310000Y-95447500D02*
X140310000Y-96818002D01*
X141885000Y-98393002D02*
X141885000Y-98835000D01*
X141885000Y-98835000D02*
X141885000Y-98835000D01*
X111047500Y-101735000D02*
X111047500Y-102672500D01*
X111047500Y-102672500D02*
X117810000Y-109435000D01*
X117810000Y-109435000D02*
X121010000Y-109435000D01*
X121010000Y-109435000D02*
X121010000Y-109435000D01*
%TO.N,USART1_Tx*%
X145222500Y-91535000D02*
X148210000Y-91535000D01*
X148210000Y-91535000D02*
X148210000Y-91485000D01*
X148210000Y-91485000D02*
X150010000Y-89685000D01*
X150010000Y-89685000D02*
X150010000Y-84110000D01*
X150935001Y-83184999D02*
X150935001Y-81660001D01*
X150010000Y-84110000D02*
X150935001Y-83184999D01*
X150385000Y-81110000D02*
X149835000Y-81110000D01*
X150935001Y-81660001D02*
X150385000Y-81110000D01*
%TO.N,USART1_Rx*%
X145222500Y-91035000D02*
X146560000Y-91035000D01*
X146560000Y-91035000D02*
X146635000Y-91035000D01*
X146635000Y-91035000D02*
X146985000Y-90685000D01*
X146985000Y-90685000D02*
X146985000Y-90685000D01*
%TO.N,NRST*%
X133160000Y-96035000D02*
X133235000Y-96110000D01*
X133160000Y-92435000D02*
X133160000Y-96035000D01*
X134060000Y-91535000D02*
X133160000Y-92435000D01*
X136897500Y-91535000D02*
X134060000Y-91535000D01*
X132385000Y-96960000D02*
X133235000Y-96110000D01*
X130410000Y-96960000D02*
X132385000Y-96960000D01*
X130410000Y-99685000D02*
X130760000Y-100035000D01*
X130410000Y-96960000D02*
X130410000Y-99685000D01*
%TO.N,Net-(D1-Pad2)*%
X114720000Y-94125000D02*
X114745000Y-94100000D01*
X112872500Y-93715000D02*
X114710000Y-93715000D01*
%TO.N,Net-(D2-Pad2)*%
X112887500Y-96460000D02*
X114700000Y-96460000D01*
%TO.N,Net-(D3-Pad2)*%
X114710000Y-99460000D02*
X114735000Y-99435000D01*
X112860000Y-99290000D02*
X114710000Y-99290000D01*
%TO.N,Net-(D4-Pad2)*%
X112872500Y-102005000D02*
X114735000Y-102005000D01*
%TO.N,ESP8266_Reset*%
X145222500Y-92035000D02*
X146535000Y-92035000D01*
X146535008Y-92035008D02*
X148417112Y-92035008D01*
X146535000Y-92035000D02*
X146535008Y-92035008D01*
X147085001Y-80284999D02*
X145860000Y-81510000D01*
X148710010Y-91692110D02*
X150585000Y-89817120D01*
X148710010Y-91742110D02*
X148710010Y-91692110D01*
X148417112Y-92035008D02*
X148710010Y-91742110D01*
X151435011Y-83392109D02*
X151435011Y-81260011D01*
X150585000Y-84242120D02*
X151435011Y-83392109D01*
X150585000Y-89817120D02*
X150585000Y-84242120D01*
X147110001Y-80259999D02*
X147085001Y-80284999D01*
X150434999Y-80259999D02*
X147110001Y-80259999D01*
X151435011Y-81260011D02*
X150434999Y-80259999D01*
%TO.N,Net-(Flash1-Pad2)*%
X117760000Y-77485000D02*
X120560000Y-77485000D01*
X118435000Y-88510000D02*
X118535000Y-88510000D01*
X118435000Y-88510000D02*
X118810000Y-88510000D01*
X118810000Y-88510000D02*
X121635000Y-85685000D01*
X121635000Y-78560000D02*
X120560000Y-77485000D01*
X121635000Y-85685000D02*
X121635000Y-78560000D01*
%TD*%
%TO.N,GND*%
X151660000Y-112570000D02*
X119100918Y-112570000D01*
X119227097Y-112517735D01*
X119431828Y-112380938D01*
X119605938Y-112206828D01*
X119742735Y-112002097D01*
X119836963Y-111774611D01*
X119844842Y-111735000D01*
X119858114Y-111735000D01*
X120099611Y-111686963D01*
X120327097Y-111592735D01*
X120531828Y-111455938D01*
X120705938Y-111281828D01*
X120842735Y-111077097D01*
X120936963Y-110849611D01*
X120939869Y-110835000D01*
X135256371Y-110835000D01*
X135270852Y-110982026D01*
X135313738Y-111123401D01*
X135383380Y-111253694D01*
X135477104Y-111367896D01*
X135591306Y-111461620D01*
X135721599Y-111531262D01*
X135862974Y-111574148D01*
X136010000Y-111588629D01*
X136672500Y-111585000D01*
X136860000Y-111397500D01*
X136860000Y-110235000D01*
X137160000Y-110235000D01*
X137160000Y-111397500D01*
X137347500Y-111585000D01*
X138010000Y-111588629D01*
X138157026Y-111574148D01*
X138298401Y-111531262D01*
X138428694Y-111461620D01*
X138542896Y-111367896D01*
X138636620Y-111253694D01*
X138706262Y-111123401D01*
X138749148Y-110982026D01*
X138763629Y-110835000D01*
X138761099Y-110547346D01*
X139335124Y-110547346D01*
X139375567Y-110680686D01*
X139508102Y-110964965D01*
X139693550Y-111217925D01*
X139924785Y-111429846D01*
X140192921Y-111592583D01*
X140487653Y-111699882D01*
X140735000Y-111555459D01*
X140735000Y-110300000D01*
X141035000Y-110300000D01*
X141035000Y-111555459D01*
X141282347Y-111699882D01*
X141577079Y-111592583D01*
X141845215Y-111429846D01*
X142076450Y-111217925D01*
X142261898Y-110964965D01*
X142394433Y-110680686D01*
X142434876Y-110547346D01*
X142289513Y-110300000D01*
X141035000Y-110300000D01*
X140735000Y-110300000D01*
X139480487Y-110300000D01*
X139335124Y-110547346D01*
X138761099Y-110547346D01*
X138760000Y-110422500D01*
X138572500Y-110235000D01*
X137160000Y-110235000D01*
X136860000Y-110235000D01*
X135447500Y-110235000D01*
X135260000Y-110422500D01*
X135256371Y-110835000D01*
X120939869Y-110835000D01*
X120969706Y-110685000D01*
X121133114Y-110685000D01*
X121374611Y-110636963D01*
X121602097Y-110542735D01*
X121806828Y-110405938D01*
X121980938Y-110231828D01*
X122117735Y-110027097D01*
X122145527Y-109960000D01*
X123956371Y-109960000D01*
X123970852Y-110107026D01*
X124013738Y-110248401D01*
X124083380Y-110378694D01*
X124177104Y-110492896D01*
X124291306Y-110586620D01*
X124421599Y-110656262D01*
X124562974Y-110699148D01*
X124710000Y-110713629D01*
X125547500Y-110710000D01*
X125735000Y-110522500D01*
X125735000Y-109360000D01*
X126035000Y-109360000D01*
X126035000Y-110522500D01*
X126222500Y-110710000D01*
X127060000Y-110713629D01*
X127207026Y-110699148D01*
X127348401Y-110656262D01*
X127478694Y-110586620D01*
X127592896Y-110492896D01*
X127686620Y-110378694D01*
X127756262Y-110248401D01*
X127799148Y-110107026D01*
X127813629Y-109960000D01*
X127810000Y-109547500D01*
X127622500Y-109360000D01*
X126035000Y-109360000D01*
X125735000Y-109360000D01*
X124147500Y-109360000D01*
X123960000Y-109547500D01*
X123956371Y-109960000D01*
X122145527Y-109960000D01*
X122211963Y-109799611D01*
X122260000Y-109558114D01*
X122260000Y-109311886D01*
X122211963Y-109070389D01*
X122117735Y-108842903D01*
X121980938Y-108638172D01*
X121806828Y-108464062D01*
X121800749Y-108460000D01*
X123956371Y-108460000D01*
X123960000Y-108872500D01*
X124147500Y-109060000D01*
X125735000Y-109060000D01*
X125735000Y-107897500D01*
X126035000Y-107897500D01*
X126035000Y-109060000D01*
X127622500Y-109060000D01*
X127810000Y-108872500D01*
X127813629Y-108460000D01*
X127799148Y-108312974D01*
X127756262Y-108171599D01*
X127686620Y-108041306D01*
X127592896Y-107927104D01*
X127478694Y-107833380D01*
X127348401Y-107763738D01*
X127207026Y-107720852D01*
X127060000Y-107706371D01*
X126222500Y-107710000D01*
X126035000Y-107897500D01*
X125735000Y-107897500D01*
X125547500Y-107710000D01*
X124710000Y-107706371D01*
X124562974Y-107720852D01*
X124421599Y-107763738D01*
X124291306Y-107833380D01*
X124177104Y-107927104D01*
X124083380Y-108041306D01*
X124013738Y-108171599D01*
X123970852Y-108312974D01*
X123956371Y-108460000D01*
X121800749Y-108460000D01*
X121602097Y-108327265D01*
X121374611Y-108233037D01*
X121133114Y-108185000D01*
X120886886Y-108185000D01*
X120645389Y-108233037D01*
X120417903Y-108327265D01*
X120213172Y-108464062D01*
X120142234Y-108535000D01*
X118182793Y-108535000D01*
X113106420Y-103458628D01*
X113135001Y-103458628D01*
X113330799Y-103439344D01*
X113519072Y-103382231D01*
X113692586Y-103289486D01*
X113814219Y-103189664D01*
X113937136Y-103290539D01*
X114109570Y-103382707D01*
X114296671Y-103439464D01*
X114459898Y-103455540D01*
X114433037Y-103520389D01*
X114385000Y-103761886D01*
X114385000Y-104008114D01*
X114433037Y-104249611D01*
X114527265Y-104477097D01*
X114664062Y-104681828D01*
X114838172Y-104855938D01*
X115042903Y-104992735D01*
X115270389Y-105086963D01*
X115511886Y-105135000D01*
X115758114Y-105135000D01*
X115999611Y-105086963D01*
X116125060Y-105035000D01*
X124054645Y-105035000D01*
X124032769Y-105075928D01*
X123975656Y-105264202D01*
X123956372Y-105460000D01*
X123956372Y-106460000D01*
X123975656Y-106655798D01*
X124032769Y-106844072D01*
X124125514Y-107017586D01*
X124250328Y-107169672D01*
X124402414Y-107294486D01*
X124575928Y-107387231D01*
X124764202Y-107444344D01*
X124960000Y-107463628D01*
X126810000Y-107463628D01*
X127005798Y-107444344D01*
X127194072Y-107387231D01*
X127367586Y-107294486D01*
X127519672Y-107169672D01*
X127644486Y-107017586D01*
X127737231Y-106844072D01*
X127794344Y-106655798D01*
X127813628Y-106460000D01*
X127813628Y-105657717D01*
X128411345Y-105060000D01*
X129553518Y-105060000D01*
X129560001Y-105060638D01*
X129560001Y-105146755D01*
X129421599Y-105188739D01*
X129291307Y-105258381D01*
X129177105Y-105352105D01*
X129083381Y-105466307D01*
X129013739Y-105596599D01*
X128970853Y-105737974D01*
X128956372Y-105885000D01*
X128956372Y-109685000D01*
X128970853Y-109832026D01*
X129013739Y-109973401D01*
X129083381Y-110103693D01*
X129177105Y-110217895D01*
X129291307Y-110311619D01*
X129421599Y-110381261D01*
X129562974Y-110424147D01*
X129710000Y-110438628D01*
X131710000Y-110438628D01*
X131857026Y-110424147D01*
X131998401Y-110381261D01*
X132128693Y-110311619D01*
X132242895Y-110217895D01*
X132336619Y-110103693D01*
X132406261Y-109973401D01*
X132449147Y-109832026D01*
X132463628Y-109685000D01*
X132463628Y-108935000D01*
X135373388Y-108935000D01*
X135313738Y-109046599D01*
X135270852Y-109187974D01*
X135256371Y-109335000D01*
X135260000Y-109747500D01*
X135447500Y-109935000D01*
X136860000Y-109935000D01*
X136860000Y-109915000D01*
X137160000Y-109915000D01*
X137160000Y-109935000D01*
X138572500Y-109935000D01*
X138760000Y-109747500D01*
X138763629Y-109335000D01*
X138749148Y-109187974D01*
X138706262Y-109046599D01*
X138646611Y-108934999D01*
X138706261Y-108823401D01*
X138749147Y-108682026D01*
X138763628Y-108535000D01*
X138763628Y-107035000D01*
X138749147Y-106887974D01*
X138710327Y-106760000D01*
X139281372Y-106760000D01*
X139281372Y-108460000D01*
X139295853Y-108607026D01*
X139338739Y-108748401D01*
X139408381Y-108878693D01*
X139502105Y-108992895D01*
X139616307Y-109086619D01*
X139669410Y-109115003D01*
X139508102Y-109335035D01*
X139375567Y-109619314D01*
X139335124Y-109752654D01*
X139480487Y-110000000D01*
X140735000Y-110000000D01*
X140735000Y-109980000D01*
X141035000Y-109980000D01*
X141035000Y-110000000D01*
X142289513Y-110000000D01*
X142434876Y-109752654D01*
X142394433Y-109619314D01*
X142261898Y-109335035D01*
X142100590Y-109115003D01*
X142153693Y-109086619D01*
X142267895Y-108992895D01*
X142361619Y-108878693D01*
X142431261Y-108748401D01*
X142474147Y-108607026D01*
X142488628Y-108460000D01*
X142488628Y-106760000D01*
X142474147Y-106612974D01*
X142431261Y-106471599D01*
X142361619Y-106341307D01*
X142267895Y-106227105D01*
X142153693Y-106133381D01*
X142023401Y-106063739D01*
X141882026Y-106020853D01*
X141735000Y-106006372D01*
X140035000Y-106006372D01*
X139887974Y-106020853D01*
X139746599Y-106063739D01*
X139616307Y-106133381D01*
X139502105Y-106227105D01*
X139408381Y-106341307D01*
X139338739Y-106471599D01*
X139295853Y-106612974D01*
X139281372Y-106760000D01*
X138710327Y-106760000D01*
X138706261Y-106746599D01*
X138646611Y-106635000D01*
X138706261Y-106523401D01*
X138749147Y-106382026D01*
X138763628Y-106235000D01*
X138763628Y-104735000D01*
X138749147Y-104587974D01*
X138706261Y-104446599D01*
X138700061Y-104435000D01*
X140384514Y-104435000D01*
X140432769Y-104594072D01*
X140525514Y-104767586D01*
X140650328Y-104919672D01*
X140802414Y-105044486D01*
X140975928Y-105137231D01*
X141164202Y-105194344D01*
X141360000Y-105213628D01*
X142360000Y-105213628D01*
X142555798Y-105194344D01*
X142744072Y-105137231D01*
X142917586Y-105044486D01*
X143069672Y-104919672D01*
X143194486Y-104767586D01*
X143287231Y-104594072D01*
X143327901Y-104460000D01*
X143606371Y-104460000D01*
X143620852Y-104607026D01*
X143663738Y-104748401D01*
X143733380Y-104878694D01*
X143827104Y-104992896D01*
X143941306Y-105086620D01*
X144071599Y-105156262D01*
X144212974Y-105199148D01*
X144360000Y-105213629D01*
X144772500Y-105210000D01*
X144960000Y-105022500D01*
X144960000Y-103435000D01*
X145260000Y-103435000D01*
X145260000Y-105022500D01*
X145447500Y-105210000D01*
X145860000Y-105213629D01*
X146007026Y-105199148D01*
X146148401Y-105156262D01*
X146278694Y-105086620D01*
X146392896Y-104992896D01*
X146486620Y-104878694D01*
X146556262Y-104748401D01*
X146599148Y-104607026D01*
X146613629Y-104460000D01*
X146610000Y-103622500D01*
X146422500Y-103435000D01*
X145260000Y-103435000D01*
X144960000Y-103435000D01*
X143797500Y-103435000D01*
X143610000Y-103622500D01*
X143606371Y-104460000D01*
X143327901Y-104460000D01*
X143344344Y-104405798D01*
X143363628Y-104210000D01*
X143363628Y-102360000D01*
X143344344Y-102164202D01*
X143327902Y-102110000D01*
X143606371Y-102110000D01*
X143610000Y-102947500D01*
X143797500Y-103135000D01*
X144960000Y-103135000D01*
X144960000Y-101547500D01*
X145260000Y-101547500D01*
X145260000Y-103135000D01*
X146422500Y-103135000D01*
X146610000Y-102947500D01*
X146613629Y-102110000D01*
X146599148Y-101962974D01*
X146556262Y-101821599D01*
X146486620Y-101691306D01*
X146392896Y-101577104D01*
X146278694Y-101483380D01*
X146148401Y-101413738D01*
X146007026Y-101370852D01*
X145860000Y-101356371D01*
X145447500Y-101360000D01*
X145260000Y-101547500D01*
X144960000Y-101547500D01*
X144772500Y-101360000D01*
X144360000Y-101356371D01*
X144212974Y-101370852D01*
X144071599Y-101413738D01*
X143941306Y-101483380D01*
X143827104Y-101577104D01*
X143733380Y-101691306D01*
X143663738Y-101821599D01*
X143620852Y-101962974D01*
X143606371Y-102110000D01*
X143327902Y-102110000D01*
X143287231Y-101975928D01*
X143194486Y-101802414D01*
X143069672Y-101650328D01*
X142917586Y-101525514D01*
X142744072Y-101432769D01*
X142555798Y-101375656D01*
X142360000Y-101356372D01*
X141360000Y-101356372D01*
X141164202Y-101375656D01*
X140975928Y-101432769D01*
X140802414Y-101525514D01*
X140650328Y-101650328D01*
X140525514Y-101802414D01*
X140432769Y-101975928D01*
X140384514Y-102135000D01*
X137928508Y-102135000D01*
X137801595Y-102147500D01*
X137749386Y-102147500D01*
X137507889Y-102195537D01*
X137280403Y-102289765D01*
X137075672Y-102426562D01*
X137004734Y-102497500D01*
X135895291Y-102497500D01*
X135602657Y-102204865D01*
X135574474Y-102170524D01*
X135437431Y-102058056D01*
X135281080Y-101974485D01*
X135111430Y-101923022D01*
X135055905Y-101917553D01*
X136495063Y-100478395D01*
X136514062Y-100506828D01*
X136688172Y-100680938D01*
X136892903Y-100817735D01*
X137120389Y-100911963D01*
X137361886Y-100960000D01*
X137608114Y-100960000D01*
X137849611Y-100911963D01*
X138077097Y-100817735D01*
X138281828Y-100680938D01*
X138352766Y-100610000D01*
X138423796Y-100610000D01*
X138468002Y-100614354D01*
X138512208Y-100610000D01*
X138512209Y-100610000D01*
X138644433Y-100596977D01*
X138814083Y-100545514D01*
X138970434Y-100461943D01*
X139107477Y-100349475D01*
X139135659Y-100315135D01*
X139915141Y-99535654D01*
X139949475Y-99507477D01*
X139983161Y-99466431D01*
X140061943Y-99370434D01*
X140065425Y-99363919D01*
X140069316Y-99356641D01*
X140211886Y-99385000D01*
X140458114Y-99385000D01*
X140699611Y-99336963D01*
X140734026Y-99322708D01*
X140777265Y-99427097D01*
X140914062Y-99631828D01*
X141088172Y-99805938D01*
X141292903Y-99942735D01*
X141520389Y-100036963D01*
X141761886Y-100085000D01*
X142008114Y-100085000D01*
X142249611Y-100036963D01*
X142477097Y-99942735D01*
X142681828Y-99805938D01*
X142855938Y-99631828D01*
X142992735Y-99427097D01*
X143086963Y-99199611D01*
X143135000Y-98958114D01*
X143135000Y-97760000D01*
X143115000Y-97760000D01*
X143115000Y-97460000D01*
X143135000Y-97460000D01*
X143135000Y-97440000D01*
X143435000Y-97440000D01*
X143435000Y-97460000D01*
X143455000Y-97460000D01*
X143455000Y-97760000D01*
X143435000Y-97760000D01*
X143435000Y-98897500D01*
X143622500Y-99085000D01*
X143785000Y-99088629D01*
X143932026Y-99074148D01*
X144073401Y-99031262D01*
X144203694Y-98961620D01*
X144316224Y-98869268D01*
X144377414Y-98919486D01*
X144550928Y-99012231D01*
X144739202Y-99069344D01*
X144935000Y-99088628D01*
X145435000Y-99088628D01*
X145630798Y-99069344D01*
X145819072Y-99012231D01*
X145992586Y-98919486D01*
X146144672Y-98794672D01*
X146269486Y-98642586D01*
X146362231Y-98469072D01*
X146419344Y-98280798D01*
X146438628Y-98085000D01*
X146438628Y-97135000D01*
X146419344Y-96939202D01*
X146362231Y-96750928D01*
X146269486Y-96577414D01*
X146144672Y-96425328D01*
X146085000Y-96376356D01*
X146085000Y-96229207D01*
X146089354Y-96185000D01*
X146071977Y-96008569D01*
X146020514Y-95838918D01*
X145936943Y-95682568D01*
X145888820Y-95623930D01*
X145824475Y-95545525D01*
X145790135Y-95517343D01*
X145211420Y-94938628D01*
X145885000Y-94938628D01*
X146046657Y-94922706D01*
X146202102Y-94875552D01*
X146345361Y-94798979D01*
X146470928Y-94695928D01*
X146573979Y-94570361D01*
X146650552Y-94427102D01*
X146697706Y-94271657D01*
X146713628Y-94110000D01*
X146713628Y-93960000D01*
X146697706Y-93798343D01*
X146693658Y-93785000D01*
X146697706Y-93771657D01*
X146713628Y-93610000D01*
X146713628Y-93460000D01*
X146697706Y-93298343D01*
X146693658Y-93285000D01*
X146697706Y-93271657D01*
X146713628Y-93110000D01*
X146713628Y-92960000D01*
X146711166Y-92935008D01*
X148372906Y-92935008D01*
X148417112Y-92939362D01*
X148461318Y-92935008D01*
X148461319Y-92935008D01*
X148593543Y-92921985D01*
X148763193Y-92870522D01*
X148919544Y-92786951D01*
X149056587Y-92674483D01*
X149084770Y-92640142D01*
X149315141Y-92409770D01*
X149349485Y-92381585D01*
X149461953Y-92244542D01*
X149498219Y-92176693D01*
X151190136Y-90484776D01*
X151224475Y-90456595D01*
X151336943Y-90319552D01*
X151420514Y-90163201D01*
X151471977Y-89993551D01*
X151485000Y-89861327D01*
X151485000Y-89861325D01*
X151489354Y-89817121D01*
X151485000Y-89772917D01*
X151485000Y-84614912D01*
X151660001Y-84439912D01*
X151660000Y-112570000D01*
%TA.AperFunction,Conductor*%
D27*
G36*
X151660000Y-112570000D02*
G01*
X119100918Y-112570000D01*
X119227097Y-112517735D01*
X119431828Y-112380938D01*
X119605938Y-112206828D01*
X119742735Y-112002097D01*
X119836963Y-111774611D01*
X119844842Y-111735000D01*
X119858114Y-111735000D01*
X120099611Y-111686963D01*
X120327097Y-111592735D01*
X120531828Y-111455938D01*
X120705938Y-111281828D01*
X120842735Y-111077097D01*
X120936963Y-110849611D01*
X120939869Y-110835000D01*
X135256371Y-110835000D01*
X135270852Y-110982026D01*
X135313738Y-111123401D01*
X135383380Y-111253694D01*
X135477104Y-111367896D01*
X135591306Y-111461620D01*
X135721599Y-111531262D01*
X135862974Y-111574148D01*
X136010000Y-111588629D01*
X136672500Y-111585000D01*
X136860000Y-111397500D01*
X136860000Y-110235000D01*
X137160000Y-110235000D01*
X137160000Y-111397500D01*
X137347500Y-111585000D01*
X138010000Y-111588629D01*
X138157026Y-111574148D01*
X138298401Y-111531262D01*
X138428694Y-111461620D01*
X138542896Y-111367896D01*
X138636620Y-111253694D01*
X138706262Y-111123401D01*
X138749148Y-110982026D01*
X138763629Y-110835000D01*
X138761099Y-110547346D01*
X139335124Y-110547346D01*
X139375567Y-110680686D01*
X139508102Y-110964965D01*
X139693550Y-111217925D01*
X139924785Y-111429846D01*
X140192921Y-111592583D01*
X140487653Y-111699882D01*
X140735000Y-111555459D01*
X140735000Y-110300000D01*
X141035000Y-110300000D01*
X141035000Y-111555459D01*
X141282347Y-111699882D01*
X141577079Y-111592583D01*
X141845215Y-111429846D01*
X142076450Y-111217925D01*
X142261898Y-110964965D01*
X142394433Y-110680686D01*
X142434876Y-110547346D01*
X142289513Y-110300000D01*
X141035000Y-110300000D01*
X140735000Y-110300000D01*
X139480487Y-110300000D01*
X139335124Y-110547346D01*
X138761099Y-110547346D01*
X138760000Y-110422500D01*
X138572500Y-110235000D01*
X137160000Y-110235000D01*
X136860000Y-110235000D01*
X135447500Y-110235000D01*
X135260000Y-110422500D01*
X135256371Y-110835000D01*
X120939869Y-110835000D01*
X120969706Y-110685000D01*
X121133114Y-110685000D01*
X121374611Y-110636963D01*
X121602097Y-110542735D01*
X121806828Y-110405938D01*
X121980938Y-110231828D01*
X122117735Y-110027097D01*
X122145527Y-109960000D01*
X123956371Y-109960000D01*
X123970852Y-110107026D01*
X124013738Y-110248401D01*
X124083380Y-110378694D01*
X124177104Y-110492896D01*
X124291306Y-110586620D01*
X124421599Y-110656262D01*
X124562974Y-110699148D01*
X124710000Y-110713629D01*
X125547500Y-110710000D01*
X125735000Y-110522500D01*
X125735000Y-109360000D01*
X126035000Y-109360000D01*
X126035000Y-110522500D01*
X126222500Y-110710000D01*
X127060000Y-110713629D01*
X127207026Y-110699148D01*
X127348401Y-110656262D01*
X127478694Y-110586620D01*
X127592896Y-110492896D01*
X127686620Y-110378694D01*
X127756262Y-110248401D01*
X127799148Y-110107026D01*
X127813629Y-109960000D01*
X127810000Y-109547500D01*
X127622500Y-109360000D01*
X126035000Y-109360000D01*
X125735000Y-109360000D01*
X124147500Y-109360000D01*
X123960000Y-109547500D01*
X123956371Y-109960000D01*
X122145527Y-109960000D01*
X122211963Y-109799611D01*
X122260000Y-109558114D01*
X122260000Y-109311886D01*
X122211963Y-109070389D01*
X122117735Y-108842903D01*
X121980938Y-108638172D01*
X121806828Y-108464062D01*
X121800749Y-108460000D01*
X123956371Y-108460000D01*
X123960000Y-108872500D01*
X124147500Y-109060000D01*
X125735000Y-109060000D01*
X125735000Y-107897500D01*
X126035000Y-107897500D01*
X126035000Y-109060000D01*
X127622500Y-109060000D01*
X127810000Y-108872500D01*
X127813629Y-108460000D01*
X127799148Y-108312974D01*
X127756262Y-108171599D01*
X127686620Y-108041306D01*
X127592896Y-107927104D01*
X127478694Y-107833380D01*
X127348401Y-107763738D01*
X127207026Y-107720852D01*
X127060000Y-107706371D01*
X126222500Y-107710000D01*
X126035000Y-107897500D01*
X125735000Y-107897500D01*
X125547500Y-107710000D01*
X124710000Y-107706371D01*
X124562974Y-107720852D01*
X124421599Y-107763738D01*
X124291306Y-107833380D01*
X124177104Y-107927104D01*
X124083380Y-108041306D01*
X124013738Y-108171599D01*
X123970852Y-108312974D01*
X123956371Y-108460000D01*
X121800749Y-108460000D01*
X121602097Y-108327265D01*
X121374611Y-108233037D01*
X121133114Y-108185000D01*
X120886886Y-108185000D01*
X120645389Y-108233037D01*
X120417903Y-108327265D01*
X120213172Y-108464062D01*
X120142234Y-108535000D01*
X118182793Y-108535000D01*
X113106420Y-103458628D01*
X113135001Y-103458628D01*
X113330799Y-103439344D01*
X113519072Y-103382231D01*
X113692586Y-103289486D01*
X113814219Y-103189664D01*
X113937136Y-103290539D01*
X114109570Y-103382707D01*
X114296671Y-103439464D01*
X114459898Y-103455540D01*
X114433037Y-103520389D01*
X114385000Y-103761886D01*
X114385000Y-104008114D01*
X114433037Y-104249611D01*
X114527265Y-104477097D01*
X114664062Y-104681828D01*
X114838172Y-104855938D01*
X115042903Y-104992735D01*
X115270389Y-105086963D01*
X115511886Y-105135000D01*
X115758114Y-105135000D01*
X115999611Y-105086963D01*
X116125060Y-105035000D01*
X124054645Y-105035000D01*
X124032769Y-105075928D01*
X123975656Y-105264202D01*
X123956372Y-105460000D01*
X123956372Y-106460000D01*
X123975656Y-106655798D01*
X124032769Y-106844072D01*
X124125514Y-107017586D01*
X124250328Y-107169672D01*
X124402414Y-107294486D01*
X124575928Y-107387231D01*
X124764202Y-107444344D01*
X124960000Y-107463628D01*
X126810000Y-107463628D01*
X127005798Y-107444344D01*
X127194072Y-107387231D01*
X127367586Y-107294486D01*
X127519672Y-107169672D01*
X127644486Y-107017586D01*
X127737231Y-106844072D01*
X127794344Y-106655798D01*
X127813628Y-106460000D01*
X127813628Y-105657717D01*
X128411345Y-105060000D01*
X129553518Y-105060000D01*
X129560001Y-105060638D01*
X129560001Y-105146755D01*
X129421599Y-105188739D01*
X129291307Y-105258381D01*
X129177105Y-105352105D01*
X129083381Y-105466307D01*
X129013739Y-105596599D01*
X128970853Y-105737974D01*
X128956372Y-105885000D01*
X128956372Y-109685000D01*
X128970853Y-109832026D01*
X129013739Y-109973401D01*
X129083381Y-110103693D01*
X129177105Y-110217895D01*
X129291307Y-110311619D01*
X129421599Y-110381261D01*
X129562974Y-110424147D01*
X129710000Y-110438628D01*
X131710000Y-110438628D01*
X131857026Y-110424147D01*
X131998401Y-110381261D01*
X132128693Y-110311619D01*
X132242895Y-110217895D01*
X132336619Y-110103693D01*
X132406261Y-109973401D01*
X132449147Y-109832026D01*
X132463628Y-109685000D01*
X132463628Y-108935000D01*
X135373388Y-108935000D01*
X135313738Y-109046599D01*
X135270852Y-109187974D01*
X135256371Y-109335000D01*
X135260000Y-109747500D01*
X135447500Y-109935000D01*
X136860000Y-109935000D01*
X136860000Y-109915000D01*
X137160000Y-109915000D01*
X137160000Y-109935000D01*
X138572500Y-109935000D01*
X138760000Y-109747500D01*
X138763629Y-109335000D01*
X138749148Y-109187974D01*
X138706262Y-109046599D01*
X138646611Y-108934999D01*
X138706261Y-108823401D01*
X138749147Y-108682026D01*
X138763628Y-108535000D01*
X138763628Y-107035000D01*
X138749147Y-106887974D01*
X138710327Y-106760000D01*
X139281372Y-106760000D01*
X139281372Y-108460000D01*
X139295853Y-108607026D01*
X139338739Y-108748401D01*
X139408381Y-108878693D01*
X139502105Y-108992895D01*
X139616307Y-109086619D01*
X139669410Y-109115003D01*
X139508102Y-109335035D01*
X139375567Y-109619314D01*
X139335124Y-109752654D01*
X139480487Y-110000000D01*
X140735000Y-110000000D01*
X140735000Y-109980000D01*
X141035000Y-109980000D01*
X141035000Y-110000000D01*
X142289513Y-110000000D01*
X142434876Y-109752654D01*
X142394433Y-109619314D01*
X142261898Y-109335035D01*
X142100590Y-109115003D01*
X142153693Y-109086619D01*
X142267895Y-108992895D01*
X142361619Y-108878693D01*
X142431261Y-108748401D01*
X142474147Y-108607026D01*
X142488628Y-108460000D01*
X142488628Y-106760000D01*
X142474147Y-106612974D01*
X142431261Y-106471599D01*
X142361619Y-106341307D01*
X142267895Y-106227105D01*
X142153693Y-106133381D01*
X142023401Y-106063739D01*
X141882026Y-106020853D01*
X141735000Y-106006372D01*
X140035000Y-106006372D01*
X139887974Y-106020853D01*
X139746599Y-106063739D01*
X139616307Y-106133381D01*
X139502105Y-106227105D01*
X139408381Y-106341307D01*
X139338739Y-106471599D01*
X139295853Y-106612974D01*
X139281372Y-106760000D01*
X138710327Y-106760000D01*
X138706261Y-106746599D01*
X138646611Y-106635000D01*
X138706261Y-106523401D01*
X138749147Y-106382026D01*
X138763628Y-106235000D01*
X138763628Y-104735000D01*
X138749147Y-104587974D01*
X138706261Y-104446599D01*
X138700061Y-104435000D01*
X140384514Y-104435000D01*
X140432769Y-104594072D01*
X140525514Y-104767586D01*
X140650328Y-104919672D01*
X140802414Y-105044486D01*
X140975928Y-105137231D01*
X141164202Y-105194344D01*
X141360000Y-105213628D01*
X142360000Y-105213628D01*
X142555798Y-105194344D01*
X142744072Y-105137231D01*
X142917586Y-105044486D01*
X143069672Y-104919672D01*
X143194486Y-104767586D01*
X143287231Y-104594072D01*
X143327901Y-104460000D01*
X143606371Y-104460000D01*
X143620852Y-104607026D01*
X143663738Y-104748401D01*
X143733380Y-104878694D01*
X143827104Y-104992896D01*
X143941306Y-105086620D01*
X144071599Y-105156262D01*
X144212974Y-105199148D01*
X144360000Y-105213629D01*
X144772500Y-105210000D01*
X144960000Y-105022500D01*
X144960000Y-103435000D01*
X145260000Y-103435000D01*
X145260000Y-105022500D01*
X145447500Y-105210000D01*
X145860000Y-105213629D01*
X146007026Y-105199148D01*
X146148401Y-105156262D01*
X146278694Y-105086620D01*
X146392896Y-104992896D01*
X146486620Y-104878694D01*
X146556262Y-104748401D01*
X146599148Y-104607026D01*
X146613629Y-104460000D01*
X146610000Y-103622500D01*
X146422500Y-103435000D01*
X145260000Y-103435000D01*
X144960000Y-103435000D01*
X143797500Y-103435000D01*
X143610000Y-103622500D01*
X143606371Y-104460000D01*
X143327901Y-104460000D01*
X143344344Y-104405798D01*
X143363628Y-104210000D01*
X143363628Y-102360000D01*
X143344344Y-102164202D01*
X143327902Y-102110000D01*
X143606371Y-102110000D01*
X143610000Y-102947500D01*
X143797500Y-103135000D01*
X144960000Y-103135000D01*
X144960000Y-101547500D01*
X145260000Y-101547500D01*
X145260000Y-103135000D01*
X146422500Y-103135000D01*
X146610000Y-102947500D01*
X146613629Y-102110000D01*
X146599148Y-101962974D01*
X146556262Y-101821599D01*
X146486620Y-101691306D01*
X146392896Y-101577104D01*
X146278694Y-101483380D01*
X146148401Y-101413738D01*
X146007026Y-101370852D01*
X145860000Y-101356371D01*
X145447500Y-101360000D01*
X145260000Y-101547500D01*
X144960000Y-101547500D01*
X144772500Y-101360000D01*
X144360000Y-101356371D01*
X144212974Y-101370852D01*
X144071599Y-101413738D01*
X143941306Y-101483380D01*
X143827104Y-101577104D01*
X143733380Y-101691306D01*
X143663738Y-101821599D01*
X143620852Y-101962974D01*
X143606371Y-102110000D01*
X143327902Y-102110000D01*
X143287231Y-101975928D01*
X143194486Y-101802414D01*
X143069672Y-101650328D01*
X142917586Y-101525514D01*
X142744072Y-101432769D01*
X142555798Y-101375656D01*
X142360000Y-101356372D01*
X141360000Y-101356372D01*
X141164202Y-101375656D01*
X140975928Y-101432769D01*
X140802414Y-101525514D01*
X140650328Y-101650328D01*
X140525514Y-101802414D01*
X140432769Y-101975928D01*
X140384514Y-102135000D01*
X137928508Y-102135000D01*
X137801595Y-102147500D01*
X137749386Y-102147500D01*
X137507889Y-102195537D01*
X137280403Y-102289765D01*
X137075672Y-102426562D01*
X137004734Y-102497500D01*
X135895291Y-102497500D01*
X135602657Y-102204865D01*
X135574474Y-102170524D01*
X135437431Y-102058056D01*
X135281080Y-101974485D01*
X135111430Y-101923022D01*
X135055905Y-101917553D01*
X136495063Y-100478395D01*
X136514062Y-100506828D01*
X136688172Y-100680938D01*
X136892903Y-100817735D01*
X137120389Y-100911963D01*
X137361886Y-100960000D01*
X137608114Y-100960000D01*
X137849611Y-100911963D01*
X138077097Y-100817735D01*
X138281828Y-100680938D01*
X138352766Y-100610000D01*
X138423796Y-100610000D01*
X138468002Y-100614354D01*
X138512208Y-100610000D01*
X138512209Y-100610000D01*
X138644433Y-100596977D01*
X138814083Y-100545514D01*
X138970434Y-100461943D01*
X139107477Y-100349475D01*
X139135659Y-100315135D01*
X139915141Y-99535654D01*
X139949475Y-99507477D01*
X139983161Y-99466431D01*
X140061943Y-99370434D01*
X140065425Y-99363919D01*
X140069316Y-99356641D01*
X140211886Y-99385000D01*
X140458114Y-99385000D01*
X140699611Y-99336963D01*
X140734026Y-99322708D01*
X140777265Y-99427097D01*
X140914062Y-99631828D01*
X141088172Y-99805938D01*
X141292903Y-99942735D01*
X141520389Y-100036963D01*
X141761886Y-100085000D01*
X142008114Y-100085000D01*
X142249611Y-100036963D01*
X142477097Y-99942735D01*
X142681828Y-99805938D01*
X142855938Y-99631828D01*
X142992735Y-99427097D01*
X143086963Y-99199611D01*
X143135000Y-98958114D01*
X143135000Y-97760000D01*
X143115000Y-97760000D01*
X143115000Y-97460000D01*
X143135000Y-97460000D01*
X143135000Y-97440000D01*
X143435000Y-97440000D01*
X143435000Y-97460000D01*
X143455000Y-97460000D01*
X143455000Y-97760000D01*
X143435000Y-97760000D01*
X143435000Y-98897500D01*
X143622500Y-99085000D01*
X143785000Y-99088629D01*
X143932026Y-99074148D01*
X144073401Y-99031262D01*
X144203694Y-98961620D01*
X144316224Y-98869268D01*
X144377414Y-98919486D01*
X144550928Y-99012231D01*
X144739202Y-99069344D01*
X144935000Y-99088628D01*
X145435000Y-99088628D01*
X145630798Y-99069344D01*
X145819072Y-99012231D01*
X145992586Y-98919486D01*
X146144672Y-98794672D01*
X146269486Y-98642586D01*
X146362231Y-98469072D01*
X146419344Y-98280798D01*
X146438628Y-98085000D01*
X146438628Y-97135000D01*
X146419344Y-96939202D01*
X146362231Y-96750928D01*
X146269486Y-96577414D01*
X146144672Y-96425328D01*
X146085000Y-96376356D01*
X146085000Y-96229207D01*
X146089354Y-96185000D01*
X146071977Y-96008569D01*
X146020514Y-95838918D01*
X145936943Y-95682568D01*
X145888820Y-95623930D01*
X145824475Y-95545525D01*
X145790135Y-95517343D01*
X145211420Y-94938628D01*
X145885000Y-94938628D01*
X146046657Y-94922706D01*
X146202102Y-94875552D01*
X146345361Y-94798979D01*
X146470928Y-94695928D01*
X146573979Y-94570361D01*
X146650552Y-94427102D01*
X146697706Y-94271657D01*
X146713628Y-94110000D01*
X146713628Y-93960000D01*
X146697706Y-93798343D01*
X146693658Y-93785000D01*
X146697706Y-93771657D01*
X146713628Y-93610000D01*
X146713628Y-93460000D01*
X146697706Y-93298343D01*
X146693658Y-93285000D01*
X146697706Y-93271657D01*
X146713628Y-93110000D01*
X146713628Y-92960000D01*
X146711166Y-92935008D01*
X148372906Y-92935008D01*
X148417112Y-92939362D01*
X148461318Y-92935008D01*
X148461319Y-92935008D01*
X148593543Y-92921985D01*
X148763193Y-92870522D01*
X148919544Y-92786951D01*
X149056587Y-92674483D01*
X149084770Y-92640142D01*
X149315141Y-92409770D01*
X149349485Y-92381585D01*
X149461953Y-92244542D01*
X149498219Y-92176693D01*
X151190136Y-90484776D01*
X151224475Y-90456595D01*
X151336943Y-90319552D01*
X151420514Y-90163201D01*
X151471977Y-89993551D01*
X151485000Y-89861327D01*
X151485000Y-89861325D01*
X151489354Y-89817121D01*
X151485000Y-89772917D01*
X151485000Y-84614912D01*
X151660001Y-84439912D01*
X151660000Y-112570000D01*
G37*
%TD.AperFunction*%
D26*
X105760001Y-100311346D02*
X105760000Y-102685000D01*
X101559999Y-102685000D01*
X101559999Y-98582793D01*
X101957792Y-98185000D01*
X103633656Y-98185000D01*
X105760001Y-100311346D01*
%TA.AperFunction,Conductor*%
D27*
G36*
X105760001Y-100311346D02*
G01*
X105760000Y-102685000D01*
X101559999Y-102685000D01*
X101559999Y-98582793D01*
X101957792Y-98185000D01*
X103633656Y-98185000D01*
X105760001Y-100311346D01*
G37*
%TD.AperFunction*%
D26*
X100570853Y-74837974D02*
X100556372Y-74985000D01*
X100556372Y-75985000D01*
X100570853Y-76132026D01*
X100613739Y-76273401D01*
X100683381Y-76403693D01*
X100750109Y-76485000D01*
X100683381Y-76566307D01*
X100613739Y-76696599D01*
X100570853Y-76837974D01*
X100556372Y-76985000D01*
X100556372Y-77985000D01*
X100570853Y-78132026D01*
X100613739Y-78273401D01*
X100683381Y-78403693D01*
X100750109Y-78485000D01*
X100683381Y-78566307D01*
X100613739Y-78696599D01*
X100570853Y-78837974D01*
X100556372Y-78985000D01*
X100556372Y-79985000D01*
X100570853Y-80132026D01*
X100613739Y-80273401D01*
X100683381Y-80403693D01*
X100750109Y-80485000D01*
X100683381Y-80566307D01*
X100613739Y-80696599D01*
X100570853Y-80837974D01*
X100556372Y-80985000D01*
X100556372Y-81985000D01*
X100570853Y-82132026D01*
X100613739Y-82273401D01*
X100683381Y-82403693D01*
X100750109Y-82485000D01*
X100683381Y-82566307D01*
X100613739Y-82696599D01*
X100570853Y-82837974D01*
X100556372Y-82985000D01*
X100556372Y-83985000D01*
X100570853Y-84132026D01*
X100613739Y-84273401D01*
X100683381Y-84403693D01*
X100777105Y-84517895D01*
X100795244Y-84532782D01*
X100785005Y-85733721D01*
X100789693Y-85772227D01*
X100799748Y-85799860D01*
X100815000Y-85825000D01*
X100965000Y-86025000D01*
X100978934Y-86041066D01*
X101001664Y-86059720D01*
X101027597Y-86073582D01*
X101055736Y-86082118D01*
X101085000Y-86085000D01*
X101660001Y-86085000D01*
X101660001Y-86517233D01*
X101589062Y-86588172D01*
X101452265Y-86792903D01*
X101358037Y-87020389D01*
X101310000Y-87261886D01*
X101310000Y-87508114D01*
X101358037Y-87749611D01*
X101452265Y-87977097D01*
X101589062Y-88181828D01*
X101763172Y-88355938D01*
X101967903Y-88492735D01*
X102195389Y-88586963D01*
X102436886Y-88635000D01*
X102683114Y-88635000D01*
X102924611Y-88586963D01*
X103152097Y-88492735D01*
X103356828Y-88355938D01*
X103530938Y-88181828D01*
X103667735Y-87977097D01*
X103761963Y-87749611D01*
X103779787Y-87660000D01*
X113831371Y-87660000D01*
X113835000Y-88172500D01*
X114022500Y-88360000D01*
X114885000Y-88360000D01*
X114885000Y-87097500D01*
X115185000Y-87097500D01*
X115185000Y-88360000D01*
X116047500Y-88360000D01*
X116235000Y-88172500D01*
X116238629Y-87660000D01*
X116224148Y-87512974D01*
X116181262Y-87371599D01*
X116111620Y-87241306D01*
X116017896Y-87127104D01*
X115903694Y-87033380D01*
X115773401Y-86963738D01*
X115632026Y-86920852D01*
X115485000Y-86906371D01*
X115372500Y-86910000D01*
X115185000Y-87097500D01*
X114885000Y-87097500D01*
X114697500Y-86910000D01*
X114585000Y-86906371D01*
X114437974Y-86920852D01*
X114296599Y-86963738D01*
X114166306Y-87033380D01*
X114052104Y-87127104D01*
X113958380Y-87241306D01*
X113888738Y-87371599D01*
X113845852Y-87512974D01*
X113831371Y-87660000D01*
X103779787Y-87660000D01*
X103810000Y-87508114D01*
X103810000Y-87261886D01*
X103761963Y-87020389D01*
X103667735Y-86792903D01*
X103530938Y-86588172D01*
X103460000Y-86517234D01*
X103460000Y-86085000D01*
X103936923Y-86085000D01*
X103963739Y-86173401D01*
X104033381Y-86303693D01*
X104127105Y-86417895D01*
X104241307Y-86511619D01*
X104371599Y-86581261D01*
X104512974Y-86624147D01*
X104660000Y-86638628D01*
X105660000Y-86638628D01*
X105807026Y-86624147D01*
X105948401Y-86581261D01*
X106078693Y-86511619D01*
X106160000Y-86444891D01*
X106241307Y-86511619D01*
X106371599Y-86581261D01*
X106512974Y-86624147D01*
X106660000Y-86638628D01*
X107660000Y-86638628D01*
X107807026Y-86624147D01*
X107948401Y-86581261D01*
X108078693Y-86511619D01*
X108160000Y-86444891D01*
X108241307Y-86511619D01*
X108371599Y-86581261D01*
X108512974Y-86624147D01*
X108660000Y-86638628D01*
X109660000Y-86638628D01*
X109807026Y-86624147D01*
X109948401Y-86581261D01*
X110078693Y-86511619D01*
X110160000Y-86444891D01*
X110241307Y-86511619D01*
X110371599Y-86581261D01*
X110512974Y-86624147D01*
X110660000Y-86638628D01*
X111660000Y-86638628D01*
X111807026Y-86624147D01*
X111948401Y-86581261D01*
X112078693Y-86511619D01*
X112160000Y-86444891D01*
X112241307Y-86511619D01*
X112371599Y-86581261D01*
X112512974Y-86624147D01*
X112660000Y-86638628D01*
X113660000Y-86638628D01*
X113807026Y-86624147D01*
X113948401Y-86581261D01*
X114078693Y-86511619D01*
X114160000Y-86444891D01*
X114241307Y-86511619D01*
X114371599Y-86581261D01*
X114512974Y-86624147D01*
X114660000Y-86638628D01*
X115660000Y-86638628D01*
X115807026Y-86624147D01*
X115948401Y-86581261D01*
X116078693Y-86511619D01*
X116192895Y-86417895D01*
X116286619Y-86303693D01*
X116356261Y-86173401D01*
X116383077Y-86085000D01*
X119235000Y-86085000D01*
X119264264Y-86082118D01*
X119292403Y-86073582D01*
X119318336Y-86059720D01*
X119341066Y-86041066D01*
X119359720Y-86018336D01*
X119373582Y-85992403D01*
X119382118Y-85964264D01*
X119385000Y-85935000D01*
X119385000Y-84634975D01*
X119428694Y-84611620D01*
X119542896Y-84517896D01*
X119636620Y-84403694D01*
X119706262Y-84273401D01*
X119749148Y-84132026D01*
X119763629Y-83985000D01*
X119760000Y-83822500D01*
X119572500Y-83635000D01*
X119385000Y-83635000D01*
X119385000Y-83335000D01*
X119572500Y-83335000D01*
X119760000Y-83147500D01*
X119763629Y-82985000D01*
X119749148Y-82837974D01*
X119706262Y-82696599D01*
X119636620Y-82566306D01*
X119569892Y-82484999D01*
X119625038Y-82417804D01*
X119663172Y-82455938D01*
X119867903Y-82592735D01*
X120095389Y-82686963D01*
X120336886Y-82735000D01*
X120583114Y-82735000D01*
X120735000Y-82704788D01*
X120735000Y-85312208D01*
X119104400Y-86942808D01*
X119032026Y-86920853D01*
X118885000Y-86906372D01*
X117985000Y-86906372D01*
X117837974Y-86920853D01*
X117696599Y-86963739D01*
X117566307Y-87033381D01*
X117452105Y-87127105D01*
X117358381Y-87241307D01*
X117288739Y-87371599D01*
X117245853Y-87512974D01*
X117231372Y-87660000D01*
X117231372Y-89360000D01*
X117245853Y-89507026D01*
X117288739Y-89648401D01*
X117358381Y-89778693D01*
X117452105Y-89892895D01*
X117566307Y-89986619D01*
X117696599Y-90056261D01*
X117837974Y-90099147D01*
X117985000Y-90113628D01*
X118733580Y-90113628D01*
X117554865Y-91292343D01*
X117520525Y-91320525D01*
X117408057Y-91457569D01*
X117324486Y-91613920D01*
X117290627Y-91725539D01*
X117273023Y-91783570D01*
X117255646Y-91960000D01*
X117260000Y-92004207D01*
X117260000Y-92255546D01*
X117244526Y-92250852D01*
X117097500Y-92236371D01*
X116947500Y-92240000D01*
X116760000Y-92427500D01*
X116760000Y-93540000D01*
X116780000Y-93540000D01*
X116780000Y-93840000D01*
X116760000Y-93840000D01*
X116760000Y-94952500D01*
X116865000Y-95057500D01*
X116750000Y-95172500D01*
X116750000Y-96285000D01*
X116770000Y-96285000D01*
X116770000Y-96585000D01*
X116750000Y-96585000D01*
X116750000Y-97697500D01*
X116907500Y-97855000D01*
X116760000Y-98002500D01*
X116760000Y-99115000D01*
X116780000Y-99115000D01*
X116780000Y-99415000D01*
X116760000Y-99415000D01*
X116760000Y-100527500D01*
X116867500Y-100635000D01*
X116760000Y-100742500D01*
X116760000Y-101855000D01*
X116780000Y-101855000D01*
X116780000Y-102155000D01*
X116760000Y-102155000D01*
X116760000Y-102175000D01*
X116460000Y-102175000D01*
X116460000Y-102155000D01*
X116440000Y-102155000D01*
X116440000Y-101855000D01*
X116460000Y-101855000D01*
X116460000Y-100742500D01*
X116352500Y-100635000D01*
X116460000Y-100527500D01*
X116460000Y-99415000D01*
X116440000Y-99415000D01*
X116440000Y-99115000D01*
X116460000Y-99115000D01*
X116460000Y-98002500D01*
X116302500Y-97845000D01*
X116450000Y-97697500D01*
X116450000Y-96585000D01*
X116430000Y-96585000D01*
X116430000Y-96285000D01*
X116450000Y-96285000D01*
X116450000Y-95172500D01*
X116345000Y-95067500D01*
X116460000Y-94952500D01*
X116460000Y-93840000D01*
X116440000Y-93840000D01*
X116440000Y-93540000D01*
X116460000Y-93540000D01*
X116460000Y-92427500D01*
X116272500Y-92240000D01*
X116122500Y-92236371D01*
X115975474Y-92250852D01*
X115834099Y-92293738D01*
X115703806Y-92363380D01*
X115593307Y-92454065D01*
X115532864Y-92404461D01*
X115360430Y-92312293D01*
X115173329Y-92255536D01*
X114978750Y-92236372D01*
X114491250Y-92236372D01*
X114296671Y-92255536D01*
X114109570Y-92312293D01*
X113937136Y-92404461D01*
X113798988Y-92517836D01*
X113692586Y-92430514D01*
X113519072Y-92337769D01*
X113330799Y-92280656D01*
X113135001Y-92261372D01*
X112609999Y-92261372D01*
X112414201Y-92280656D01*
X112225928Y-92337769D01*
X112052414Y-92430514D01*
X111960000Y-92506356D01*
X111867586Y-92430514D01*
X111694072Y-92337769D01*
X111505799Y-92280656D01*
X111310001Y-92261372D01*
X110784999Y-92261372D01*
X110589201Y-92280656D01*
X110400928Y-92337769D01*
X110227414Y-92430514D01*
X110075328Y-92555328D01*
X109950514Y-92707414D01*
X109895318Y-92810678D01*
X109894999Y-92810647D01*
X109850802Y-92815000D01*
X109850793Y-92815000D01*
X109718569Y-92828023D01*
X109548919Y-92879486D01*
X109392568Y-92963057D01*
X109255525Y-93075525D01*
X109227343Y-93109865D01*
X107954841Y-94382367D01*
X107920506Y-94410545D01*
X107892328Y-94444880D01*
X107892325Y-94444883D01*
X107808037Y-94547589D01*
X107724467Y-94703939D01*
X107673003Y-94873590D01*
X107655626Y-95050020D01*
X107659981Y-95094237D01*
X107659981Y-98958636D01*
X104963125Y-96261780D01*
X104927107Y-96217893D01*
X104751997Y-96074184D01*
X104552215Y-95967398D01*
X104335439Y-95901640D01*
X104166492Y-95885000D01*
X104166482Y-95885000D01*
X104110000Y-95879437D01*
X104053518Y-95885000D01*
X101721735Y-95885000D01*
X101666052Y-95896076D01*
X101609561Y-95901640D01*
X101555241Y-95918118D01*
X101499557Y-95929194D01*
X101447107Y-95950920D01*
X101392785Y-95967398D01*
X101342717Y-95994160D01*
X101290271Y-96015884D01*
X101243070Y-96047422D01*
X101193003Y-96074184D01*
X101149121Y-96110197D01*
X101101918Y-96141737D01*
X101061775Y-96181880D01*
X101017893Y-96217893D01*
X100981880Y-96261775D01*
X100941737Y-96301918D01*
X100910197Y-96349121D01*
X100874184Y-96393003D01*
X100847422Y-96443070D01*
X100815884Y-96490271D01*
X100794160Y-96542717D01*
X100767398Y-96592785D01*
X100750920Y-96647107D01*
X100729194Y-96699557D01*
X100718118Y-96755241D01*
X100701640Y-96809561D01*
X100696076Y-96866052D01*
X100687366Y-96909842D01*
X100360000Y-97237208D01*
X100360000Y-91985000D01*
X101706372Y-91985000D01*
X101706372Y-93585000D01*
X101720853Y-93732026D01*
X101763739Y-93873401D01*
X101833381Y-94003693D01*
X101927105Y-94117895D01*
X102041307Y-94211619D01*
X102171599Y-94281261D01*
X102312974Y-94324147D01*
X102460000Y-94338628D01*
X104060000Y-94338628D01*
X104207026Y-94324147D01*
X104348401Y-94281261D01*
X104478693Y-94211619D01*
X104592895Y-94117895D01*
X104686619Y-94003693D01*
X104756261Y-93873401D01*
X104762152Y-93853979D01*
X105903153Y-93853979D01*
X105970132Y-94127355D01*
X106247190Y-94255657D01*
X106543955Y-94327443D01*
X106849022Y-94339953D01*
X107150667Y-94292708D01*
X107437299Y-94187522D01*
X107549868Y-94127355D01*
X107616847Y-93853979D01*
X106760000Y-92997132D01*
X105903153Y-93853979D01*
X104762152Y-93853979D01*
X104799147Y-93732026D01*
X104813628Y-93585000D01*
X104813628Y-92874022D01*
X105205047Y-92874022D01*
X105252292Y-93175667D01*
X105357478Y-93462299D01*
X105417645Y-93574868D01*
X105691021Y-93641847D01*
X106547868Y-92785000D01*
X106972132Y-92785000D01*
X107828979Y-93641847D01*
X108102355Y-93574868D01*
X108230657Y-93297810D01*
X108302443Y-93001045D01*
X108314953Y-92695978D01*
X108267708Y-92394333D01*
X108162522Y-92107701D01*
X108102355Y-91995132D01*
X107828979Y-91928153D01*
X106972132Y-92785000D01*
X106547868Y-92785000D01*
X105691021Y-91928153D01*
X105417645Y-91995132D01*
X105289343Y-92272190D01*
X105217557Y-92568955D01*
X105205047Y-92874022D01*
X104813628Y-92874022D01*
X104813628Y-91985000D01*
X104799147Y-91837974D01*
X104762153Y-91716021D01*
X105903153Y-91716021D01*
X106760000Y-92572868D01*
X107616847Y-91716021D01*
X107549868Y-91442645D01*
X107272810Y-91314343D01*
X106976045Y-91242557D01*
X106670978Y-91230047D01*
X106369333Y-91277292D01*
X106082701Y-91382478D01*
X105970132Y-91442645D01*
X105903153Y-91716021D01*
X104762153Y-91716021D01*
X104756261Y-91696599D01*
X104686619Y-91566307D01*
X104592895Y-91452105D01*
X104478693Y-91358381D01*
X104348401Y-91288739D01*
X104207026Y-91245853D01*
X104060000Y-91231372D01*
X102460000Y-91231372D01*
X102312974Y-91245853D01*
X102171599Y-91288739D01*
X102041307Y-91358381D01*
X101927105Y-91452105D01*
X101833381Y-91566307D01*
X101763739Y-91696599D01*
X101720853Y-91837974D01*
X101706372Y-91985000D01*
X100360000Y-91985000D01*
X100360000Y-89360000D01*
X113831371Y-89360000D01*
X113845852Y-89507026D01*
X113888738Y-89648401D01*
X113958380Y-89778694D01*
X114052104Y-89892896D01*
X114166306Y-89986620D01*
X114296599Y-90056262D01*
X114437974Y-90099148D01*
X114585000Y-90113629D01*
X114697500Y-90110000D01*
X114885000Y-89922500D01*
X114885000Y-88660000D01*
X115185000Y-88660000D01*
X115185000Y-89922500D01*
X115372500Y-90110000D01*
X115485000Y-90113629D01*
X115632026Y-90099148D01*
X115773401Y-90056262D01*
X115903694Y-89986620D01*
X116017896Y-89892896D01*
X116111620Y-89778694D01*
X116181262Y-89648401D01*
X116224148Y-89507026D01*
X116238629Y-89360000D01*
X116235000Y-88847500D01*
X116047500Y-88660000D01*
X115185000Y-88660000D01*
X114885000Y-88660000D01*
X114022500Y-88660000D01*
X113835000Y-88847500D01*
X113831371Y-89360000D01*
X100360000Y-89360000D01*
X100360000Y-74735000D01*
X100508114Y-74735000D01*
X100608125Y-74715107D01*
X100570853Y-74837974D01*
%TA.AperFunction,Conductor*%
D27*
G36*
X100570853Y-74837974D02*
G01*
X100556372Y-74985000D01*
X100556372Y-75985000D01*
X100570853Y-76132026D01*
X100613739Y-76273401D01*
X100683381Y-76403693D01*
X100750109Y-76485000D01*
X100683381Y-76566307D01*
X100613739Y-76696599D01*
X100570853Y-76837974D01*
X100556372Y-76985000D01*
X100556372Y-77985000D01*
X100570853Y-78132026D01*
X100613739Y-78273401D01*
X100683381Y-78403693D01*
X100750109Y-78485000D01*
X100683381Y-78566307D01*
X100613739Y-78696599D01*
X100570853Y-78837974D01*
X100556372Y-78985000D01*
X100556372Y-79985000D01*
X100570853Y-80132026D01*
X100613739Y-80273401D01*
X100683381Y-80403693D01*
X100750109Y-80485000D01*
X100683381Y-80566307D01*
X100613739Y-80696599D01*
X100570853Y-80837974D01*
X100556372Y-80985000D01*
X100556372Y-81985000D01*
X100570853Y-82132026D01*
X100613739Y-82273401D01*
X100683381Y-82403693D01*
X100750109Y-82485000D01*
X100683381Y-82566307D01*
X100613739Y-82696599D01*
X100570853Y-82837974D01*
X100556372Y-82985000D01*
X100556372Y-83985000D01*
X100570853Y-84132026D01*
X100613739Y-84273401D01*
X100683381Y-84403693D01*
X100777105Y-84517895D01*
X100795244Y-84532782D01*
X100785005Y-85733721D01*
X100789693Y-85772227D01*
X100799748Y-85799860D01*
X100815000Y-85825000D01*
X100965000Y-86025000D01*
X100978934Y-86041066D01*
X101001664Y-86059720D01*
X101027597Y-86073582D01*
X101055736Y-86082118D01*
X101085000Y-86085000D01*
X101660001Y-86085000D01*
X101660001Y-86517233D01*
X101589062Y-86588172D01*
X101452265Y-86792903D01*
X101358037Y-87020389D01*
X101310000Y-87261886D01*
X101310000Y-87508114D01*
X101358037Y-87749611D01*
X101452265Y-87977097D01*
X101589062Y-88181828D01*
X101763172Y-88355938D01*
X101967903Y-88492735D01*
X102195389Y-88586963D01*
X102436886Y-88635000D01*
X102683114Y-88635000D01*
X102924611Y-88586963D01*
X103152097Y-88492735D01*
X103356828Y-88355938D01*
X103530938Y-88181828D01*
X103667735Y-87977097D01*
X103761963Y-87749611D01*
X103779787Y-87660000D01*
X113831371Y-87660000D01*
X113835000Y-88172500D01*
X114022500Y-88360000D01*
X114885000Y-88360000D01*
X114885000Y-87097500D01*
X115185000Y-87097500D01*
X115185000Y-88360000D01*
X116047500Y-88360000D01*
X116235000Y-88172500D01*
X116238629Y-87660000D01*
X116224148Y-87512974D01*
X116181262Y-87371599D01*
X116111620Y-87241306D01*
X116017896Y-87127104D01*
X115903694Y-87033380D01*
X115773401Y-86963738D01*
X115632026Y-86920852D01*
X115485000Y-86906371D01*
X115372500Y-86910000D01*
X115185000Y-87097500D01*
X114885000Y-87097500D01*
X114697500Y-86910000D01*
X114585000Y-86906371D01*
X114437974Y-86920852D01*
X114296599Y-86963738D01*
X114166306Y-87033380D01*
X114052104Y-87127104D01*
X113958380Y-87241306D01*
X113888738Y-87371599D01*
X113845852Y-87512974D01*
X113831371Y-87660000D01*
X103779787Y-87660000D01*
X103810000Y-87508114D01*
X103810000Y-87261886D01*
X103761963Y-87020389D01*
X103667735Y-86792903D01*
X103530938Y-86588172D01*
X103460000Y-86517234D01*
X103460000Y-86085000D01*
X103936923Y-86085000D01*
X103963739Y-86173401D01*
X104033381Y-86303693D01*
X104127105Y-86417895D01*
X104241307Y-86511619D01*
X104371599Y-86581261D01*
X104512974Y-86624147D01*
X104660000Y-86638628D01*
X105660000Y-86638628D01*
X105807026Y-86624147D01*
X105948401Y-86581261D01*
X106078693Y-86511619D01*
X106160000Y-86444891D01*
X106241307Y-86511619D01*
X106371599Y-86581261D01*
X106512974Y-86624147D01*
X106660000Y-86638628D01*
X107660000Y-86638628D01*
X107807026Y-86624147D01*
X107948401Y-86581261D01*
X108078693Y-86511619D01*
X108160000Y-86444891D01*
X108241307Y-86511619D01*
X108371599Y-86581261D01*
X108512974Y-86624147D01*
X108660000Y-86638628D01*
X109660000Y-86638628D01*
X109807026Y-86624147D01*
X109948401Y-86581261D01*
X110078693Y-86511619D01*
X110160000Y-86444891D01*
X110241307Y-86511619D01*
X110371599Y-86581261D01*
X110512974Y-86624147D01*
X110660000Y-86638628D01*
X111660000Y-86638628D01*
X111807026Y-86624147D01*
X111948401Y-86581261D01*
X112078693Y-86511619D01*
X112160000Y-86444891D01*
X112241307Y-86511619D01*
X112371599Y-86581261D01*
X112512974Y-86624147D01*
X112660000Y-86638628D01*
X113660000Y-86638628D01*
X113807026Y-86624147D01*
X113948401Y-86581261D01*
X114078693Y-86511619D01*
X114160000Y-86444891D01*
X114241307Y-86511619D01*
X114371599Y-86581261D01*
X114512974Y-86624147D01*
X114660000Y-86638628D01*
X115660000Y-86638628D01*
X115807026Y-86624147D01*
X115948401Y-86581261D01*
X116078693Y-86511619D01*
X116192895Y-86417895D01*
X116286619Y-86303693D01*
X116356261Y-86173401D01*
X116383077Y-86085000D01*
X119235000Y-86085000D01*
X119264264Y-86082118D01*
X119292403Y-86073582D01*
X119318336Y-86059720D01*
X119341066Y-86041066D01*
X119359720Y-86018336D01*
X119373582Y-85992403D01*
X119382118Y-85964264D01*
X119385000Y-85935000D01*
X119385000Y-84634975D01*
X119428694Y-84611620D01*
X119542896Y-84517896D01*
X119636620Y-84403694D01*
X119706262Y-84273401D01*
X119749148Y-84132026D01*
X119763629Y-83985000D01*
X119760000Y-83822500D01*
X119572500Y-83635000D01*
X119385000Y-83635000D01*
X119385000Y-83335000D01*
X119572500Y-83335000D01*
X119760000Y-83147500D01*
X119763629Y-82985000D01*
X119749148Y-82837974D01*
X119706262Y-82696599D01*
X119636620Y-82566306D01*
X119569892Y-82484999D01*
X119625038Y-82417804D01*
X119663172Y-82455938D01*
X119867903Y-82592735D01*
X120095389Y-82686963D01*
X120336886Y-82735000D01*
X120583114Y-82735000D01*
X120735000Y-82704788D01*
X120735000Y-85312208D01*
X119104400Y-86942808D01*
X119032026Y-86920853D01*
X118885000Y-86906372D01*
X117985000Y-86906372D01*
X117837974Y-86920853D01*
X117696599Y-86963739D01*
X117566307Y-87033381D01*
X117452105Y-87127105D01*
X117358381Y-87241307D01*
X117288739Y-87371599D01*
X117245853Y-87512974D01*
X117231372Y-87660000D01*
X117231372Y-89360000D01*
X117245853Y-89507026D01*
X117288739Y-89648401D01*
X117358381Y-89778693D01*
X117452105Y-89892895D01*
X117566307Y-89986619D01*
X117696599Y-90056261D01*
X117837974Y-90099147D01*
X117985000Y-90113628D01*
X118733580Y-90113628D01*
X117554865Y-91292343D01*
X117520525Y-91320525D01*
X117408057Y-91457569D01*
X117324486Y-91613920D01*
X117290627Y-91725539D01*
X117273023Y-91783570D01*
X117255646Y-91960000D01*
X117260000Y-92004207D01*
X117260000Y-92255546D01*
X117244526Y-92250852D01*
X117097500Y-92236371D01*
X116947500Y-92240000D01*
X116760000Y-92427500D01*
X116760000Y-93540000D01*
X116780000Y-93540000D01*
X116780000Y-93840000D01*
X116760000Y-93840000D01*
X116760000Y-94952500D01*
X116865000Y-95057500D01*
X116750000Y-95172500D01*
X116750000Y-96285000D01*
X116770000Y-96285000D01*
X116770000Y-96585000D01*
X116750000Y-96585000D01*
X116750000Y-97697500D01*
X116907500Y-97855000D01*
X116760000Y-98002500D01*
X116760000Y-99115000D01*
X116780000Y-99115000D01*
X116780000Y-99415000D01*
X116760000Y-99415000D01*
X116760000Y-100527500D01*
X116867500Y-100635000D01*
X116760000Y-100742500D01*
X116760000Y-101855000D01*
X116780000Y-101855000D01*
X116780000Y-102155000D01*
X116760000Y-102155000D01*
X116760000Y-102175000D01*
X116460000Y-102175000D01*
X116460000Y-102155000D01*
X116440000Y-102155000D01*
X116440000Y-101855000D01*
X116460000Y-101855000D01*
X116460000Y-100742500D01*
X116352500Y-100635000D01*
X116460000Y-100527500D01*
X116460000Y-99415000D01*
X116440000Y-99415000D01*
X116440000Y-99115000D01*
X116460000Y-99115000D01*
X116460000Y-98002500D01*
X116302500Y-97845000D01*
X116450000Y-97697500D01*
X116450000Y-96585000D01*
X116430000Y-96585000D01*
X116430000Y-96285000D01*
X116450000Y-96285000D01*
X116450000Y-95172500D01*
X116345000Y-95067500D01*
X116460000Y-94952500D01*
X116460000Y-93840000D01*
X116440000Y-93840000D01*
X116440000Y-93540000D01*
X116460000Y-93540000D01*
X116460000Y-92427500D01*
X116272500Y-92240000D01*
X116122500Y-92236371D01*
X115975474Y-92250852D01*
X115834099Y-92293738D01*
X115703806Y-92363380D01*
X115593307Y-92454065D01*
X115532864Y-92404461D01*
X115360430Y-92312293D01*
X115173329Y-92255536D01*
X114978750Y-92236372D01*
X114491250Y-92236372D01*
X114296671Y-92255536D01*
X114109570Y-92312293D01*
X113937136Y-92404461D01*
X113798988Y-92517836D01*
X113692586Y-92430514D01*
X113519072Y-92337769D01*
X113330799Y-92280656D01*
X113135001Y-92261372D01*
X112609999Y-92261372D01*
X112414201Y-92280656D01*
X112225928Y-92337769D01*
X112052414Y-92430514D01*
X111960000Y-92506356D01*
X111867586Y-92430514D01*
X111694072Y-92337769D01*
X111505799Y-92280656D01*
X111310001Y-92261372D01*
X110784999Y-92261372D01*
X110589201Y-92280656D01*
X110400928Y-92337769D01*
X110227414Y-92430514D01*
X110075328Y-92555328D01*
X109950514Y-92707414D01*
X109895318Y-92810678D01*
X109894999Y-92810647D01*
X109850802Y-92815000D01*
X109850793Y-92815000D01*
X109718569Y-92828023D01*
X109548919Y-92879486D01*
X109392568Y-92963057D01*
X109255525Y-93075525D01*
X109227343Y-93109865D01*
X107954841Y-94382367D01*
X107920506Y-94410545D01*
X107892328Y-94444880D01*
X107892325Y-94444883D01*
X107808037Y-94547589D01*
X107724467Y-94703939D01*
X107673003Y-94873590D01*
X107655626Y-95050020D01*
X107659981Y-95094237D01*
X107659981Y-98958636D01*
X104963125Y-96261780D01*
X104927107Y-96217893D01*
X104751997Y-96074184D01*
X104552215Y-95967398D01*
X104335439Y-95901640D01*
X104166492Y-95885000D01*
X104166482Y-95885000D01*
X104110000Y-95879437D01*
X104053518Y-95885000D01*
X101721735Y-95885000D01*
X101666052Y-95896076D01*
X101609561Y-95901640D01*
X101555241Y-95918118D01*
X101499557Y-95929194D01*
X101447107Y-95950920D01*
X101392785Y-95967398D01*
X101342717Y-95994160D01*
X101290271Y-96015884D01*
X101243070Y-96047422D01*
X101193003Y-96074184D01*
X101149121Y-96110197D01*
X101101918Y-96141737D01*
X101061775Y-96181880D01*
X101017893Y-96217893D01*
X100981880Y-96261775D01*
X100941737Y-96301918D01*
X100910197Y-96349121D01*
X100874184Y-96393003D01*
X100847422Y-96443070D01*
X100815884Y-96490271D01*
X100794160Y-96542717D01*
X100767398Y-96592785D01*
X100750920Y-96647107D01*
X100729194Y-96699557D01*
X100718118Y-96755241D01*
X100701640Y-96809561D01*
X100696076Y-96866052D01*
X100687366Y-96909842D01*
X100360000Y-97237208D01*
X100360000Y-91985000D01*
X101706372Y-91985000D01*
X101706372Y-93585000D01*
X101720853Y-93732026D01*
X101763739Y-93873401D01*
X101833381Y-94003693D01*
X101927105Y-94117895D01*
X102041307Y-94211619D01*
X102171599Y-94281261D01*
X102312974Y-94324147D01*
X102460000Y-94338628D01*
X104060000Y-94338628D01*
X104207026Y-94324147D01*
X104348401Y-94281261D01*
X104478693Y-94211619D01*
X104592895Y-94117895D01*
X104686619Y-94003693D01*
X104756261Y-93873401D01*
X104762152Y-93853979D01*
X105903153Y-93853979D01*
X105970132Y-94127355D01*
X106247190Y-94255657D01*
X106543955Y-94327443D01*
X106849022Y-94339953D01*
X107150667Y-94292708D01*
X107437299Y-94187522D01*
X107549868Y-94127355D01*
X107616847Y-93853979D01*
X106760000Y-92997132D01*
X105903153Y-93853979D01*
X104762152Y-93853979D01*
X104799147Y-93732026D01*
X104813628Y-93585000D01*
X104813628Y-92874022D01*
X105205047Y-92874022D01*
X105252292Y-93175667D01*
X105357478Y-93462299D01*
X105417645Y-93574868D01*
X105691021Y-93641847D01*
X106547868Y-92785000D01*
X106972132Y-92785000D01*
X107828979Y-93641847D01*
X108102355Y-93574868D01*
X108230657Y-93297810D01*
X108302443Y-93001045D01*
X108314953Y-92695978D01*
X108267708Y-92394333D01*
X108162522Y-92107701D01*
X108102355Y-91995132D01*
X107828979Y-91928153D01*
X106972132Y-92785000D01*
X106547868Y-92785000D01*
X105691021Y-91928153D01*
X105417645Y-91995132D01*
X105289343Y-92272190D01*
X105217557Y-92568955D01*
X105205047Y-92874022D01*
X104813628Y-92874022D01*
X104813628Y-91985000D01*
X104799147Y-91837974D01*
X104762153Y-91716021D01*
X105903153Y-91716021D01*
X106760000Y-92572868D01*
X107616847Y-91716021D01*
X107549868Y-91442645D01*
X107272810Y-91314343D01*
X106976045Y-91242557D01*
X106670978Y-91230047D01*
X106369333Y-91277292D01*
X106082701Y-91382478D01*
X105970132Y-91442645D01*
X105903153Y-91716021D01*
X104762153Y-91716021D01*
X104756261Y-91696599D01*
X104686619Y-91566307D01*
X104592895Y-91452105D01*
X104478693Y-91358381D01*
X104348401Y-91288739D01*
X104207026Y-91245853D01*
X104060000Y-91231372D01*
X102460000Y-91231372D01*
X102312974Y-91245853D01*
X102171599Y-91288739D01*
X102041307Y-91358381D01*
X101927105Y-91452105D01*
X101833381Y-91566307D01*
X101763739Y-91696599D01*
X101720853Y-91837974D01*
X101706372Y-91985000D01*
X100360000Y-91985000D01*
X100360000Y-89360000D01*
X113831371Y-89360000D01*
X113845852Y-89507026D01*
X113888738Y-89648401D01*
X113958380Y-89778694D01*
X114052104Y-89892896D01*
X114166306Y-89986620D01*
X114296599Y-90056262D01*
X114437974Y-90099148D01*
X114585000Y-90113629D01*
X114697500Y-90110000D01*
X114885000Y-89922500D01*
X114885000Y-88660000D01*
X115185000Y-88660000D01*
X115185000Y-89922500D01*
X115372500Y-90110000D01*
X115485000Y-90113629D01*
X115632026Y-90099148D01*
X115773401Y-90056262D01*
X115903694Y-89986620D01*
X116017896Y-89892896D01*
X116111620Y-89778694D01*
X116181262Y-89648401D01*
X116224148Y-89507026D01*
X116238629Y-89360000D01*
X116235000Y-88847500D01*
X116047500Y-88660000D01*
X115185000Y-88660000D01*
X114885000Y-88660000D01*
X114022500Y-88660000D01*
X113835000Y-88847500D01*
X113831371Y-89360000D01*
X100360000Y-89360000D01*
X100360000Y-74735000D01*
X100508114Y-74735000D01*
X100608125Y-74715107D01*
X100570853Y-74837974D01*
G37*
%TD.AperFunction*%
D26*
X131622500Y-98185000D02*
X132535000Y-98185000D01*
X132535000Y-98165000D01*
X132835000Y-98165000D01*
X132835000Y-98185000D01*
X132855000Y-98185000D01*
X132855000Y-98485000D01*
X132835000Y-98485000D01*
X132835000Y-99622500D01*
X133022500Y-99810000D01*
X133185000Y-99813629D01*
X133332026Y-99799148D01*
X133473401Y-99756262D01*
X133603694Y-99686620D01*
X133716224Y-99594268D01*
X133777414Y-99644486D01*
X133950928Y-99737231D01*
X133975937Y-99744817D01*
X133385753Y-100335001D01*
X131963628Y-100335001D01*
X131963628Y-99776595D01*
X132037974Y-99799148D01*
X132185000Y-99813629D01*
X132347500Y-99810000D01*
X132535000Y-99622500D01*
X132535000Y-98485000D01*
X131622500Y-98485000D01*
X131576837Y-98530663D01*
X131498401Y-98488739D01*
X131357026Y-98445853D01*
X131310000Y-98441221D01*
X131310000Y-98193644D01*
X131369672Y-98144672D01*
X131465457Y-98027957D01*
X131622500Y-98185000D01*
%TA.AperFunction,Conductor*%
D27*
G36*
X131622500Y-98185000D02*
G01*
X132535000Y-98185000D01*
X132535000Y-98165000D01*
X132835000Y-98165000D01*
X132835000Y-98185000D01*
X132855000Y-98185000D01*
X132855000Y-98485000D01*
X132835000Y-98485000D01*
X132835000Y-99622500D01*
X133022500Y-99810000D01*
X133185000Y-99813629D01*
X133332026Y-99799148D01*
X133473401Y-99756262D01*
X133603694Y-99686620D01*
X133716224Y-99594268D01*
X133777414Y-99644486D01*
X133950928Y-99737231D01*
X133975937Y-99744817D01*
X133385753Y-100335001D01*
X131963628Y-100335001D01*
X131963628Y-99776595D01*
X132037974Y-99799148D01*
X132185000Y-99813629D01*
X132347500Y-99810000D01*
X132535000Y-99622500D01*
X132535000Y-98485000D01*
X131622500Y-98485000D01*
X131576837Y-98530663D01*
X131498401Y-98488739D01*
X131357026Y-98445853D01*
X131310000Y-98441221D01*
X131310000Y-98193644D01*
X131369672Y-98144672D01*
X131465457Y-98027957D01*
X131622500Y-98185000D01*
G37*
%TD.AperFunction*%
D26*
X151660001Y-63597269D02*
X151422360Y-63550000D01*
X151077640Y-63550000D01*
X150739544Y-63617251D01*
X150421064Y-63749170D01*
X150134440Y-63940686D01*
X149890686Y-64184440D01*
X149699170Y-64471064D01*
X149567251Y-64789544D01*
X149500000Y-65127640D01*
X149500000Y-65472360D01*
X149567251Y-65810456D01*
X149699170Y-66128936D01*
X149890686Y-66415560D01*
X150045126Y-66570000D01*
X149890686Y-66724440D01*
X149699170Y-67011064D01*
X149567251Y-67329544D01*
X149500000Y-67667640D01*
X149500000Y-68012360D01*
X149567251Y-68350456D01*
X149699170Y-68668936D01*
X149890686Y-68955560D01*
X150045126Y-69110000D01*
X149890686Y-69264440D01*
X149699170Y-69551064D01*
X149567251Y-69869544D01*
X149500000Y-70207640D01*
X149500000Y-70552360D01*
X149567251Y-70890456D01*
X149699170Y-71208936D01*
X149890686Y-71495560D01*
X150045126Y-71650000D01*
X149890686Y-71804440D01*
X149699170Y-72091064D01*
X149567251Y-72409544D01*
X149500000Y-72747640D01*
X149500000Y-73092360D01*
X149567251Y-73430456D01*
X149699170Y-73748936D01*
X149890686Y-74035560D01*
X150045126Y-74190000D01*
X149890686Y-74344440D01*
X149699170Y-74631064D01*
X149567251Y-74949544D01*
X149500000Y-75287640D01*
X149500000Y-75632360D01*
X149567251Y-75970456D01*
X149699170Y-76288936D01*
X149890686Y-76575560D01*
X150134440Y-76819314D01*
X150421064Y-77010830D01*
X150739544Y-77142749D01*
X151077640Y-77210000D01*
X151422360Y-77210000D01*
X151660001Y-77162731D01*
X151660001Y-80212209D01*
X151102656Y-79654864D01*
X151074474Y-79620524D01*
X150937431Y-79508056D01*
X150781080Y-79424485D01*
X150611430Y-79373022D01*
X150479206Y-79359999D01*
X150479205Y-79359999D01*
X150434999Y-79355645D01*
X150390793Y-79359999D01*
X147154197Y-79359999D01*
X147110000Y-79355646D01*
X147065804Y-79359999D01*
X147065794Y-79359999D01*
X146933570Y-79373022D01*
X146763920Y-79424485D01*
X146607569Y-79508056D01*
X146470526Y-79620524D01*
X146442348Y-79654859D01*
X145837207Y-80260000D01*
X145736886Y-80260000D01*
X145495389Y-80308037D01*
X145267903Y-80402265D01*
X145063172Y-80539062D01*
X144889062Y-80713172D01*
X144752265Y-80917903D01*
X144710000Y-81019940D01*
X144710000Y-78354207D01*
X144714354Y-78310000D01*
X144707159Y-78236943D01*
X144696977Y-78133569D01*
X144673922Y-78057568D01*
X144645514Y-77963918D01*
X144561943Y-77807568D01*
X144531534Y-77770514D01*
X144449475Y-77670525D01*
X144415135Y-77642343D01*
X143102657Y-76329865D01*
X143074475Y-76295525D01*
X142937432Y-76183057D01*
X142781081Y-76099486D01*
X142611431Y-76048023D01*
X142479207Y-76035000D01*
X142479206Y-76035000D01*
X142435000Y-76030646D01*
X142390794Y-76035000D01*
X137329203Y-76035000D01*
X137284999Y-76030646D01*
X137240795Y-76035000D01*
X137240793Y-76035000D01*
X137108569Y-76048023D01*
X136938919Y-76099486D01*
X136782568Y-76183057D01*
X136645525Y-76295525D01*
X136617343Y-76329865D01*
X136074865Y-76872343D01*
X136040525Y-76900525D01*
X135928057Y-77037569D01*
X135889121Y-77110413D01*
X135802097Y-77052265D01*
X135574611Y-76958037D01*
X135333114Y-76910000D01*
X135086886Y-76910000D01*
X134845389Y-76958037D01*
X134617903Y-77052265D01*
X134413172Y-77189062D01*
X134342234Y-77260000D01*
X133104203Y-77260000D01*
X133059999Y-77255646D01*
X133015795Y-77260000D01*
X133015793Y-77260000D01*
X132883569Y-77273023D01*
X132713919Y-77324486D01*
X132557568Y-77408057D01*
X132557566Y-77408058D01*
X132557567Y-77408058D01*
X132454862Y-77492345D01*
X132454860Y-77492347D01*
X132420525Y-77520525D01*
X132392347Y-77554860D01*
X131779860Y-78167348D01*
X131745526Y-78195525D01*
X131717348Y-78229860D01*
X131717345Y-78229863D01*
X131633057Y-78332569D01*
X131549487Y-78488919D01*
X131498023Y-78658570D01*
X131480646Y-78835000D01*
X131485001Y-78879216D01*
X131485000Y-82083204D01*
X131485001Y-82083214D01*
X131485000Y-85140793D01*
X131480646Y-85185000D01*
X131487041Y-85249931D01*
X131498023Y-85361430D01*
X131549486Y-85531080D01*
X131633057Y-85687431D01*
X131745525Y-85824475D01*
X131779866Y-85852658D01*
X132117340Y-86190131D01*
X132145526Y-86224476D01*
X132282569Y-86336944D01*
X132418559Y-86409632D01*
X132383037Y-86495389D01*
X132335000Y-86736886D01*
X132335000Y-86983114D01*
X132383037Y-87224611D01*
X132477265Y-87452097D01*
X132614062Y-87656828D01*
X132788172Y-87830938D01*
X132992903Y-87967735D01*
X133220389Y-88061963D01*
X133461886Y-88110000D01*
X133562208Y-88110000D01*
X133692343Y-88240135D01*
X133720525Y-88274475D01*
X133792533Y-88333570D01*
X133857568Y-88386943D01*
X134013918Y-88470514D01*
X134183569Y-88521977D01*
X134360000Y-88539354D01*
X134404207Y-88535000D01*
X134536203Y-88535000D01*
X134420389Y-88558037D01*
X134192903Y-88652265D01*
X133988172Y-88789062D01*
X133814062Y-88963172D01*
X133677265Y-89167903D01*
X133583037Y-89395389D01*
X133535000Y-89636886D01*
X133535000Y-89883114D01*
X133543965Y-89928186D01*
X133374611Y-89858037D01*
X133133114Y-89810000D01*
X132886886Y-89810000D01*
X132645389Y-89858037D01*
X132417903Y-89952265D01*
X132213172Y-90089062D01*
X132039062Y-90263172D01*
X131902265Y-90467903D01*
X131808037Y-90695389D01*
X131760000Y-90936886D01*
X131760000Y-91183114D01*
X131808037Y-91424611D01*
X131902265Y-91652097D01*
X132039062Y-91856828D01*
X132213172Y-92030938D01*
X132320351Y-92102553D01*
X132283965Y-92222500D01*
X132273023Y-92258570D01*
X132255646Y-92435000D01*
X132260000Y-92479207D01*
X132260001Y-94953773D01*
X132138014Y-95102414D01*
X132045269Y-95275928D01*
X131988156Y-95464201D01*
X131968872Y-95659999D01*
X131968872Y-96060000D01*
X131565355Y-96060000D01*
X131494486Y-95927414D01*
X131369672Y-95775328D01*
X131217586Y-95650514D01*
X131044072Y-95557769D01*
X130855798Y-95500656D01*
X130660000Y-95481372D01*
X130160000Y-95481372D01*
X129964202Y-95500656D01*
X129775928Y-95557769D01*
X129602414Y-95650514D01*
X129541224Y-95700732D01*
X129428694Y-95608380D01*
X129298401Y-95538738D01*
X129157026Y-95495852D01*
X129010000Y-95481371D01*
X128847500Y-95485000D01*
X128660000Y-95672500D01*
X128660000Y-96810000D01*
X128680000Y-96810000D01*
X128680000Y-97110000D01*
X128660000Y-97110000D01*
X128660000Y-98247500D01*
X128847500Y-98435000D01*
X129010000Y-98438629D01*
X129157026Y-98424148D01*
X129298401Y-98381262D01*
X129428694Y-98311620D01*
X129510000Y-98244893D01*
X129510001Y-99640784D01*
X129505646Y-99685000D01*
X129523023Y-99861430D01*
X129556372Y-99971365D01*
X129556372Y-100335001D01*
X128522501Y-100335001D01*
X128372500Y-100185000D01*
X127510000Y-100185000D01*
X127510000Y-100205000D01*
X127210000Y-100205000D01*
X127210000Y-100185000D01*
X126347500Y-100185000D01*
X126333882Y-100198618D01*
X126227096Y-100127266D01*
X125999610Y-100033038D01*
X125758113Y-99985001D01*
X125511885Y-99985001D01*
X125270388Y-100033038D01*
X125062737Y-100119050D01*
X125063628Y-100110000D01*
X125063628Y-99185000D01*
X126156371Y-99185000D01*
X126160000Y-99697500D01*
X126347500Y-99885000D01*
X127210000Y-99885000D01*
X127210000Y-98622500D01*
X127510000Y-98622500D01*
X127510000Y-99885000D01*
X128372500Y-99885000D01*
X128560000Y-99697500D01*
X128563629Y-99185000D01*
X128549148Y-99037974D01*
X128506262Y-98896599D01*
X128436620Y-98766306D01*
X128342896Y-98652104D01*
X128228694Y-98558380D01*
X128098401Y-98488738D01*
X127957026Y-98445852D01*
X127810000Y-98431371D01*
X127697500Y-98435000D01*
X127510000Y-98622500D01*
X127210000Y-98622500D01*
X127022500Y-98435000D01*
X126910000Y-98431371D01*
X126762974Y-98445852D01*
X126621599Y-98488738D01*
X126491306Y-98558380D01*
X126377104Y-98652104D01*
X126283380Y-98766306D01*
X126213738Y-98896599D01*
X126170852Y-99037974D01*
X126156371Y-99185000D01*
X125063628Y-99185000D01*
X125063628Y-98410000D01*
X125049147Y-98262974D01*
X125006261Y-98121599D01*
X124936619Y-97991307D01*
X124842895Y-97877105D01*
X124728693Y-97783381D01*
X124683511Y-97759231D01*
X124702801Y-97739941D01*
X124739511Y-97685000D01*
X127256371Y-97685000D01*
X127270852Y-97832026D01*
X127313738Y-97973401D01*
X127383380Y-98103694D01*
X127477104Y-98217896D01*
X127591306Y-98311620D01*
X127721599Y-98381262D01*
X127862974Y-98424148D01*
X128010000Y-98438629D01*
X128172500Y-98435000D01*
X128360000Y-98247500D01*
X128360000Y-97110000D01*
X127447500Y-97110000D01*
X127260000Y-97297500D01*
X127256371Y-97685000D01*
X124739511Y-97685000D01*
X124877902Y-97477884D01*
X124998513Y-97186703D01*
X125060000Y-96877586D01*
X125060000Y-96562414D01*
X124998513Y-96253297D01*
X124990935Y-96235000D01*
X127256371Y-96235000D01*
X127260000Y-96622500D01*
X127447500Y-96810000D01*
X128360000Y-96810000D01*
X128360000Y-95672500D01*
X128172500Y-95485000D01*
X128010000Y-95481371D01*
X127862974Y-95495852D01*
X127721599Y-95538738D01*
X127591306Y-95608380D01*
X127477104Y-95702104D01*
X127383380Y-95816306D01*
X127313738Y-95946599D01*
X127270852Y-96087974D01*
X127256371Y-96235000D01*
X124990935Y-96235000D01*
X124877902Y-95962116D01*
X124702801Y-95700059D01*
X124479941Y-95477199D01*
X124217884Y-95302098D01*
X123926703Y-95181487D01*
X123746033Y-95145550D01*
X123864611Y-95121963D01*
X124092097Y-95027735D01*
X124296828Y-94890938D01*
X124470938Y-94716828D01*
X124607735Y-94512097D01*
X124701963Y-94284611D01*
X124750000Y-94043114D01*
X124750000Y-93796886D01*
X124701963Y-93555389D01*
X124607735Y-93327903D01*
X124470938Y-93123172D01*
X124296828Y-92949062D01*
X124230000Y-92904409D01*
X124230000Y-92650728D01*
X124326886Y-92670000D01*
X124573114Y-92670000D01*
X124814611Y-92621963D01*
X125042097Y-92527735D01*
X125246828Y-92390938D01*
X125420938Y-92216828D01*
X125557735Y-92012097D01*
X125638438Y-91817263D01*
X127860000Y-91817263D01*
X127860000Y-92112737D01*
X127917644Y-92402534D01*
X128030717Y-92675517D01*
X128194874Y-92921194D01*
X128403806Y-93130126D01*
X128649483Y-93294283D01*
X128922466Y-93407356D01*
X129212263Y-93465000D01*
X129507737Y-93465000D01*
X129797534Y-93407356D01*
X130070517Y-93294283D01*
X130316194Y-93130126D01*
X130525126Y-92921194D01*
X130689283Y-92675517D01*
X130802356Y-92402534D01*
X130860000Y-92112737D01*
X130860000Y-91817263D01*
X130802356Y-91527466D01*
X130689283Y-91254483D01*
X130525126Y-91008806D01*
X130316194Y-90799874D01*
X130070517Y-90635717D01*
X129797534Y-90522644D01*
X129507737Y-90465000D01*
X129212263Y-90465000D01*
X128922466Y-90522644D01*
X128649483Y-90635717D01*
X128403806Y-90799874D01*
X128194874Y-91008806D01*
X128030717Y-91254483D01*
X127917644Y-91527466D01*
X127860000Y-91817263D01*
X125638438Y-91817263D01*
X125651963Y-91784611D01*
X125700000Y-91543114D01*
X125700000Y-91296886D01*
X125651963Y-91055389D01*
X125557735Y-90827903D01*
X125420938Y-90623172D01*
X125350000Y-90552234D01*
X125350000Y-86937263D01*
X127860000Y-86937263D01*
X127860000Y-87232737D01*
X127917644Y-87522534D01*
X128030717Y-87795517D01*
X128194874Y-88041194D01*
X128403806Y-88250126D01*
X128649483Y-88414283D01*
X128922466Y-88527356D01*
X129212263Y-88585000D01*
X129507737Y-88585000D01*
X129797534Y-88527356D01*
X130070517Y-88414283D01*
X130316194Y-88250126D01*
X130525126Y-88041194D01*
X130689283Y-87795517D01*
X130802356Y-87522534D01*
X130860000Y-87232737D01*
X130860000Y-86937263D01*
X130802356Y-86647466D01*
X130689283Y-86374483D01*
X130525126Y-86128806D01*
X130316194Y-85919874D01*
X130070517Y-85755717D01*
X129797534Y-85642644D01*
X129507737Y-85585000D01*
X129212263Y-85585000D01*
X128922466Y-85642644D01*
X128649483Y-85755717D01*
X128403806Y-85919874D01*
X128194874Y-86128806D01*
X128030717Y-86374483D01*
X127917644Y-86647466D01*
X127860000Y-86937263D01*
X125350000Y-86937263D01*
X125350000Y-83794207D01*
X125354354Y-83750000D01*
X125349986Y-83705646D01*
X125336977Y-83573569D01*
X125316135Y-83504863D01*
X125285514Y-83403918D01*
X125234549Y-83308570D01*
X125201943Y-83247568D01*
X125089475Y-83110525D01*
X125055131Y-83082340D01*
X124870000Y-82897209D01*
X124870000Y-66394207D01*
X124874354Y-66350000D01*
X124869986Y-66305646D01*
X124856977Y-66173569D01*
X124831627Y-66090000D01*
X124805514Y-66003918D01*
X124721943Y-65847568D01*
X124637655Y-65744863D01*
X124609475Y-65710525D01*
X124575136Y-65682344D01*
X123267657Y-64374865D01*
X123239475Y-64340525D01*
X123102432Y-64228057D01*
X122946081Y-64144486D01*
X122776431Y-64093023D01*
X122644207Y-64080000D01*
X122644206Y-64080000D01*
X122600000Y-64075646D01*
X122555794Y-64080000D01*
X121144206Y-64080000D01*
X121100000Y-64075646D01*
X121055793Y-64080000D01*
X120923569Y-64093023D01*
X120753919Y-64144486D01*
X120597568Y-64228057D01*
X120460525Y-64340525D01*
X120432343Y-64374865D01*
X119385000Y-65422208D01*
X119385000Y-61270000D01*
X151660001Y-61270000D01*
X151660001Y-63597269D01*
%TA.AperFunction,Conductor*%
D27*
G36*
X151660001Y-63597269D02*
G01*
X151422360Y-63550000D01*
X151077640Y-63550000D01*
X150739544Y-63617251D01*
X150421064Y-63749170D01*
X150134440Y-63940686D01*
X149890686Y-64184440D01*
X149699170Y-64471064D01*
X149567251Y-64789544D01*
X149500000Y-65127640D01*
X149500000Y-65472360D01*
X149567251Y-65810456D01*
X149699170Y-66128936D01*
X149890686Y-66415560D01*
X150045126Y-66570000D01*
X149890686Y-66724440D01*
X149699170Y-67011064D01*
X149567251Y-67329544D01*
X149500000Y-67667640D01*
X149500000Y-68012360D01*
X149567251Y-68350456D01*
X149699170Y-68668936D01*
X149890686Y-68955560D01*
X150045126Y-69110000D01*
X149890686Y-69264440D01*
X149699170Y-69551064D01*
X149567251Y-69869544D01*
X149500000Y-70207640D01*
X149500000Y-70552360D01*
X149567251Y-70890456D01*
X149699170Y-71208936D01*
X149890686Y-71495560D01*
X150045126Y-71650000D01*
X149890686Y-71804440D01*
X149699170Y-72091064D01*
X149567251Y-72409544D01*
X149500000Y-72747640D01*
X149500000Y-73092360D01*
X149567251Y-73430456D01*
X149699170Y-73748936D01*
X149890686Y-74035560D01*
X150045126Y-74190000D01*
X149890686Y-74344440D01*
X149699170Y-74631064D01*
X149567251Y-74949544D01*
X149500000Y-75287640D01*
X149500000Y-75632360D01*
X149567251Y-75970456D01*
X149699170Y-76288936D01*
X149890686Y-76575560D01*
X150134440Y-76819314D01*
X150421064Y-77010830D01*
X150739544Y-77142749D01*
X151077640Y-77210000D01*
X151422360Y-77210000D01*
X151660001Y-77162731D01*
X151660001Y-80212209D01*
X151102656Y-79654864D01*
X151074474Y-79620524D01*
X150937431Y-79508056D01*
X150781080Y-79424485D01*
X150611430Y-79373022D01*
X150479206Y-79359999D01*
X150479205Y-79359999D01*
X150434999Y-79355645D01*
X150390793Y-79359999D01*
X147154197Y-79359999D01*
X147110000Y-79355646D01*
X147065804Y-79359999D01*
X147065794Y-79359999D01*
X146933570Y-79373022D01*
X146763920Y-79424485D01*
X146607569Y-79508056D01*
X146470526Y-79620524D01*
X146442348Y-79654859D01*
X145837207Y-80260000D01*
X145736886Y-80260000D01*
X145495389Y-80308037D01*
X145267903Y-80402265D01*
X145063172Y-80539062D01*
X144889062Y-80713172D01*
X144752265Y-80917903D01*
X144710000Y-81019940D01*
X144710000Y-78354207D01*
X144714354Y-78310000D01*
X144707159Y-78236943D01*
X144696977Y-78133569D01*
X144673922Y-78057568D01*
X144645514Y-77963918D01*
X144561943Y-77807568D01*
X144531534Y-77770514D01*
X144449475Y-77670525D01*
X144415135Y-77642343D01*
X143102657Y-76329865D01*
X143074475Y-76295525D01*
X142937432Y-76183057D01*
X142781081Y-76099486D01*
X142611431Y-76048023D01*
X142479207Y-76035000D01*
X142479206Y-76035000D01*
X142435000Y-76030646D01*
X142390794Y-76035000D01*
X137329203Y-76035000D01*
X137284999Y-76030646D01*
X137240795Y-76035000D01*
X137240793Y-76035000D01*
X137108569Y-76048023D01*
X136938919Y-76099486D01*
X136782568Y-76183057D01*
X136645525Y-76295525D01*
X136617343Y-76329865D01*
X136074865Y-76872343D01*
X136040525Y-76900525D01*
X135928057Y-77037569D01*
X135889121Y-77110413D01*
X135802097Y-77052265D01*
X135574611Y-76958037D01*
X135333114Y-76910000D01*
X135086886Y-76910000D01*
X134845389Y-76958037D01*
X134617903Y-77052265D01*
X134413172Y-77189062D01*
X134342234Y-77260000D01*
X133104203Y-77260000D01*
X133059999Y-77255646D01*
X133015795Y-77260000D01*
X133015793Y-77260000D01*
X132883569Y-77273023D01*
X132713919Y-77324486D01*
X132557568Y-77408057D01*
X132557566Y-77408058D01*
X132557567Y-77408058D01*
X132454862Y-77492345D01*
X132454860Y-77492347D01*
X132420525Y-77520525D01*
X132392347Y-77554860D01*
X131779860Y-78167348D01*
X131745526Y-78195525D01*
X131717348Y-78229860D01*
X131717345Y-78229863D01*
X131633057Y-78332569D01*
X131549487Y-78488919D01*
X131498023Y-78658570D01*
X131480646Y-78835000D01*
X131485001Y-78879216D01*
X131485000Y-82083204D01*
X131485001Y-82083214D01*
X131485000Y-85140793D01*
X131480646Y-85185000D01*
X131487041Y-85249931D01*
X131498023Y-85361430D01*
X131549486Y-85531080D01*
X131633057Y-85687431D01*
X131745525Y-85824475D01*
X131779866Y-85852658D01*
X132117340Y-86190131D01*
X132145526Y-86224476D01*
X132282569Y-86336944D01*
X132418559Y-86409632D01*
X132383037Y-86495389D01*
X132335000Y-86736886D01*
X132335000Y-86983114D01*
X132383037Y-87224611D01*
X132477265Y-87452097D01*
X132614062Y-87656828D01*
X132788172Y-87830938D01*
X132992903Y-87967735D01*
X133220389Y-88061963D01*
X133461886Y-88110000D01*
X133562208Y-88110000D01*
X133692343Y-88240135D01*
X133720525Y-88274475D01*
X133792533Y-88333570D01*
X133857568Y-88386943D01*
X134013918Y-88470514D01*
X134183569Y-88521977D01*
X134360000Y-88539354D01*
X134404207Y-88535000D01*
X134536203Y-88535000D01*
X134420389Y-88558037D01*
X134192903Y-88652265D01*
X133988172Y-88789062D01*
X133814062Y-88963172D01*
X133677265Y-89167903D01*
X133583037Y-89395389D01*
X133535000Y-89636886D01*
X133535000Y-89883114D01*
X133543965Y-89928186D01*
X133374611Y-89858037D01*
X133133114Y-89810000D01*
X132886886Y-89810000D01*
X132645389Y-89858037D01*
X132417903Y-89952265D01*
X132213172Y-90089062D01*
X132039062Y-90263172D01*
X131902265Y-90467903D01*
X131808037Y-90695389D01*
X131760000Y-90936886D01*
X131760000Y-91183114D01*
X131808037Y-91424611D01*
X131902265Y-91652097D01*
X132039062Y-91856828D01*
X132213172Y-92030938D01*
X132320351Y-92102553D01*
X132283965Y-92222500D01*
X132273023Y-92258570D01*
X132255646Y-92435000D01*
X132260000Y-92479207D01*
X132260001Y-94953773D01*
X132138014Y-95102414D01*
X132045269Y-95275928D01*
X131988156Y-95464201D01*
X131968872Y-95659999D01*
X131968872Y-96060000D01*
X131565355Y-96060000D01*
X131494486Y-95927414D01*
X131369672Y-95775328D01*
X131217586Y-95650514D01*
X131044072Y-95557769D01*
X130855798Y-95500656D01*
X130660000Y-95481372D01*
X130160000Y-95481372D01*
X129964202Y-95500656D01*
X129775928Y-95557769D01*
X129602414Y-95650514D01*
X129541224Y-95700732D01*
X129428694Y-95608380D01*
X129298401Y-95538738D01*
X129157026Y-95495852D01*
X129010000Y-95481371D01*
X128847500Y-95485000D01*
X128660000Y-95672500D01*
X128660000Y-96810000D01*
X128680000Y-96810000D01*
X128680000Y-97110000D01*
X128660000Y-97110000D01*
X128660000Y-98247500D01*
X128847500Y-98435000D01*
X129010000Y-98438629D01*
X129157026Y-98424148D01*
X129298401Y-98381262D01*
X129428694Y-98311620D01*
X129510000Y-98244893D01*
X129510001Y-99640784D01*
X129505646Y-99685000D01*
X129523023Y-99861430D01*
X129556372Y-99971365D01*
X129556372Y-100335001D01*
X128522501Y-100335001D01*
X128372500Y-100185000D01*
X127510000Y-100185000D01*
X127510000Y-100205000D01*
X127210000Y-100205000D01*
X127210000Y-100185000D01*
X126347500Y-100185000D01*
X126333882Y-100198618D01*
X126227096Y-100127266D01*
X125999610Y-100033038D01*
X125758113Y-99985001D01*
X125511885Y-99985001D01*
X125270388Y-100033038D01*
X125062737Y-100119050D01*
X125063628Y-100110000D01*
X125063628Y-99185000D01*
X126156371Y-99185000D01*
X126160000Y-99697500D01*
X126347500Y-99885000D01*
X127210000Y-99885000D01*
X127210000Y-98622500D01*
X127510000Y-98622500D01*
X127510000Y-99885000D01*
X128372500Y-99885000D01*
X128560000Y-99697500D01*
X128563629Y-99185000D01*
X128549148Y-99037974D01*
X128506262Y-98896599D01*
X128436620Y-98766306D01*
X128342896Y-98652104D01*
X128228694Y-98558380D01*
X128098401Y-98488738D01*
X127957026Y-98445852D01*
X127810000Y-98431371D01*
X127697500Y-98435000D01*
X127510000Y-98622500D01*
X127210000Y-98622500D01*
X127022500Y-98435000D01*
X126910000Y-98431371D01*
X126762974Y-98445852D01*
X126621599Y-98488738D01*
X126491306Y-98558380D01*
X126377104Y-98652104D01*
X126283380Y-98766306D01*
X126213738Y-98896599D01*
X126170852Y-99037974D01*
X126156371Y-99185000D01*
X125063628Y-99185000D01*
X125063628Y-98410000D01*
X125049147Y-98262974D01*
X125006261Y-98121599D01*
X124936619Y-97991307D01*
X124842895Y-97877105D01*
X124728693Y-97783381D01*
X124683511Y-97759231D01*
X124702801Y-97739941D01*
X124739511Y-97685000D01*
X127256371Y-97685000D01*
X127270852Y-97832026D01*
X127313738Y-97973401D01*
X127383380Y-98103694D01*
X127477104Y-98217896D01*
X127591306Y-98311620D01*
X127721599Y-98381262D01*
X127862974Y-98424148D01*
X128010000Y-98438629D01*
X128172500Y-98435000D01*
X128360000Y-98247500D01*
X128360000Y-97110000D01*
X127447500Y-97110000D01*
X127260000Y-97297500D01*
X127256371Y-97685000D01*
X124739511Y-97685000D01*
X124877902Y-97477884D01*
X124998513Y-97186703D01*
X125060000Y-96877586D01*
X125060000Y-96562414D01*
X124998513Y-96253297D01*
X124990935Y-96235000D01*
X127256371Y-96235000D01*
X127260000Y-96622500D01*
X127447500Y-96810000D01*
X128360000Y-96810000D01*
X128360000Y-95672500D01*
X128172500Y-95485000D01*
X128010000Y-95481371D01*
X127862974Y-95495852D01*
X127721599Y-95538738D01*
X127591306Y-95608380D01*
X127477104Y-95702104D01*
X127383380Y-95816306D01*
X127313738Y-95946599D01*
X127270852Y-96087974D01*
X127256371Y-96235000D01*
X124990935Y-96235000D01*
X124877902Y-95962116D01*
X124702801Y-95700059D01*
X124479941Y-95477199D01*
X124217884Y-95302098D01*
X123926703Y-95181487D01*
X123746033Y-95145550D01*
X123864611Y-95121963D01*
X124092097Y-95027735D01*
X124296828Y-94890938D01*
X124470938Y-94716828D01*
X124607735Y-94512097D01*
X124701963Y-94284611D01*
X124750000Y-94043114D01*
X124750000Y-93796886D01*
X124701963Y-93555389D01*
X124607735Y-93327903D01*
X124470938Y-93123172D01*
X124296828Y-92949062D01*
X124230000Y-92904409D01*
X124230000Y-92650728D01*
X124326886Y-92670000D01*
X124573114Y-92670000D01*
X124814611Y-92621963D01*
X125042097Y-92527735D01*
X125246828Y-92390938D01*
X125420938Y-92216828D01*
X125557735Y-92012097D01*
X125638438Y-91817263D01*
X127860000Y-91817263D01*
X127860000Y-92112737D01*
X127917644Y-92402534D01*
X128030717Y-92675517D01*
X128194874Y-92921194D01*
X128403806Y-93130126D01*
X128649483Y-93294283D01*
X128922466Y-93407356D01*
X129212263Y-93465000D01*
X129507737Y-93465000D01*
X129797534Y-93407356D01*
X130070517Y-93294283D01*
X130316194Y-93130126D01*
X130525126Y-92921194D01*
X130689283Y-92675517D01*
X130802356Y-92402534D01*
X130860000Y-92112737D01*
X130860000Y-91817263D01*
X130802356Y-91527466D01*
X130689283Y-91254483D01*
X130525126Y-91008806D01*
X130316194Y-90799874D01*
X130070517Y-90635717D01*
X129797534Y-90522644D01*
X129507737Y-90465000D01*
X129212263Y-90465000D01*
X128922466Y-90522644D01*
X128649483Y-90635717D01*
X128403806Y-90799874D01*
X128194874Y-91008806D01*
X128030717Y-91254483D01*
X127917644Y-91527466D01*
X127860000Y-91817263D01*
X125638438Y-91817263D01*
X125651963Y-91784611D01*
X125700000Y-91543114D01*
X125700000Y-91296886D01*
X125651963Y-91055389D01*
X125557735Y-90827903D01*
X125420938Y-90623172D01*
X125350000Y-90552234D01*
X125350000Y-86937263D01*
X127860000Y-86937263D01*
X127860000Y-87232737D01*
X127917644Y-87522534D01*
X128030717Y-87795517D01*
X128194874Y-88041194D01*
X128403806Y-88250126D01*
X128649483Y-88414283D01*
X128922466Y-88527356D01*
X129212263Y-88585000D01*
X129507737Y-88585000D01*
X129797534Y-88527356D01*
X130070517Y-88414283D01*
X130316194Y-88250126D01*
X130525126Y-88041194D01*
X130689283Y-87795517D01*
X130802356Y-87522534D01*
X130860000Y-87232737D01*
X130860000Y-86937263D01*
X130802356Y-86647466D01*
X130689283Y-86374483D01*
X130525126Y-86128806D01*
X130316194Y-85919874D01*
X130070517Y-85755717D01*
X129797534Y-85642644D01*
X129507737Y-85585000D01*
X129212263Y-85585000D01*
X128922466Y-85642644D01*
X128649483Y-85755717D01*
X128403806Y-85919874D01*
X128194874Y-86128806D01*
X128030717Y-86374483D01*
X127917644Y-86647466D01*
X127860000Y-86937263D01*
X125350000Y-86937263D01*
X125350000Y-83794207D01*
X125354354Y-83750000D01*
X125349986Y-83705646D01*
X125336977Y-83573569D01*
X125316135Y-83504863D01*
X125285514Y-83403918D01*
X125234549Y-83308570D01*
X125201943Y-83247568D01*
X125089475Y-83110525D01*
X125055131Y-83082340D01*
X124870000Y-82897209D01*
X124870000Y-66394207D01*
X124874354Y-66350000D01*
X124869986Y-66305646D01*
X124856977Y-66173569D01*
X124831627Y-66090000D01*
X124805514Y-66003918D01*
X124721943Y-65847568D01*
X124637655Y-65744863D01*
X124609475Y-65710525D01*
X124575136Y-65682344D01*
X123267657Y-64374865D01*
X123239475Y-64340525D01*
X123102432Y-64228057D01*
X122946081Y-64144486D01*
X122776431Y-64093023D01*
X122644207Y-64080000D01*
X122644206Y-64080000D01*
X122600000Y-64075646D01*
X122555794Y-64080000D01*
X121144206Y-64080000D01*
X121100000Y-64075646D01*
X121055793Y-64080000D01*
X120923569Y-64093023D01*
X120753919Y-64144486D01*
X120597568Y-64228057D01*
X120460525Y-64340525D01*
X120432343Y-64374865D01*
X119385000Y-65422208D01*
X119385000Y-61270000D01*
X151660001Y-61270000D01*
X151660001Y-63597269D01*
G37*
%TD.AperFunction*%
D26*
X134554865Y-92492343D02*
X134520525Y-92520525D01*
X134408057Y-92657569D01*
X134324486Y-92813920D01*
X134283491Y-92949062D01*
X134273023Y-92983570D01*
X134255646Y-93160000D01*
X134260000Y-93204207D01*
X134260001Y-94814778D01*
X134239914Y-94825514D01*
X134147500Y-94901356D01*
X134060000Y-94829547D01*
X134060000Y-92807792D01*
X134432793Y-92435000D01*
X134612208Y-92435000D01*
X134554865Y-92492343D01*
%TA.AperFunction,Conductor*%
D27*
G36*
X134554865Y-92492343D02*
G01*
X134520525Y-92520525D01*
X134408057Y-92657569D01*
X134324486Y-92813920D01*
X134283491Y-92949062D01*
X134273023Y-92983570D01*
X134255646Y-93160000D01*
X134260000Y-93204207D01*
X134260001Y-94814778D01*
X134239914Y-94825514D01*
X134147500Y-94901356D01*
X134060000Y-94829547D01*
X134060000Y-92807792D01*
X134432793Y-92435000D01*
X134612208Y-92435000D01*
X134554865Y-92492343D01*
G37*
%TD.AperFunction*%
D26*
X147075656Y-87976701D02*
X147056372Y-88172499D01*
X147056372Y-88615836D01*
X147037208Y-88635000D01*
X146711166Y-88635000D01*
X146713628Y-88610000D01*
X146713628Y-88460000D01*
X146697706Y-88298343D01*
X146667855Y-88199937D01*
X147007792Y-87860000D01*
X147108114Y-87860000D01*
X147111247Y-87859377D01*
X147075656Y-87976701D01*
%TA.AperFunction,Conductor*%
D27*
G36*
X147075656Y-87976701D02*
G01*
X147056372Y-88172499D01*
X147056372Y-88615836D01*
X147037208Y-88635000D01*
X146711166Y-88635000D01*
X146713628Y-88610000D01*
X146713628Y-88460000D01*
X146697706Y-88298343D01*
X146667855Y-88199937D01*
X147007792Y-87860000D01*
X147108114Y-87860000D01*
X147111247Y-87859377D01*
X147075656Y-87976701D01*
G37*
%TD.AperFunction*%
D26*
X148585000Y-81233114D02*
X148633037Y-81474611D01*
X148727265Y-81702097D01*
X148864062Y-81906828D01*
X149038172Y-82080938D01*
X149242903Y-82217735D01*
X149470389Y-82311963D01*
X149711886Y-82360000D01*
X149958114Y-82360000D01*
X150035002Y-82344706D01*
X150035001Y-82812206D01*
X149627714Y-83219494D01*
X149523401Y-83163738D01*
X149382026Y-83120852D01*
X149235000Y-83106371D01*
X149072500Y-83110000D01*
X148885000Y-83297500D01*
X148885000Y-84435000D01*
X148905000Y-84435000D01*
X148905000Y-84735000D01*
X148885000Y-84735000D01*
X148885000Y-84755000D01*
X148585000Y-84755000D01*
X148585000Y-84735000D01*
X148565000Y-84735000D01*
X148565000Y-84435000D01*
X148585000Y-84435000D01*
X148585000Y-83297500D01*
X148397500Y-83110000D01*
X148235000Y-83106371D01*
X148087974Y-83120852D01*
X147946599Y-83163738D01*
X147816306Y-83233380D01*
X147703776Y-83325732D01*
X147642586Y-83275514D01*
X147469072Y-83182769D01*
X147280798Y-83125656D01*
X147085000Y-83106372D01*
X146585000Y-83106372D01*
X146389202Y-83125656D01*
X146200928Y-83182769D01*
X146027414Y-83275514D01*
X146022114Y-83279863D01*
X145898401Y-83213738D01*
X145757026Y-83170852D01*
X145610000Y-83156371D01*
X145435000Y-83160000D01*
X145247500Y-83347500D01*
X145247500Y-84460000D01*
X145267500Y-84460000D01*
X145267500Y-84760000D01*
X145247500Y-84760000D01*
X145247500Y-84780000D01*
X144947500Y-84780000D01*
X144947500Y-84760000D01*
X144927500Y-84760000D01*
X144927500Y-84460000D01*
X144947500Y-84460000D01*
X144947500Y-83347500D01*
X144760000Y-83160000D01*
X144710000Y-83158963D01*
X144710000Y-82000060D01*
X144752265Y-82102097D01*
X144889062Y-82306828D01*
X145063172Y-82480938D01*
X145267903Y-82617735D01*
X145495389Y-82711963D01*
X145736886Y-82760000D01*
X145983114Y-82760000D01*
X146224611Y-82711963D01*
X146452097Y-82617735D01*
X146656828Y-82480938D01*
X146830938Y-82306828D01*
X146967735Y-82102097D01*
X147061963Y-81874611D01*
X147110000Y-81633114D01*
X147110000Y-81532793D01*
X147482794Y-81159999D01*
X148585000Y-81159999D01*
X148585000Y-81233114D01*
%TA.AperFunction,Conductor*%
D27*
G36*
X148585000Y-81233114D02*
G01*
X148633037Y-81474611D01*
X148727265Y-81702097D01*
X148864062Y-81906828D01*
X149038172Y-82080938D01*
X149242903Y-82217735D01*
X149470389Y-82311963D01*
X149711886Y-82360000D01*
X149958114Y-82360000D01*
X150035002Y-82344706D01*
X150035001Y-82812206D01*
X149627714Y-83219494D01*
X149523401Y-83163738D01*
X149382026Y-83120852D01*
X149235000Y-83106371D01*
X149072500Y-83110000D01*
X148885000Y-83297500D01*
X148885000Y-84435000D01*
X148905000Y-84435000D01*
X148905000Y-84735000D01*
X148885000Y-84735000D01*
X148885000Y-84755000D01*
X148585000Y-84755000D01*
X148585000Y-84735000D01*
X148565000Y-84735000D01*
X148565000Y-84435000D01*
X148585000Y-84435000D01*
X148585000Y-83297500D01*
X148397500Y-83110000D01*
X148235000Y-83106371D01*
X148087974Y-83120852D01*
X147946599Y-83163738D01*
X147816306Y-83233380D01*
X147703776Y-83325732D01*
X147642586Y-83275514D01*
X147469072Y-83182769D01*
X147280798Y-83125656D01*
X147085000Y-83106372D01*
X146585000Y-83106372D01*
X146389202Y-83125656D01*
X146200928Y-83182769D01*
X146027414Y-83275514D01*
X146022114Y-83279863D01*
X145898401Y-83213738D01*
X145757026Y-83170852D01*
X145610000Y-83156371D01*
X145435000Y-83160000D01*
X145247500Y-83347500D01*
X145247500Y-84460000D01*
X145267500Y-84460000D01*
X145267500Y-84760000D01*
X145247500Y-84760000D01*
X145247500Y-84780000D01*
X144947500Y-84780000D01*
X144947500Y-84760000D01*
X144927500Y-84760000D01*
X144927500Y-84460000D01*
X144947500Y-84460000D01*
X144947500Y-83347500D01*
X144760000Y-83160000D01*
X144710000Y-83158963D01*
X144710000Y-82000060D01*
X144752265Y-82102097D01*
X144889062Y-82306828D01*
X145063172Y-82480938D01*
X145267903Y-82617735D01*
X145495389Y-82711963D01*
X145736886Y-82760000D01*
X145983114Y-82760000D01*
X146224611Y-82711963D01*
X146452097Y-82617735D01*
X146656828Y-82480938D01*
X146830938Y-82306828D01*
X146967735Y-82102097D01*
X147061963Y-81874611D01*
X147110000Y-81633114D01*
X147110000Y-81532793D01*
X147482794Y-81159999D01*
X148585000Y-81159999D01*
X148585000Y-81233114D01*
G37*
%TD.AperFunction*%
D26*
X137977199Y-83079941D02*
X138177379Y-83280121D01*
X138110000Y-83347500D01*
X138110000Y-84460000D01*
X138130000Y-84460000D01*
X138130000Y-84760000D01*
X138110000Y-84760000D01*
X138110000Y-84780000D01*
X137810000Y-84780000D01*
X137810000Y-84760000D01*
X137790000Y-84760000D01*
X137790000Y-84460000D01*
X137810000Y-84460000D01*
X137810000Y-83347500D01*
X137732621Y-83270121D01*
X137922801Y-83079941D01*
X137950000Y-83039235D01*
X137977199Y-83079941D01*
%TA.AperFunction,Conductor*%
D27*
G36*
X137977199Y-83079941D02*
G01*
X138177379Y-83280121D01*
X138110000Y-83347500D01*
X138110000Y-84460000D01*
X138130000Y-84460000D01*
X138130000Y-84760000D01*
X138110000Y-84760000D01*
X138110000Y-84780000D01*
X137810000Y-84780000D01*
X137810000Y-84760000D01*
X137790000Y-84760000D01*
X137790000Y-84460000D01*
X137810000Y-84460000D01*
X137810000Y-83347500D01*
X137732621Y-83270121D01*
X137922801Y-83079941D01*
X137950000Y-83039235D01*
X137977199Y-83079941D01*
G37*
%TD.AperFunction*%
D26*
X134413172Y-79130938D02*
X134617903Y-79267735D01*
X134845389Y-79361963D01*
X135086886Y-79410000D01*
X135333114Y-79410000D01*
X135574611Y-79361963D01*
X135780000Y-79276888D01*
X135780001Y-80737056D01*
X135660059Y-80817199D01*
X135437199Y-81040059D01*
X135406802Y-81085552D01*
X135207925Y-80868550D01*
X134954965Y-80683102D01*
X134670686Y-80550567D01*
X134537346Y-80510124D01*
X134290000Y-80655487D01*
X134290000Y-81910000D01*
X134310000Y-81910000D01*
X134310000Y-82210000D01*
X134290000Y-82210000D01*
X134290000Y-83464513D01*
X134429029Y-83546219D01*
X134388738Y-83621599D01*
X134345852Y-83762974D01*
X134331371Y-83910000D01*
X134335000Y-84072500D01*
X134522500Y-84260000D01*
X135660000Y-84260000D01*
X135660000Y-84240000D01*
X135960000Y-84240000D01*
X135960000Y-84260000D01*
X135980000Y-84260000D01*
X135980000Y-84560000D01*
X135960000Y-84560000D01*
X135960000Y-84580000D01*
X135660000Y-84580000D01*
X135660000Y-84560000D01*
X134522500Y-84560000D01*
X134379113Y-84703387D01*
X134361432Y-84698024D01*
X134229208Y-84685001D01*
X134229207Y-84685001D01*
X134185001Y-84680647D01*
X134140795Y-84685001D01*
X133285000Y-84685001D01*
X133285000Y-83407548D01*
X133325035Y-83436898D01*
X133609314Y-83569433D01*
X133742654Y-83609876D01*
X133990000Y-83464513D01*
X133990000Y-82210000D01*
X133970000Y-82210000D01*
X133970000Y-81910000D01*
X133990000Y-81910000D01*
X133990000Y-80655487D01*
X133742654Y-80510124D01*
X133609314Y-80550567D01*
X133325035Y-80683102D01*
X133285000Y-80712452D01*
X133285000Y-79207792D01*
X133432793Y-79060000D01*
X134342234Y-79060000D01*
X134413172Y-79130938D01*
%TA.AperFunction,Conductor*%
D27*
G36*
X134413172Y-79130938D02*
G01*
X134617903Y-79267735D01*
X134845389Y-79361963D01*
X135086886Y-79410000D01*
X135333114Y-79410000D01*
X135574611Y-79361963D01*
X135780000Y-79276888D01*
X135780001Y-80737056D01*
X135660059Y-80817199D01*
X135437199Y-81040059D01*
X135406802Y-81085552D01*
X135207925Y-80868550D01*
X134954965Y-80683102D01*
X134670686Y-80550567D01*
X134537346Y-80510124D01*
X134290000Y-80655487D01*
X134290000Y-81910000D01*
X134310000Y-81910000D01*
X134310000Y-82210000D01*
X134290000Y-82210000D01*
X134290000Y-83464513D01*
X134429029Y-83546219D01*
X134388738Y-83621599D01*
X134345852Y-83762974D01*
X134331371Y-83910000D01*
X134335000Y-84072500D01*
X134522500Y-84260000D01*
X135660000Y-84260000D01*
X135660000Y-84240000D01*
X135960000Y-84240000D01*
X135960000Y-84260000D01*
X135980000Y-84260000D01*
X135980000Y-84560000D01*
X135960000Y-84560000D01*
X135960000Y-84580000D01*
X135660000Y-84580000D01*
X135660000Y-84560000D01*
X134522500Y-84560000D01*
X134379113Y-84703387D01*
X134361432Y-84698024D01*
X134229208Y-84685001D01*
X134229207Y-84685001D01*
X134185001Y-84680647D01*
X134140795Y-84685001D01*
X133285000Y-84685001D01*
X133285000Y-83407548D01*
X133325035Y-83436898D01*
X133609314Y-83569433D01*
X133742654Y-83609876D01*
X133990000Y-83464513D01*
X133990000Y-82210000D01*
X133970000Y-82210000D01*
X133970000Y-81910000D01*
X133990000Y-81910000D01*
X133990000Y-80655487D01*
X133742654Y-80510124D01*
X133609314Y-80550567D01*
X133325035Y-80683102D01*
X133285000Y-80712452D01*
X133285000Y-79207792D01*
X133432793Y-79060000D01*
X134342234Y-79060000D01*
X134413172Y-79130938D01*
G37*
%TD.AperFunction*%
D26*
X120594440Y-71739314D02*
X120881064Y-71930830D01*
X120969661Y-71967528D01*
X121710000Y-72707868D01*
X121724143Y-72693726D01*
X121936275Y-72905858D01*
X121922132Y-72920000D01*
X121936275Y-72934142D01*
X121724142Y-73146275D01*
X121710000Y-73132132D01*
X120969661Y-73872472D01*
X120881064Y-73909170D01*
X120594440Y-74100686D01*
X120350686Y-74344440D01*
X120159170Y-74631064D01*
X120027251Y-74949544D01*
X119960000Y-75287640D01*
X119960000Y-75632360D01*
X120027251Y-75970456D01*
X120159170Y-76288936D01*
X120163934Y-76296066D01*
X119967903Y-76377265D01*
X119763172Y-76514062D01*
X119692234Y-76585000D01*
X119646611Y-76585000D01*
X119636619Y-76566307D01*
X119569891Y-76485000D01*
X119636619Y-76403693D01*
X119706261Y-76273401D01*
X119749147Y-76132026D01*
X119763628Y-75985000D01*
X119763628Y-74985000D01*
X119749147Y-74837974D01*
X119706261Y-74696599D01*
X119636619Y-74566307D01*
X119569891Y-74485000D01*
X119636619Y-74403693D01*
X119706261Y-74273401D01*
X119749147Y-74132026D01*
X119763628Y-73985000D01*
X119763628Y-73001099D01*
X119953403Y-73001099D01*
X120002976Y-73342236D01*
X120118151Y-73667147D01*
X120204387Y-73828482D01*
X120498167Y-73919700D01*
X121497868Y-72920000D01*
X120498167Y-71920300D01*
X120204387Y-72011518D01*
X120056080Y-72322705D01*
X119971333Y-72656846D01*
X119953403Y-73001099D01*
X119763628Y-73001099D01*
X119763628Y-72985000D01*
X119749147Y-72837974D01*
X119706261Y-72696599D01*
X119636619Y-72566307D01*
X119569891Y-72485000D01*
X119636619Y-72403693D01*
X119706261Y-72273401D01*
X119743801Y-72149648D01*
X119774475Y-72124475D01*
X119802657Y-72090135D01*
X120373959Y-71518833D01*
X120594440Y-71739314D01*
%TA.AperFunction,Conductor*%
D27*
G36*
X120594440Y-71739314D02*
G01*
X120881064Y-71930830D01*
X120969661Y-71967528D01*
X121710000Y-72707868D01*
X121724143Y-72693726D01*
X121936275Y-72905858D01*
X121922132Y-72920000D01*
X121936275Y-72934142D01*
X121724142Y-73146275D01*
X121710000Y-73132132D01*
X120969661Y-73872472D01*
X120881064Y-73909170D01*
X120594440Y-74100686D01*
X120350686Y-74344440D01*
X120159170Y-74631064D01*
X120027251Y-74949544D01*
X119960000Y-75287640D01*
X119960000Y-75632360D01*
X120027251Y-75970456D01*
X120159170Y-76288936D01*
X120163934Y-76296066D01*
X119967903Y-76377265D01*
X119763172Y-76514062D01*
X119692234Y-76585000D01*
X119646611Y-76585000D01*
X119636619Y-76566307D01*
X119569891Y-76485000D01*
X119636619Y-76403693D01*
X119706261Y-76273401D01*
X119749147Y-76132026D01*
X119763628Y-75985000D01*
X119763628Y-74985000D01*
X119749147Y-74837974D01*
X119706261Y-74696599D01*
X119636619Y-74566307D01*
X119569891Y-74485000D01*
X119636619Y-74403693D01*
X119706261Y-74273401D01*
X119749147Y-74132026D01*
X119763628Y-73985000D01*
X119763628Y-73001099D01*
X119953403Y-73001099D01*
X120002976Y-73342236D01*
X120118151Y-73667147D01*
X120204387Y-73828482D01*
X120498167Y-73919700D01*
X121497868Y-72920000D01*
X120498167Y-71920300D01*
X120204387Y-72011518D01*
X120056080Y-72322705D01*
X119971333Y-72656846D01*
X119953403Y-73001099D01*
X119763628Y-73001099D01*
X119763628Y-72985000D01*
X119749147Y-72837974D01*
X119706261Y-72696599D01*
X119636619Y-72566307D01*
X119569891Y-72485000D01*
X119636619Y-72403693D01*
X119706261Y-72273401D01*
X119743801Y-72149648D01*
X119774475Y-72124475D01*
X119802657Y-72090135D01*
X120373959Y-71518833D01*
X120594440Y-71739314D01*
G37*
%TD.AperFunction*%
%TD*%
M02*
